SplineFontDB: 1.0
FontName: AmbrosiaBold
FullName: AmbrosiaBold
FamilyName: Ambrosia
Weight: Bold
Copyright: Generated by Fontographer 3.5
Version: 001.000
ItalicAngle: 0
UnderlinePosition: -133
UnderlineWidth: 20
Ascent: 800
Descent: 200
NeedsXUIDChange: 1
Encoding: mac
DisplaySize: -24
AntiAlias: 1
BeginPrivate: 9
BlueValues 63 [-10.000 0.000 502.000 520.000 750.000 771.000 774.000 775.000]
BlueScale 11 0.363636364
UniqueID 7 4445574
StdHW 8 [13.000]
StdVW 8 [63.000]
StemSnapH 15 [13.000 18.000]
StemSnapV 15 [63.000 89.000]
ForceBoldThreshold 2 .5
ForceBold 4 true
EndPrivate
BeginChars: 301 285
StartChar: Eth
Encoding: 1 208
Width: 510
Flags: MW
HStem: 0 13<37.5 39 39 45> 396 45 737 13<39 45>
VStem: 72 84 350 80
Fore
176 443 m 1
 235 443 l 1
 235 394 l 1
 176 394 l 1
 176 226 176 82 176 69 c 0
 176 14 180 19 194 19 c 0
 267 19 370 146 370 356 c 0
 370 497 294 674 198 716 c 0
 176 726 176 716 176 703 c 0
 176 624 176 534 176 443 c 1
72 394 m 1
 5 394 l 1
 5 443 l 1
 72 443 l 1
 72 568 72 676 72 683 c 0
 72 719 52 737 38 737 c 0
 34 737 32 739 32 743 c 0
 32 749 36 750 39 750 c 2
 122 750 l 2
 176 750 240 726 286 679 c 0
 369 595 470 457 470 288 c 0
 470 107 330 0 175 0 c 2
 39 0 l 2
 36 0 32 1 32 7 c 0
 32 11 34 13 38 13 c 0
 52 13 72 18 72 67 c 2
 72 67 72 233 72 394 c 1
EndSplineSet
EndChar
StartChar: eth
Encoding: 2 240
Width: 395
Flags: MW
HStem: 0 18 488 14<182 217> 720 30<42.5 67>
VStem: 32 57 252 57
Fore
75 651 m 1
 176 651 l 1
 144 696 86 720 48 720 c 0
 36 720 27 722 27 734 c 0
 27 748 34 750 51 750 c 0
 108 750 204 714 249 651 c 1
 374 651 l 1
 374 609 l 1
 275 609 l 1
 320 527 349 415 349 285 c 2
 349 183 l 2
 349 45 276 -1 246 -1 c 0
 210 -1 199 0 199 0 c 2
 121 2 47 76 32 155 c 0
 0 320 95 502 216 502 c 0
 224 502 224 498 224 494 c 0
 224 490 219 488 215 488 c 0
 149 488 91 310 109 196 c 0
 130 63 191 18 216 18 c 0
 247 18 272 48 272 171 c 2
 272 242 l 2
 272 402 244 527 202 609 c 1
 75 609 l 1
 75 651 l 1
EndSplineSet
EndChar
StartChar: Lslash
Encoding: 3 321
Width: 469
Flags: MW
HStem: 0 13 730 20<65 221 221 221>
VStem: 91 84
Fore
91 442 m 1
 91 527 91 612 91 683 c 0
 91 741 61 742 61 746 c 0
 61 750 63 748 65 750 c 1
 221 750 l 2
 224 749 225 748 225 746 c 0
 225 742 195 710 195 683 c 2
 195 462 l 1
 275 481 l 1
 275 436 l 1
 195 417 l 1
 195 42 l 2
 195 19 208 19 230 19 c 0
 267 19 301 28 346 60 c 0
 367 75 373 106 372 126 c 1
 403 112 427 94 446 67 c 0
 450 61 446 54 441 49 c 0
 406 13 347 0 329 0 c 2
 329 0 133 0 86 0 c 0
 79 0 72 -5 67 -5 c 0
 62 -5 53 0 53 4 c 0
 53 13 61 13 66 13 c 0
 68 13 73 9 76 10 c 0
 94 13 91 38 91 67 c 0
 91 78 91 230 91 397 c 1
 5 376 l 1
 5 421 l 1
 91 442 l 1
EndSplineSet
EndChar
StartChar: lslash
Encoding: 4 322
Width: 186
Flags: MW
HStem: 0 20 730 20<14 102 102 105>
VStem: 36 83
Fore
36 425 m 1
 36 568 36 699 36 705 c 0
 36 746 23 741 13 741 c 0
 11 741 9 743 9 745 c 0
 9 749 13 749 14 750 c 2
 102 750 l 2
 108 750 113 750 113 740 c 0
 113 738 113 601 113 445 c 1
 170 458 l 1
 170 413 l 1
 113 400 l 1
 113 226 113 44 113 44 c 2
 113 20 126 8 135 8 c 0
 138 8 139 7 139 4 c 0
 139 0 136 0 135 0 c 2
 14 0 l 2
 13 1 10 0 10 4 c 0
 10 7 11 8 14 8 c 0
 23 8 36 20 36 44 c 0
 36 50 36 216 36 380 c 1
 -25 366 l 1
 -25 411 l 1
 36 425 l 1
EndSplineSet
EndChar
StartChar: Yacute
Encoding: 7 221
Width: 508
Flags: MW
HStem: -6 20
Fore
110 11 m 0
 103 11 94 7 97 0 c 0
 99 -4 103 -6 107 -6 c 0
 117 -6 125 -1 136 -1 c 0
 182 -1 216 -1 261 -1 c 0
 267 -1 275 0 275 5 c 0
 275 14 269 24 268 36 c 0
 267 54 274 74 277 81 c 2
 528 696 l 2
 534 710 538 717 548 726 c 0
 557 734 575 734 575 742 c 1
 575 742 570 749 566 749 c 2
 394 749 l 2
 390 748 385 745 385 742 c 0
 385 736 403 731 410 718 c 0
 416 707 416 698 417 685 c 0
 418 662 417 660 405 628 c 2
 312 380 l 2
 306 365 300 328 278 351 c 0
 196 437 158 512 158 623 c 0
 158 669 176 737 192 737 c 0
 199 737 202 735 209 735 c 0
 213 735 218 738 218 742 c 0
 218 747 214 750 209 750 c 0
 173 750 112 750 77 750 c 0
 70 750 63 744 63 734 c 0
 63 680 75 627 99 563 c 0
 138 457 216 379 269 316 c 0
 275 308 279 299 275 290 c 2
 179 58 l 1
 174 47 154 27 143 20 c 0
 132 13 121 11 110 11 c 0
347 886 m 1
 301 780 l 1
 267 780 l 1
 267 780 276 816 278 839 c 0
 280 857 280 886 280 886 c 1
 347 886 l 1
EndSplineSet
EndChar
StartChar: Thorn
Encoding: 11 222
Width: 413
Flags: MW
HStem: 482 20<113 186 113 113>
VStem: 93 163
Fore
276 306 m 0
 276 192 237 14 170 14 c 0
 147 14 113 37 113 63 c 2
 113 63 113 436 113 448 c 0
 113 472 135 484 157 484 c 0
 194 484 276 441 276 306 c 0
14 750 m 2
 13 750 10 750 10 746 c 0
 10 743 11 742 14 742 c 0
 23 742 36 730 36 706 c 0
 36 694 36 -141 36 -155 c 0
 36 -196 23 -191 13 -191 c 0
 11 -191 9 -193 9 -195 c 0
 9 -199 13 -199 14 -200 c 2
 102 -200 l 2
 108 -200 113 -200 113 -190 c 0
 113 -186 113 20 113 22 c 0
 113 30 123 18 127 15 c 0
 131 12 147 0 169 0 c 0
 290 0 353 187 353 347 c 0
 353 427 283 500 186 502 c 2
 113 502 l 1
 112 750 l 1
 14 750 l 2
EndSplineSet
EndChar
StartChar: thorn
Encoding: 12 254
Width: 413
Flags: MW
HStem: 482 20
VStem: 93 163
Fore
276 254 m 0
 276 140 237 14 170 14 c 0
 147 14 113 37 113 63 c 2
 113 63 113 349 113 361 c 0
 113 385 135 397 157 397 c 0
 194 397 276 389 276 254 c 0
14 637 m 2
 13 637 10 637 10 633 c 0
 10 630 11 629 14 629 c 0
 23 629 36 617 36 593 c 0
 36 581 36 -141 36 -155 c 0
 36 -196 23 -191 13 -191 c 0
 11 -191 9 -193 9 -195 c 0
 9 -199 13 -199 14 -200 c 2
 102 -200 l 2
 108 -200 113 -200 113 -190 c 0
 113 -186 113 20 113 22 c 0
 113 30 123 18 127 15 c 0
 131 12 147 0 169 0 c 0
 290 0 353 135 353 295 c 0
 353 375 264 415 186 415 c 2
 113 415 l 1
 112 637 l 1
 14 637 l 2
EndSplineSet
EndChar
StartChar: onehalf
Encoding: 21 189
Width: 470
Flags: MW
HStem: -1 20 730 20<91 131 131 133>
Fore
255 716 m 0
 258 730 288 732 285 714 c 0
 282 699 155 58 151 40 c 0
 149 28 117 20 121 42 c 0
 124 59 205 464 255 716 c 0
77 725 m 0
 67 716 62 710 56 699 c 0
 50 688 52 683 51 667 c 0
 51 656 48 642 37 642 c 0
 28 642 24 653 24 662 c 0
 24 675 30 687 40 699 c 0
 57 719 69 733 91 750 c 1
 131 750 l 2
 135 750 139 750 139 743 c 0
 139 684 139 419 139 409 c 0
 139 378 149 381 156 381 c 0
 158 381 159 381 159 379 c 0
 159 376 156 376 156 375 c 1
 70 375 l 1
 70 376 67 375 67 378 c 0
 67 381 68 381 70 381 c 0
 77 381 87 384 87 408 c 2
 87 716 l 2
 87 730 81 728 77 725 c 0
404 60 m 1
 404 61 l 2
 418 43 427 21 428 2 c 1
 394 2 328 2 272 2 c 0
 266 2 263 -1 257 -1 c 0
 246 -1 250 30 250 49 c 0
 250 107 252 137 287 194 c 0
 321 249 380 294 380 334 c 0
 380 354 358 372 340 372 c 0
 317 372 288 347 267 323 c 1
 253 343 239 381 239 381 c 1
 283 381 317 381 367 381 c 0
 401 381 430 360 430 332 c 0
 430 264 359 240 316 182 c 0
 290 148 270 113 270 64 c 0
 270 56 276 23 306 23 c 0
 340 23 362 25 388 45 c 0
 395 51 398 54 404 60 c 1
EndSplineSet
EndChar
StartChar: onequarter
Encoding: 22 188
Width: 475
Flags: MW
HStem: 730 20<91 131 131 133>
Fore
255 716 m 0
 258 730 288 732 285 714 c 0
 282 699 155 58 151 40 c 0
 149 28 117 20 121 42 c 0
 124 59 205 464 255 716 c 0
77 725 m 0
 67 716 62 710 56 699 c 0
 50 688 52 683 51 667 c 0
 51 656 48 642 37 642 c 0
 28 642 24 653 24 662 c 0
 24 675 30 687 40 699 c 0
 57 719 69 733 91 750 c 1
 131 750 l 2
 135 750 139 750 139 743 c 0
 139 684 139 419 139 409 c 0
 139 378 149 381 156 381 c 0
 158 381 159 381 159 379 c 0
 159 376 156 376 156 375 c 1
 70 375 l 1
 70 376 67 375 67 378 c 0
 67 381 68 381 70 381 c 0
 77 381 87 384 87 408 c 2
 87 716 l 2
 87 730 81 728 77 725 c 0
324 372 m 1
 323 372 l 1
 323 379 345 378 347 378 c 2
 410 378 l 2
 414 378 418 378 418 370 c 0
 418 333 418 216 418 131 c 0
 418 125 419 119 422 120 c 0
 436 125 443 130 454 145 c 1
 453 133 453 127 450 114 c 0
 449 110 448 104 442 104 c 1
 436 106 431 106 424 106 c 0
 419 106 418 100 418 95 c 0
 418 62 418 39 418 36 c 0
 418 5 428 9 435 9 c 0
 437 9 438 8 438 6 c 0
 438 3 435 3 435 3 c 1
 349 3 l 1
 349 3 346 3 346 6 c 0
 346 8 347 9 349 9 c 0
 356 9 366 11 366 36 c 2
 366 36 366 58 366 91 c 0
 366 99 366 105 356 104 c 0
 331 104 281 101 252 101 c 0
 242 101 235 106 236 123 c 0
 238 204 284 241 313 316 c 0
 320 335 322 346 328 364 c 1
 325 368 324 365 324 372 c 1
366 131 m 0
 366 220 366 337 366 343 c 0
 366 361 360 357 357 354 c 0
 305 296 283 228 283 169 c 0
 283 148 287 118 309 118 c 0
 325 118 337 118 355 118 c 0
 360 118 366 120 366 131 c 0
EndSplineSet
EndChar
StartChar: onesuperior
Encoding: 23 185
Width: 193
Flags: MW
HStem: 730 20<91 131 131 133>
Fore
77 725 m 0
 67 716 62 710 56 699 c 0
 50 688 52 683 51 667 c 0
 51 656 48 642 37 642 c 0
 28 642 24 653 24 662 c 0
 24 675 30 687 40 699 c 0
 57 719 69 733 91 750 c 1
 131 750 l 2
 135 750 139 750 139 743 c 0
 139 684 139 419 139 409 c 0
 139 378 149 381 156 381 c 0
 158 381 159 381 159 379 c 0
 159 376 156 376 156 375 c 1
 70 375 l 1
 70 376 67 375 67 378 c 0
 67 381 68 381 70 381 c 0
 77 381 87 384 87 408 c 2
 87 716 l 2
 87 730 81 728 77 725 c 0
EndSplineSet
EndChar
StartChar: threequarters
Encoding: 24 190
Width: 495
Flags: W
Fore
295 716 m 0
 298 730 328 732 325 714 c 0
 322 699 195 58 191 40 c 0
 189 28 157 20 161 42 c 0
 164 59 245 464 295 716 c 0
47 431 m 1
 49 403 74 381 103 381 c 0
 148 381 168 447 167 500 c 0
 167 545 156 574 122 604 c 1
 113 595 106 589 101 578 c 0
 97 567 95 560 95 548 c 1
 103 541 106 536 106 527 c 0
 106 523 101 518 96 518 c 0
 85 518 78 527 78 544 c 0
 78 567 96 593 118 618 c 0
 140 642 165 659 163 698 c 0
 162 721 148 737 117 737 c 0
 87 737 68 724 49 695 c 1
 31 711 22 721 15 741 c 0
 13 747 19 745 21 745 c 0
 80 747 103 751 154 745 c 0
 173 743 197 729 196 708 c 0
 194 663 165 655 143 632 c 0
 132 620 137 620 141 615 c 0
 168 575 214 518 214 459 c 0
 214 407 182 372 137 369 c 0
 92 366 69 367 25 369 c 0
 22 369 14 369 17 375 c 0
 28 397 31 411 47 431 c 1
329 372 m 1
 328 372 l 1
 328 379 350 378 352 378 c 2
 415 378 l 2
 419 378 423 378 423 370 c 0
 423 333 423 216 423 131 c 0
 423 125 424 119 427 120 c 0
 441 125 448 130 459 145 c 1
 458 133 458 127 455 114 c 0
 454 110 453 104 447 104 c 1
 441 106 436 106 429 106 c 0
 424 106 423 100 423 95 c 0
 423 62 423 39 423 36 c 0
 423 5 433 9 440 9 c 0
 442 9 443 8 443 6 c 0
 443 3 440 3 440 3 c 1
 354 3 l 1
 354 3 351 3 351 6 c 0
 351 8 352 9 354 9 c 0
 361 9 371 11 371 36 c 2
 371 36 371 58 371 91 c 0
 371 99 371 105 361 104 c 0
 336 104 286 101 257 101 c 0
 247 101 240 106 241 123 c 0
 243 204 289 241 318 316 c 0
 325 335 327 346 333 364 c 1
 330 368 329 365 329 372 c 1
371 131 m 0
 371 220 371 337 371 343 c 0
 371 361 365 357 362 354 c 0
 310 296 288 228 288 169 c 0
 288 148 292 118 314 118 c 0
 330 118 342 118 360 118 c 0
 365 118 371 120 371 131 c 0
EndSplineSet
EndChar
StartChar: threesuperior
Encoding: 25 179
Width: 247
Flags: W
Fore
47 431 m 1
 49 403 74 381 103 381 c 0
 148 381 168 447 167 500 c 0
 167 545 156 574 122 604 c 1
 113 595 106 589 101 578 c 0
 97 567 95 560 95 548 c 1
 103 541 106 536 106 527 c 0
 106 523 101 518 96 518 c 0
 85 518 78 527 78 544 c 0
 78 567 96 593 118 618 c 0
 140 642 165 659 163 698 c 0
 162 721 148 737 117 737 c 0
 87 737 68 724 49 695 c 1
 31 711 22 721 15 741 c 0
 13 747 19 745 21 745 c 0
 80 747 103 751 154 745 c 0
 173 743 197 729 196 708 c 0
 194 663 165 655 143 632 c 0
 132 620 137 620 141 615 c 0
 168 575 214 518 214 459 c 0
 214 407 182 372 137 369 c 0
 92 366 69 367 25 369 c 0
 22 369 14 369 17 375 c 0
 28 397 31 411 47 431 c 1
EndSplineSet
EndChar
StartChar: twosuperior
Encoding: 26 178
Width: 297
Flags: W
Fore
222 429 m 1
 221 429 l 1
 235 411 244 389 246 370 c 1
 211 370 146 370 89 370 c 0
 83 370 80 367 74 367 c 0
 64 367 67 398 67 417 c 0
 67 475 70 505 104 562 c 1
 139 617 197 662 197 702 c 0
 197 722 176 740 157 740 c 0
 134 740 105 715 85 691 c 1
 70 711 57 749 57 749 c 1
 101 749 135 749 184 749 c 0
 218 749 247 728 247 700 c 0
 247 632 177 608 133 550 c 0
 107 516 87 481 87 432 c 0
 87 424 94 391 124 391 c 0
 157 391 179 393 205 413 c 0
 213 419 216 422 222 429 c 1
EndSplineSet
EndChar
StartChar: brokenbar
Encoding: 27 166
Width: 164
Flags: MW
VStem: 38 20<-15 -11.5 -11.5 321 259 321 445 448.5 448.5 781 719 781>
Fore
38 782 m 0
 38 789 58 790 58 781 c 0
 58 774 58 453 58 444 c 0
 58 438 38 434 38 445 c 0
 38 454 38 656 38 782 c 0
38 322 m 0
 38 329 58 330 58 321 c 0
 58 314 58 -7 58 -16 c 0
 58 -22 38 -26 38 -15 c 0
 38 -6 38 196 38 322 c 0
EndSplineSet
EndChar
StartChar: multiply
Encoding: 29 215
Width: 355
Flags: W
Fore
189 333 m 1
 205 348 217 357 237 372 c 1
 208 402 l 1
 193 381 184 369 168 354 c 1
 152 369 143 381 128 402 c 1
 99 372 l 1
 119 357 131 348 147 333 c 1
 131 318 120 309 100 294 c 1
 130 265 l 1
 144 285 154 296 168 311 c 1
 182 296 192 285 206 265 c 1
 236 294 l 1
 216 309 205 318 189 333 c 1
EndSplineSet
EndChar
StartChar: exclam
Encoding: 33 33
Width: 258
Flags: MW
HStem: -18 88 736 13<38 44 202 208>
VStem: 77 70
Fore
215 742 m 0
 215 738 213 736 209 736 c 0
 195 736 175 743 175 682 c 0
 175 661 142 249 142 131 c 0
 142 100 104 99 104 131 c 0
 104 149 71 662 71 682 c 0
 71 731 51 736 37 736 c 0
 33 736 31 738 31 742 c 0
 31 748 36 747 38 749 c 1
 208 749 l 1
 210 747 215 748 215 742 c 0
82 32 m 0
 83 53 101 77 122 76 c 0
 143 75 160 53 160 32 c 0
 160 10 143 -16 121 -16 c 0
 99 -16 81 10 82 32 c 0
EndSplineSet
EndChar
StartChar: quotedbl
Encoding: 34 34
Width: 343
Flags: MW
HStem: 730 20<43 43 43 123 166 246 166 166>
Fore
43 750 m 1
 63 625 l 1
 103 625 l 1
 123 750 l 1
 43 750 l 1
166 750 m 1
 186 625 l 1
 226 625 l 1
 246 750 l 1
 166 750 l 1
EndSplineSet
EndChar
StartChar: numbersign
Encoding: 35 35
Width: 402
Flags: MW
HStem: 198 120<175.5 195 185 214 214 224.5>
Fore
299 316 m 1
 318 315 338 314 362 312 c 1
 362 354 l 1
 342 352 325 351 309 350 c 1
 318 379 327 407 339 444 c 1
 297 444 l 1
 289 407 283 378 276 348 c 1
 257 348 238 348 214 348 c 0
 199 348 186 348 174 348 c 1
 182 377 191 407 204 444 c 1
 162 444 l 1
 154 407 148 378 141 349 c 1
 119 350 97 351 70 354 c 1
 70 312 l 1
 94 314 114 316 133 316 c 1
 127 293 121 267 113 237 c 0
 109 224 106 212 103 200 c 1
 84 201 64 202 41 204 c 1
 41 162 l 1
 61 164 77 165 93 166 c 1
 81 124 73 98 56 47 c 1
 98 47 l 1
 108 98 114 125 124 167 c 1
 143 168 162 168 185 168 c 0
 201 168 215 168 229 168 c 1
 217 126 208 100 191 47 c 1
 233 47 l 1
 244 99 249 125 259 167 c 1
 282 166 304 165 333 162 c 1
 333 204 l 1
 308 202 288 200 268 199 c 1
 271 211 274 224 278 237 c 0
 286 267 293 293 299 316 c 1
165 318 m 1
 180 318 196 318 214 318 c 0
 235 318 252 318 268 317 c 1
 262 293 256 268 248 237 c 0
 244 223 241 210 237 198 c 1
 222 198 205 198 185 198 c 0
 166 198 149 198 133 199 c 1
 136 211 139 223 143 237 c 0
 151 268 158 293 165 318 c 1
EndSplineSet
EndChar
StartChar: dollar
Encoding: 36 36
Width: 493
Flags: MW
HStem: 120 34 286 52 462 26<273 288.5>
VStem: 84 40<548.5 580> 216 34 354 60<302 371>
Fore
236 448 m 1
 236 314 l 1
 247 294 250 276 250 256 c 0
 250 232 246 222 236 204 c 1
 236 170 l 1
 304 203 354 262 354 342 c 0
 354 400 311 462 266 462 c 0
 253 462 246 456 236 448 c 1
216 190 m 1
 208 192 202 206 202 206 c 1
 206 214 208 221 208 230 c 0
 208 261 182 286 150 286 c 0
 122 286 100 260 100 232 c 0
 100 188 141 156 186 154 c 0
 198 154 204 156 216 158 c 1
 216 190 l 1
216 478 m 1
 216 646 l 1
 204 650 198 652 186 652 c 0
 151 652 124 613 124 574 c 0
 124 523 165 478 216 478 c 1
84 550 m 0
 84 610 126 666 216 680 c 1
 216 690 216 706 216 716 c 0
 216 730 236 732 236 714 c 0
 236 699 236 690 236 678 c 1
 269 667 300 664 330 638 c 0
 346 624 334 609 326 596 c 0
 317 582 308 574 292 568 c 1
 291 587 286 600 274 614 c 0
 263 627 252 631 236 638 c 1
 236 484 l 1
 253 488 264 488 282 488 c 0
 347 488 414 421 414 346 c 0
 414 232 330 143 236 120 c 1
 236 101 236 90 236 72 c 0
 236 60 216 52 216 74 c 0
 216 91 216 104 216 120 c 1
 167 117 70 170 70 246 c 0
 70 298 116 336 168 338 c 0
 187 339 199 336 216 328 c 1
 216 442 l 1
 204 441 196 439 184 440 c 0
 126 445 84 492 84 550 c 0
EndSplineSet
EndChar
StartChar: percent
Encoding: 37 37
Width: 510
Flags: MW
HStem: 0 20
Fore
376 716 m 0
 382 730 413 732 405 714 c 0
 398 699 99 58 90 40 c 0
 85 28 51 20 61 42 c 0
 69 59 258 464 376 716 c 0
316 341 m 1
 326 352 340 355 353 350 c 0
 415 325 435 248 435 171 c 0
 435 116 430 66 396 34 c 1
 388 28 378 29 369 35 c 0
 295 81 289 183 289 234 c 0
 289 277 293 311 316 341 c 1
342 386 m 0
 279 350 245 282 245 202 c 0
 245 118 261 48 335 4 c 0
 346 -2 362 0 373 4 c 0
 448 30 474 138 474 223 c 0
 474 294 452 360 393 387 c 0
 377 394 356 395 342 386 c 0
71 696 m 1
 81 707 95 710 108 705 c 0
 170 680 190 603 190 526 c 0
 190 471 185 421 151 389 c 1
 143 383 133 384 124 390 c 0
 50 436 44 538 44 589 c 0
 44 632 48 666 71 696 c 1
97 741 m 0
 34 705 0 637 0 557 c 0
 0 473 16 403 90 359 c 0
 101 353 117 355 128 359 c 0
 203 385 229 493 229 578 c 0
 229 649 207 715 148 742 c 0
 132 749 111 750 97 741 c 0
EndSplineSet
EndChar
StartChar: ampersand
Encoding: 38 38
Width: 632
Flags: MW
HStem: 0 13<486 492> 732 18
VStem: 94 57 280 17 341 84
Fore
293 673 m 0
 293 696 294 711 280 731 c 1
 259 731 242 731 219 731 c 0
 211 731 205 727 199 721 c 0
 175 698 165 674 165 640 c 0
 165 605 179 567 214 534 c 0
 230 519 235 522 245 540 c 0
 271 587 293 634 293 673 c 0
459 420 m 2
 459 67 l 2
 459 18 479 13 493 13 c 0
 497 13 499 11 499 7 c 0
 499 1 494 2 492 0 c 1
 210 0 l 2
 130 0 67 81 67 160 c 0
 67 292 141 393 201 490 c 0
 206 498 208 507 201 513 c 0
 153 556 94 595 94 664 c 0
 94 710 149 750 193 750 c 2
 462 750 l 1
 455 737 440 721 430 671 c 1
 414 686 406 698 386 710 c 0
 364 723 350 731 325 731 c 2
 305 731 l 1
 309 711 311 701 311 681 c 0
 311 618 276 570 242 503 c 0
 191 402 161 329 161 214 c 0
 161 127 187 34 273 20 c 0
 292 17 317 20 321 20 c 0
 335 20 355 21 355 68 c 0
 355 80 355 429 355 429 c 2
 355 441 352 458 341 458 c 0
 328 458 315 460 298 459 c 0
 283 458 279 471 300 473 c 0
 362 479 437 468 478 491 c 0
 504 506 532 530 529 549 c 1
 567 531 l 2
 577 526 585 521 585 510 c 0
 585 501 579 496 571 491 c 0
 534 466 503 471 473 456 c 0
 459 449 459 435 459 420 c 2
EndSplineSet
EndChar
StartChar: quotesingle
Encoding: 39 39
Width: 209
Flags: MW
HStem: 730 20<43 43 43 123>
Fore
43 750 m 1
 63 625 l 1
 103 625 l 1
 123 750 l 1
 43 750 l 1
EndSplineSet
EndChar
StartChar: parenleft
Encoding: 40 40
Width: 402
Flags: W
Fore
294 786 m 1
 175 679 153 448 153 360 c 0
 153 177 181 70 261 -96 c 0
 276 -127 288 -128 276 -90 c 0
 205 128 195 174 195 345 c 0
 195 468 220 550 294 648 c 1
 296 674 300 688 300 714 c 0
 300 742 299 758 294 786 c 1
EndSplineSet
EndChar
StartChar: parenright
Encoding: 41 41
Width: 402
Flags: MW
VStem: 173 42<268.5 404>
Fore
215 360 m 0
 215 177 187 70 107 -96 c 0
 92 -127 80 -128 92 -90 c 0
 163 128 173 174 173 345 c 0
 173 468 148 550 74 648 c 1
 72 674 68 688 68 714 c 0
 68 742 69 758 74 786 c 1
 193 679 215 448 215 360 c 0
EndSplineSet
EndChar
StartChar: asterisk
Encoding: 42 42
Width: 355
Flags: W
Fore
152 308 m 1
 151 275 148 239 142 212 c 1
 142 194 156 189 167 187 c 0
 179 185 194 194 194 212 c 1
 186 242 185 273 184 303 c 1
 210 287 234 271 258 249 c 1
 273 240 286 249 290 260 c 0
 295 271 299 284 283 295 c 1
 251 302 224 317 196 333 c 1
 225 349 255 364 284 371 c 1
 300 380 295 396 290 406 c 0
 286 418 272 424 256 415 c 1
 233 394 210 378 184 363 c 1
 185 394 186 426 194 455 c 1
 194 473 179 478 167 477 c 0
 156 476 144 475 142 455 c 1
 148 424 151 391 152 358 c 1
 123 376 100 391 76 416 c 1
 60 426 47 415 42 406 c 1
 34 396 30 380 46 370 c 1
 81 361 105 348 132 333 c 1
 105 318 81 307 48 296 c 1
 32 287 32 270 39 260 c 0
 46 251 56 244 74 252 c 1
 97 274 124 290 152 308 c 1
EndSplineSet
EndChar
StartChar: plus
Encoding: 43 43
Width: 355
Flags: W
Fore
182 318 m 1
 204 318 219 316 244 312 c 1
 244 354 l 1
 219 350 204 348 182 348 c 1
 182 370 184 385 188 410 c 1
 146 410 l 1
 150 385 152 370 152 348 c 1
 131 349 116 350 92 354 c 1
 92 312 l 1
 116 316 131 317 152 318 c 1
 151 297 150 282 146 258 c 1
 188 258 l 1
 184 282 183 297 182 318 c 1
EndSplineSet
EndChar
StartChar: comma
Encoding: 44 44
Width: 264
Flags: MW
VStem: 63 80
Fore
88 -58 m 1
 78 -50 l 1
 87 -44 92 -39 98 -30 c 0
 105 -19 110 -10 108 2 c 1
 105 1 102 0 98 0 c 0
 76 0 59 24 60 46 c 0
 61 67 78 88 99 90 c 0
 126 93 146 62 146 36 c 0
 146 -5 129 -35 88 -58 c 1
EndSplineSet
EndChar
StartChar: hyphen
Encoding: 45 45
Width: 355
Flags: W
Fore
92 354 m 1
 92 312 l 1
 121 317 138 318 167 318 c 0
 197 318 214 317 244 312 c 1
 244 354 l 1
 214 349 197 348 167 348 c 0
 138 348 121 349 92 354 c 1
EndSplineSet
EndChar
StartChar: period
Encoding: 46 46
Width: 264
Flags: MW
HStem: 0 88
VStem: 63 70
Fore
59 45 m 0
 60 66 78 90 99 89 c 0
 120 88 137 66 137 45 c 0
 137 23 120 -3 98 -3 c 0
 76 -3 58 23 59 45 c 0
EndSplineSet
EndChar
StartChar: slash
Encoding: 47 47
Width: 510
Flags: W
Fore
366 716 m 0
 372 730 403 732 395 714 c 0
 388 699 89 58 80 40 c 0
 75 28 41 20 51 42 c 0
 59 59 248 464 366 716 c 0
EndSplineSet
EndChar
StartChar: zero
Encoding: 48 48
Width: 562
Flags: MW
HStem: -6 20
VStem: 38 74 402 64
Fore
181 676 m 0
 133 617 127 548 127 462 c 0
 127 360 138 157 285 64 c 0
 304 52 325 49 339 62 c 0
 408 125 417 225 417 336 c 0
 417 489 378 644 255 694 c 0
 228 705 199 699 181 676 c 0
231 766 m 0
 260 783 303 782 334 768 c 0
 453 715 496 582 496 440 c 0
 496 271 445 53 295 2 c 0
 272 -6 240 -11 218 2 c 0
 69 90 38 229 38 398 c 0
 38 557 107 693 231 766 c 0
EndSplineSet
EndChar
StartChar: one
Encoding: 49 49
Width: 375
Flags: MW
HStem: 0 20 730 20<182 262 262 266.5>
VStem: 48 54 174 84
Fore
154 700 m 0
 133 682 124 670 112 648 c 0
 100 626 103 616 102 584 c 0
 101 562 96 534 74 534 c 0
 56 534 48 556 48 574 c 0
 48 600 60 624 80 648 c 0
 114 689 138 717 182 750 c 1
 262 750 l 2
 271 750 278 750 278 735 c 0
 278 617 278 88 278 67 c 0
 278 6 298 13 312 13 c 0
 316 13 318 11 318 7 c 0
 318 1 313 2 311 0 c 1
 141 0 l 1
 139 2 134 1 134 7 c 0
 134 11 136 13 140 13 c 0
 154 13 174 18 174 67 c 2
 174 683 l 2
 174 709 162 707 154 700 c 0
EndSplineSet
EndChar
StartChar: two
Encoding: 50 50
Width: 593
Flags: MW
HStem: 0 41 742 16
VStem: 135 25 394 80
Fore
443 117 m 1
 471 82 489 37 491 0 c 1
 422 0 291 0 178 0 c 0
 166 0 160 -6 148 -6 c 0
 128 -6 135 56 135 95 c 0
 135 211 139 270 209 384 c 0
 277 495 394 585 394 665 c 0
 394 704 351 739 314 739 c 0
 268 739 210 690 169 643 c 1
 140 683 114 758 114 758 c 1
 202 758 270 758 369 758 c 0
 437 758 494 715 494 660 c 0
 494 523 354 476 266 359 c 0
 215 291 175 222 175 124 c 0
 175 107 188 43 248 43 c 0
 315 43 358 47 411 87 c 0
 425 98 432 104 443 117 c 1
EndSplineSet
EndChar
StartChar: three
Encoding: 51 51
Width: 480
Flags: MW
HStem: -2 22 736 14
VStem: 156 56 326 58
Fore
94 122 m 1
 98 66 149 22 206 22 c 0
 297 22 335 154 334 260 c 0
 333 350 311 408 243 468 c 1
 225 450 211 439 202 416 c 0
 193 394 190 380 190 356 c 1
 206 342 212 332 212 314 c 0
 212 305 202 296 192 296 c 0
 170 296 156 315 156 348 c 0
 156 395 191 446 236 496 c 0
 280 545 330 579 326 656 c 0
 324 702 295 734 234 734 c 0
 173 734 136 707 98 650 c 1
 62 682 43 702 30 742 c 0
 26 754 37 750 42 750 c 0
 160 755 205 761 308 750 c 0
 345 746 394 717 392 676 c 0
 388 586 329 570 286 524 c 0
 263 500 275 501 282 490 c 0
 337 410 428 295 428 178 c 0
 428 74 364 4 274 -2 c 0
 184 -8 138 -7 50 -2 c 0
 44 -2 28 -2 34 10 c 0
 56 53 63 82 94 122 c 1
EndSplineSet
EndChar
StartChar: four
Encoding: 52 52
Width: 530
Flags: MW
HStem: 0 13<257 263 421 427 257 257> 204 26 730 20<253 378 378 382.5>
VStem: 38 82 290 84
Fore
205 739 m 0
 205 753 249 750 253 750 c 2
 378 750 l 2
 387 750 394 750 394 735 c 0
 394 661 394 427 394 256 c 0
 394 244 395 234 402 236 c 0
 429 245 444 255 466 284 c 1
 463 261 465 249 458 222 c 0
 456 214 454 202 442 204 c 0
 429 206 419 206 406 206 c 0
 396 206 394 195 394 184 c 0
 394 119 394 73 394 67 c 0
 394 6 414 13 428 13 c 0
 432 13 434 11 434 7 c 0
 434 1 429 2 427 0 c 1
 257 0 l 1
 255 2 250 1 250 7 c 0
 250 11 252 13 256 13 c 0
 270 13 290 18 290 67 c 2
 290 67 290 112 290 178 c 0
 290 193 290 204 270 204 c 0
 220 203 120 198 62 198 c 0
 41 198 29 208 30 242 c 0
 35 402 127 476 185 628 c 0
 199 664 202 687 213 724 c 1
 208 730 205 726 205 739 c 0
290 258 m 0
 290 435 290 670 290 681 c 0
 290 717 279 709 272 702 c 0
 169 587 124 451 124 332 c 0
 124 290 132 232 176 232 c 0
 209 232 232 232 268 232 c 0
 278 232 290 236 290 258 c 0
EndSplineSet
EndChar
StartChar: five
Encoding: 53 53
Width: 514
Flags: MW
HStem: -12 20 708 32
VStem: 152 70 346 84
Fore
153 674 m 0
 140 610 132 569 120 504 c 0
 116 483 122 479 132 480 c 0
 171 484 192 484 230 474 c 0
 240 471 249 467 254 475 c 0
 296 540 318 586 320 638 c 0
 321 673 293 706 256 706 c 0
 215 706 161 714 153 674 c 0
160 738 m 0
 238 735 318 740 381 740 c 0
 404 740 403 729 399 720 c 0
 358 632 321 559 270 474 c 0
 266 468 273 461 278 458 c 0
 379 398 450 321 450 206 c 0
 450 95 357 -12 254 -12 c 0
 181 -12 127 -12 66 -12 c 0
 57 -12 41 -10 46 4 c 0
 58 35 61 57 76 86 c 0
 85 103 91 100 92 88 c 0
 95 52 148 11 198 11 c 0
 302 11 346 127 346 232 c 0
 346 311 325 371 264 418 c 0
 258 422 248 429 244 422 c 0
 223 383 184 314 184 260 c 0
 184 243 184 228 198 218 c 0
 203 214 207 216 212 212 c 0
 218 207 222 203 222 196 c 0
 222 177 207 162 188 162 c 0
 162 162 152 193 152 218 c 0
 152 296 183 351 224 419 c 0
 229 427 227 440 218 443 c 0
 178 458 157 457 110 454 c 0
 95 453 84 444 90 466 c 0
 112 548 127 631 140 726 c 0
 142 744 151 738 160 738 c 0
EndSplineSet
EndChar
StartChar: six
Encoding: 54 54
Width: 544
Flags: MW
HStem: -12 30<296.5 363.5> 430 60 710 46
VStem: 54 82 396 52
Fore
156 310 m 0
 156 193 249 18 344 18 c 0
 406 18 416 87 416 144 c 0
 416 232 366 430 250 430 c 0
 190 430 156 378 156 310 c 0
163 413 m 1
 195 467 244 494 284 494 c 0
 403 494 478 322 478 206 c 0
 478 100 421 -12 306 -12 c 0
 205 -12 54 104 54 300 c 0
 54 509 170 738 428 756 c 0
 442 757 447 750 444 742 c 0
 436 718 433 703 418 684 c 0
 411 675 402 679 394 684 c 0
 373 698 361 706 338 706 c 0
 231 706 163 487 163 413 c 1
EndSplineSet
EndChar
StartChar: seven
Encoding: 55 55
Width: 492
Flags: MW
HStem: -3 20 712 32
VStem: 178 74
Fore
272 240 m 0
 272 152 296 80 330 22 c 0
 334 15 338 3 330 2 c 0
 298 -3 253 -4 218 -2 c 0
 210 -2 205 4 202 10 c 0
 179 57 178 90 178 142 c 0
 178 357 255 498 368 686 c 0
 373 694 376 711 356 710 c 0
 251 705 164 698 106 630 c 0
 94 615 88 623 82 630 c 0
 58 661 50 685 38 722 c 0
 35 730 27 742 44 742 c 0
 182 746 258 744 402 744 c 0
 422 744 422 737 418 730 c 0
 337 599 272 439 272 240 c 0
EndSplineSet
EndChar
StartChar: eight
Encoding: 56 56
Width: 554
Flags: MW
HStem: -10 26 734 22
VStem: 86 72 326 74
Fore
260 462 m 1
 189 417 142 326 142 220 c 0
 142 127 173 18 268 18 c 0
 360 18 380 117 380 200 c 0
 380 312 331 412 260 462 c 1
264 508 m 1
 313 547 346 604 346 660 c 0
 346 724 299 732 256 732 c 0
 205 732 178 707 178 662 c 0
 178 597 206 548 264 508 c 1
222 468 m 0
 237 484 245 486 222 510 c 0
 179 554 86 599 86 670 c 0
 86 741 175 756 266 756 c 0
 349 756 440 737 440 668 c 0
 440 596 349 547 298 496 c 0
 282 480 287 476 298 466 c 0
 385 387 474 304 474 176 c 0
 474 12 379 -10 264 -10 c 0
 113 -10 54 57 54 192 c 0
 54 313 142 383 222 468 c 0
EndSplineSet
EndChar
StartChar: nine
Encoding: 57 57
Width: 544
Flags: MW
HStem: -12 48 258 60 726 30<168.5 235.5>
VStem: 62 52 368 88
Fore
376 434 m 0
 376 551 283 726 188 726 c 0
 126 726 116 657 116 600 c 0
 116 512 166 314 282 314 c 0
 342 314 376 366 376 434 c 0
369 331 m 1
 337 277 288 250 248 250 c 0
 129 250 54 422 54 538 c 0
 54 644 111 756 226 756 c 0
 327 756 478 640 478 444 c 0
 478 235 362 6 104 -12 c 0
 90 -13 85 -6 88 2 c 0
 96 26 99 41 114 60 c 0
 121 69 130 65 138 60 c 0
 159 46 171 38 194 38 c 0
 301 38 369 257 369 331 c 1
EndSplineSet
EndChar
StartChar: less
Encoding: 60 60
Width: 420
Flags: MW
VStem: 220 71
Fore
292 505 m 0
 264 430 191 386 114 344 c 0
 99 336 74 325 74 325 c 1
 82 317 112 307 122 301 c 0
 188 263 218 236 256 179 c 0
 281 141 284 103 291 67 c 1
 291 60 285 55 277 54 c 0
 230 45 264 51 216 43 c 1
 221 62 223 95 220 144 c 0
 216 210 168 246 114 286 c 0
 91 303 70 309 40 328 c 1
 40 328 90 349 112 362 c 0
 137 376 204 441 226 492 c 0
 240 525 226 541 222 560 c 1
 246 556 261 554 284 549 c 0
 292 548 306 541 292 505 c 0
EndSplineSet
EndChar
StartChar: equal
Encoding: 61 61
Width: 295
Flags: W
Fore
64 307 m 1
 96 302 115 301 147 301 c 0
 180 301 199 302 232 307 c 1
 232 267 l 1
 199 272 180 273 147 273 c 0
 115 273 96 272 64 267 c 1
 64 307 l 1
64 397 m 1
 96 392 115 391 147 391 c 0
 180 391 199 392 232 397 c 1
 232 357 l 1
 199 362 180 363 147 363 c 0
 115 363 96 362 64 357 c 1
 64 397 l 1
EndSplineSet
EndChar
StartChar: greater
Encoding: 62 62
Width: 420
Flags: MW
VStem: 91 71
Fore
90 505 m 0
 76 541 90 548 98 549 c 0
 121 554 136 556 160 560 c 1
 156 541 142 525 156 492 c 0
 178 441 245 376 270 362 c 0
 292 349 342 328 342 328 c 1
 312 309 291 303 268 286 c 0
 214 246 166 210 162 144 c 0
 159 95 161 62 166 43 c 1
 118 51 152 45 105 54 c 0
 97 55 91 60 91 67 c 1
 98 103 101 141 126 179 c 0
 164 236 194 263 260 301 c 0
 270 307 300 317 308 325 c 1
 308 325 283 336 268 344 c 0
 191 386 118 430 90 505 c 0
EndSplineSet
EndChar
StartChar: question
Encoding: 63 63
Width: 514
Flags: MW
HStem: 0 88 492 24 737 29
VStem: 47 27 203 71 359 85
Fore
206 766 m 0
 354 766 464 718 464 546 c 0
 464 442 337 410 278 332 c 0
 244 287 212 233 212 168 c 0
 212 156 206 152 199 152 c 0
 192 152 186 150 186 167 c 0
 186 245 192 284 240 361 c 0
 280 425 359 477 359 549 c 0
 359 603 346 735 205 735 c 0
 134 735 76 674 76 610 c 0
 76 564 108 517 144 517 c 0
 177 517 203 545 203 578 c 0
 203 598 183 625 156 632 c 1
 170 640 178 650 194 652 c 0
 236 657 277 614 277 577 c 0
 277 524 215 492 166 492 c 0
 92 492 47 553 47 616 c 0
 47 697 136 766 206 766 c 0
162 45 m 0
 163 66 181 90 202 89 c 0
 223 88 240 66 240 45 c 0
 240 23 223 -3 201 -3 c 0
 179 -3 161 23 162 45 c 0
EndSplineSet
EndChar
StartChar: at
Encoding: 64 64
Width: 554
Flags: MW
HStem: 60 40<276 318 276 491> 164 14<286.5 294 286.5 308.5> 434 11<265.5 299.5> 520 21<257.5 292> 615 40<219 333>
VStem: 33 37<286 428> 168 43<260.5 335> 333 43<217 230.5 230.5 397 397 407 428 442> 482 37<324 438>
Fore
333 205 m 0
 333 214 333 397 333 397 c 2
 333 417 308 434 291 434 c 0
 240 434 211 389 211 311 c 0
 211 210 273 178 300 178 c 0
 317 178 333 187 333 205 c 0
276 60 m 0
 145 59 33 193 33 357 c 0
 33 521 145 655 276 655 c 0
 407 655 519 515 519 378 c 0
 519 252 442 164 393 164 c 2
 393 164 309 164 279 164 c 0
 220 164 168 220 168 280 c 0
 168 390 201 445 291 445 c 0
 308 445 320 436 323 433 c 0
 326 431 333 422 333 428 c 0
 333 430 333 454 333 469 c 0
 333 502 309 520 275 520 c 0
 240 520 177 497 220 457 c 1
 209 442 204 439 183 432 c 1
 146 518 231 541 276 541 c 0
 335 541 376 503 376 442 c 0
 376 432 376 235 376 226 c 0
 376 208 386 199 393 199 c 0
 431 199 482 270 482 378 c 0
 482 498 390 615 276 615 c 0
 162 615 70 499 70 357 c 0
 70 215 162 100 276 100 c 0
 304 100 491 100 491 100 c 1
 491 60 l 1
 491 60 360 60 276 60 c 0
EndSplineSet
EndChar
StartChar: A
Encoding: 65 65
Width: 505
Flags: MW
HStem: -3 20 488 21<250 278> 528 18<261 283> 731 18<274 290.5>
VStem: 76 89 348 97<48 171.5 171.5 448 370.5 461>
Fore
157 271 m 0
 157 393 68 473 68 607 c 0
 68 689 96 706 96 719 c 0
 96 736 76 735 76 744 c 0
 76 748 83 749 86 750 c 1
 86 750 204 749 279 749 c 0
 346 749 386 750 451 750 c 1
 462 746 480 752 480 740 c 0
 480 729 445 729 445 700 c 0
 445 444 445 299 445 44 c 0
 445 5 475 13 475 3 c 0
 475 0 472 -1 470 -3 c 1
 316 -3 l 1
 314 -1 311 -1 311 3 c 0
 311 17 348 2 348 48 c 0
 348 203 348 293 348 448 c 0
 348 474 345 475 327 480 c 0
 306 486 290 488 266 488 c 0
 233 488 209 485 182 472 c 0
 174 468 174 467 174 454 c 0
 174 373 205 322 205 196 c 0
 205 126 191 63 145 -3 c 1
 22 -3 l 1
 107 81 157 190 157 271 c 0
266 509 m 0
 293 509 309 504 336 498 c 0
 350 495 349 513 342 515 c 0
 315 523 293 528 273 528 c 0
 249 528 211 523 177 508 c 0
 166 503 170 485 186 491 c 0
 219 504 234 509 266 509 c 0
165 559 m 0
 165 537 162 519 182 527 c 0
 217 541 240 546 277 546 c 0
 299 546 312 543 333 537 c 0
 347 533 349 543 349 551 c 0
 349 591 349 638 349 693 c 0
 349 720 342 729 325 729 c 0
 310 729 299 731 282 731 c 0
 266 731 256 730 240 728 c 0
 177 721 165 638 165 559 c 0
EndSplineSet
EndChar
StartChar: B
Encoding: 66 66
Width: 471
Flags: MW
HStem: 0 13<37.5 39 39 45> 737 13<39 45>
VStem: 72 104<67 83.5 83.5 683 674 701> 220 23<654.5 685.5> 366 77<629.5 657>
Fore
176 731 m 1
 176 613 176 94 176 73 c 0
 176 26 196 25 210 25 c 0
 214 25 239 22 258 25 c 0
 344 39 370 127 370 214 c 0
 370 329 340 402 289 503 c 0
 255 570 220 619 220 682 c 0
 220 702 222 712 226 732 c 1
 176 731 l 1
352 750 m 2
 396 750 443 710 443 664 c 0
 443 595 386 556 338 513 c 0
 331 507 333 498 338 490 c 0
 398 393 470 292 470 160 c 0
 470 81 415 0 335 0 c 2
 39 0 l 2
 36 0 32 1 32 7 c 0
 32 11 34 13 38 13 c 0
 52 13 72 18 72 67 c 2
 72 67 72 665 72 683 c 0
 72 719 52 737 38 737 c 0
 34 737 32 739 32 743 c 0
 32 749 36 750 39 750 c 2
 352 750 l 2
366 640 m 0
 366 674 356 699 332 722 c 0
 326 728 320 732 312 732 c 0
 289 732 277 732 256 732 c 1
 242 712 243 697 243 674 c 0
 243 635 265 587 291 540 c 0
 301 522 301 519 317 534 c 0
 352 567 366 605 366 640 c 0
EndSplineSet
EndChar
StartChar: C
Encoding: 67 67
Width: 460
Flags: MW
HStem: -10 31<333.5 370.5> 729 21<278 322.5>
VStem: 73 105<363.5 478.5>
Fore
439 750 m 1
 417 708 399 683 367 651 c 1
 363 669 367 681 358 696 c 0
 347 715 334 729 311 729 c 0
 199 729 178 532 178 425 c 0
 178 248 227 21 362 21 c 0
 396 21 415 21 445 37 c 1
 418 6 391 -10 350 -10 c 0
 317 -10 247 28 198 80 c 0
 124 158 73 295 73 432 c 0
 73 606 203 750 278 750 c 0
 341 750 376 750 439 750 c 1
EndSplineSet
EndChar
StartChar: D
Encoding: 68 68
Width: 511
Flags: MW
HStem: 0 13<37.5 39 39 45> 737 13<39 45>
VStem: 72 104<67 83.5 83.5 683 674 699> 370 100<251 372.5>
Fore
370 356 m 0
 370 497 294 670 198 712 c 0
 176 722 176 712 176 699 c 0
 176 461 176 94 176 73 c 0
 176 18 180 23 194 23 c 0
 267 23 370 146 370 356 c 0
470 288 m 0
 470 107 340 0 185 0 c 2
 39 0 l 2
 36 0 32 1 32 7 c 0
 32 11 34 13 38 13 c 0
 52 13 72 18 72 67 c 2
 72 67 72 665 72 683 c 0
 72 719 52 737 38 737 c 0
 34 737 32 739 32 743 c 0
 32 749 36 750 39 750 c 2
 152 750 l 2
 206 750 247 724 293 677 c 0
 376 593 470 457 470 288 c 0
EndSplineSet
EndChar
StartChar: E
Encoding: 69 69
Width: 491
Flags: MW
HStem: -15 51 468 27<190 209.5 191 253 253 271.5> 739 12
VStem: 72 104<132 148.5 148.5 451 509.5 557.5 557.5 683 674 701>
Fore
188 45 m 0
 206 37 218 36 238 36 c 0
 308 36 372 86 399 132 c 0
 401 135 404 144 411 138 c 0
 431 121 455 102 468 89 c 0
 473 84 473 75 468 70 c 0
 422 23 366 -15 312 -15 c 0
 246 -15 176 14 111 47 c 0
 94 56 83 64 63 64 c 0
 55 64 50 64 43 62 c 0
 34 60 28 66 40 73 c 0
 54 81 72 97 72 132 c 2
 72 132 72 665 72 683 c 0
 72 719 52 739 38 739 c 0
 34 739 32 741 32 745 c 0
 32 751 35 750 39 752 c 0
 45 755 51 751 58 751 c 0
 244 751 230 756 320 756 c 0
 368 756 416 735 432 701 c 0
 436 693 433 692 429 689 c 0
 407 673 392 648 369 633 c 0
 366 631 361 628 358 637 c 0
 349 664 346 684 324 701 c 0
 304 717 284 718 259 719 c 0
 238 720 210 720 193 719 c 0
 180 718 176 715 176 706 c 0
 176 668 176 602 176 513 c 0
 176 506 176 495 190 495 c 0
 212 495 225 495 253 495 c 0
 290 495 340 520 376 558 c 0
 379 562 382 569 386 566 c 0
 403 551 414 534 430 522 c 0
 433 520 432 516 429 513 c 0
 379 473 346 468 288 468 c 0
 250 468 228 468 191 468 c 0
 176 468 176 460 176 451 c 0
 176 273 176 221 176 76 c 0
 176 64 176 50 188 45 c 0
EndSplineSet
EndChar
StartChar: F
Encoding: 70 70
Width: 423
Flags: MW
HStem: -59 20<241.5 266> 739 12
VStem: 72 104<40 123.5 123.5 401 456.5 504.5 504.5 655> 348 22<354 366> 406 72
Fore
288 418 m 0
 250 414 228 414 191 418 c 0
 176 420 176 410 176 401 c 0
 176 223 176 196 176 51 c 0
 176 -7 225 -39 258 -39 c 0
 284 -39 286 -41 302 -34 c 0
 311 -30 314 -23 324 -20 c 0
 336 -17 348 -11 354 -22 c 0
 359 -31 354 -42 346 -46 c 0
 327 -56 323 -52 308 -54 c 0
 288 -57 276 -59 256 -59 c 0
 195 -59 161 -28 101 -28 c 0
 78 -28 50 -28 43 -30 c 0
 34 -32 28 -26 40 -19 c 0
 54 -11 72 5 72 40 c 2
 72 40 72 665 72 683 c 0
 72 719 52 739 38 739 c 0
 34 739 32 741 32 745 c 0
 32 751 35 750 39 752 c 0
 45 755 51 751 58 751 c 0
 244 751 370 756 460 756 c 0
 478 756 478 751 478 742 c 0
 478 714 470 683 458 648 c 0
 432 569 407 530 388 450 c 0
 379 413 370 392 370 354 c 0
 370 321 372 300 386 270 c 0
 390 261 393 256 399 247 c 0
 404 239 397 231 391 224 c 0
 384 216 371 229 365 238 c 0
 359 248 360 258 358 271 c 0
 352 302 347 322 348 354 c 0
 348 378 353 393 356 416 c 0
 357 424 351 434 344 432 c 0
 326 428 308 420 288 418 c 0
406 619 m 0
 406 646 394 732 271 732 c 0
 192 732 176 676 176 655 c 0
 176 617 176 549 176 460 c 0
 176 453 176 442 190 442 c 0
 212 442 215 440 241 442 c 0
 278 445 406 494 406 619 c 0
EndSplineSet
EndChar
StartChar: G
Encoding: 71 71
Width: 528
Flags: MW
HStem: 729 42<268.5 329>
VStem: 58 117<292 452.5> 379 105<147 254 254 438 365.5 456.5>
Fore
58 374 m 0
 58 562 184 771 339 771 c 0
 389 771 444 748 486 691 c 0
 498 675 489 671 481 663 c 0
 457 641 440 632 405 612 c 1
 405 612 399 616 398 620 c 0
 397 624 402 627 402 631 c 0
 398 701 343 729 315 729 c 0
 222 729 175 528 175 377 c 0
 175 207 196 28 357 -11 c 0
 375 -15 379 -4 379 7 c 0
 379 176 379 293 379 438 c 0
 379 475 356 512 318 515 c 0
 298 517 283 510 268 498 c 0
 255 487 243 500 255 511 c 0
 278 532 299 536 330 536 c 0
 362 536 400 533 432 533 c 0
 449 533 464 534 475 538 c 0
 484 541 486 537 486 530 c 0
 486 522 484 515 484 505 c 0
 483 383 484 315 484 193 c 0
 484 101 490 48 490 -44 c 0
 490 -51 481 -53 476 -53 c 0
 249 -62 58 149 58 374 c 0
EndSplineSet
EndChar
StartChar: H
Encoding: 72 72
Width: 536
Flags: MW
HStem: 0 20 730 20<46 202 202 202 347 503 503 503>
VStem: 72 104<67 76 76 342 392 398.5 398.5 415 462 481 481 683 674 683> 373 104<67 413 347 419.5 468 485 482.5 490 546 683 674 683>
Fore
362 432 m 0
 351 427 342 425 328 422 c 0
 296 416 276 416 245 407 c 0
 220 400 206 388 189 372 c 0
 180 364 176 359 176 342 c 0
 176 236 176 85 176 67 c 0
 176 6 206 8 206 4 c 0
 206 2 205 1 202 0 c 2
 46 0 l 1
 44 2 42 2 42 4 c 0
 42 8 72 18 72 67 c 2
 72 67 72 665 72 683 c 0
 72 732 42 742 42 746 c 0
 42 748 44 748 46 750 c 1
 202 750 l 2
 205 749 206 748 206 746 c 0
 206 742 176 744 176 683 c 0
 176 665 176 490 176 472 c 0
 176 452 177 443 195 455 c 0
 216 469 232 475 256 478 c 0
 277 481 292 481 313 487 c 0
 336 493 349 500 369 518 c 0
 373 521 373 546 373 546 c 1
 373 564 373 665 373 683 c 0
 373 741 343 742 343 746 c 0
 343 750 345 748 347 750 c 1
 503 750 l 2
 506 749 507 748 507 746 c 0
 507 742 477 732 477 683 c 0
 477 665 477 67 477 67 c 2
 477 18 507 8 507 4 c 0
 507 2 506 1 503 0 c 2
 347 0 l 1
 345 2 343 0 343 4 c 0
 343 8 373 9 373 67 c 0
 373 85 373 281 373 413 c 0
 373 426 369 435 362 432 c 0
176 415 m 0
 176 408 176 402 176 395 c 0
 176 389 185 390 191 394 c 0
 213 410 224 417 248 423 c 0
 278 431 297 428 326 436 c 0
 343 441 352 445 367 455 c 0
 371 458 373 463 373 468 c 0
 373 475 373 480 373 485 c 0
 373 495 366 493 359 489 c 0
 343 480 337 476 319 471 c 0
 292 464 278 463 250 460 c 0
 221 457 205 446 184 426 c 0
 180 423 176 420 176 415 c 0
EndSplineSet
EndChar
StartChar: I
Encoding: 73 73
Width: 236
Flags: MW
HStem: 0 13<39 39 39 45 203 209> 737 13<39 45>
VStem: 72 104<67 77.5 77.5 683 674 701>
Fore
39 0 m 1
 37 2 32 1 32 7 c 0
 32 11 34 13 38 13 c 0
 52 13 72 18 72 67 c 2
 72 67 72 665 72 683 c 0
 72 719 52 737 38 737 c 0
 34 737 32 739 32 743 c 0
 32 749 37 748 39 750 c 1
 160 750 l 2
 169 750 176 750 176 735 c 0
 176 617 176 88 176 67 c 0
 176 6 196 13 210 13 c 0
 214 13 216 11 216 7 c 0
 216 1 211 2 209 0 c 1
 39 0 l 1
EndSplineSet
EndChar
StartChar: J
Encoding: 74 74
Width: 212
Flags: MW
HStem: 737 13<39 45>
VStem: 72 104<177 199.5 199.5 683 674 701>
Fore
45 11 m 0
 64 44 72 128 72 177 c 2
 72 177 72 665 72 683 c 0
 72 719 52 737 38 737 c 0
 34 737 32 739 32 743 c 0
 32 749 37 748 39 750 c 1
 160 750 l 2
 169 750 176 750 176 735 c 0
 176 617 176 210 176 189 c 0
 176 102 111 17 103 5 c 0
 98 -3 29 -83 -58 -114 c 0
 -62 -115 -63 -116 -67 -116 c 0
 -71 -116 -77 -113 -77 -108 c 0
 -77 -103 -74 -102 -72 -101 c 0
 -20 -76 13 -44 45 11 c 0
EndSplineSet
EndChar
StartChar: K
Encoding: 75 75
Width: 505
Flags: MW
HStem: 0 13<39 45 180.5 183 39 39> 737 13<39 45>
VStem: 72 104<67 75 75 579 672 683 674 692 692 701> 357 87<643.5 666.5>
Fore
176 579 m 0
 176 380 176 83 176 67 c 0
 176 6 177 13 184 13 c 0
 188 13 190 11 190 7 c 0
 190 1 185 2 183 0 c 1
 39 0 l 1
 37 2 32 1 32 7 c 0
 32 11 34 13 38 13 c 0
 52 13 72 18 72 67 c 2
 72 67 72 665 72 683 c 0
 72 719 52 737 38 737 c 0
 34 737 32 739 32 743 c 0
 32 749 37 748 39 750 c 1
 160 750 l 2
 169 750 176 750 176 735 c 0
 176 722 176 703 176 681 c 0
 176 663 182 655 187 641 c 0
 208 583 228 553 255 498 c 0
 258 492 267 493 272 498 c 0
 317 539 357 586 357 648 c 0
 357 685 338 721 303 750 c 1
 425 750 l 1
 440 732 444 716 444 692 c 0
 444 595 362 534 288 486 c 0
 274 477 281 473 285 466 c 0
 366 333 466 211 466 74 c 0
 466 53 465 35 468 19 c 0
 469 12 479 10 484 8 c 0
 487 7 489 6 489 3 c 0
 489 1 484 0 480 0 c 2
 352 0 l 2
 349 0 346 3 346 7 c 0
 346 12 349 13 351 18 c 0
 366 54 364 78 364 117 c 0
 363 216 324 327 267 433 c 0
 245 475 217 520 192 570 c 0
 186 582 176 594 176 579 c 0
EndSplineSet
EndChar
StartChar: L
Encoding: 76 76
Width: 488
Flags: MW
HStem: 0 13 730 20<65 221 221 221>
VStem: 91 104<67 683 572.5 683>
Fore
230 25 m 0
 267 25 292 37 337 69 c 0
 358 84 364 115 363 135 c 1
 394 121 427 94 446 67 c 0
 450 61 446 54 441 49 c 0
 406 13 347 0 329 0 c 2
 329 0 133 0 86 0 c 0
 79 0 72 -5 67 -5 c 0
 62 -5 53 0 53 4 c 0
 53 13 61 13 66 13 c 0
 68 13 73 9 76 10 c 0
 94 13 91 38 91 67 c 0
 91 85 91 462 91 683 c 0
 91 741 61 742 61 746 c 0
 61 750 63 748 65 750 c 1
 221 750 l 2
 224 749 225 748 225 746 c 0
 225 742 195 710 195 683 c 2
 195 48 l 2
 195 25 208 25 230 25 c 0
EndSplineSet
EndChar
StartChar: M
Encoding: 77 77
Width: 600
Flags: MW
HStem: 0 13<556 562> 737 13<392 398 556 562>
VStem: 86 85 278 77 425 104<49 76 76 604 604 621.5>
Fore
411 604 m 0
 382 511 350 429 315 326 c 0
 308 304 306 293 315 266 c 0
 337 201 355 160 355 90 c 0
 355 55 349 33 339 0 c 1
 230 0 l 1
 260 48 278 100 278 168 c 0
 278 249 225 403 141 626 c 0
 129 659 123 639 123 626 c 2
 123 94 l 2
 123 67 125 48 145 30 c 0
 154 22 171 19 171 8 c 0
 171 0 159 0 151 0 c 2
 54 0 l 2
 46 0 36 0 36 10 c 0
 36 21 55 18 64 26 c 0
 80 41 86 56 86 78 c 2
 86 654 l 2
 86 688 79 715 52 736 c 0
 48 739 41 739 40 744 c 0
 38 752 52 750 60 750 c 2
 141 750 l 2
 151 750 170 754 167 744 c 0
 165 737 158 739 153 734 c 0
 145 725 142 715 141 702 c 0
 139 683 149 671 156 654 c 0
 200 541 236 465 272 374 c 0
 283 346 291 355 298 372 c 0
 347 498 354 536 394 650 c 0
 402 673 409 697 409 714 c 0
 409 724 405 737 391 737 c 0
 387 737 385 739 385 743 c 0
 385 749 390 748 392 750 c 1
 562 750 l 1
 564 748 569 749 569 743 c 0
 569 739 567 737 563 737 c 0
 549 737 529 732 529 683 c 2
 529 683 529 85 529 67 c 0
 529 31 549 13 563 13 c 0
 567 13 569 11 569 7 c 0
 569 1 564 2 562 0 c 1
 433 0 l 2
 424 0 415 -2 415 13 c 0
 415 21 425 33 425 46 c 0
 425 187 425 604 425 604 c 2
 425 639 413 609 411 604 c 0
EndSplineSet
EndChar
StartChar: N
Encoding: 78 78
Width: 518
Flags: MW
HStem: -4 20 730 20<77 158 158 164.5 378 475 475 479>
VStem: 103 69 358 85
Fore
388 326 m 0
 403 295 406 313 406 326 c 2
 406 656 l 2
 406 683 404 702 384 720 c 0
 375 728 358 731 358 742 c 0
 358 750 370 750 378 750 c 2
 475 750 l 2
 483 750 493 750 493 740 c 0
 493 729 474 732 465 724 c 0
 449 709 443 694 443 672 c 2
 443 96 l 2
 443 62 443 45 443 14 c 0
 443 -10 406 -11 406 16 c 0
 406 35 406 57 406 74 c 0
 406 105 399 136 380 168 c 0
 300 301 232 374 155 530 c 0
 148 544 140 543 140 530 c 2
 140 94 l 2
 140 67 142 48 162 30 c 0
 171 22 188 19 188 8 c 0
 188 0 176 0 168 0 c 2
 71 0 l 2
 63 0 53 0 53 10 c 0
 53 21 72 18 81 26 c 0
 97 41 103 56 103 78 c 2
 103 654 l 2
 103 688 96 715 69 736 c 0
 65 739 58 739 57 744 c 0
 55 752 69 750 77 750 c 2
 158 750 l 2
 171 750 191 753 191 744 c 0
 191 738 182 737 179 732 c 0
 172 722 172 714 172 702 c 0
 171 682 178 676 186 660 c 0
 242 548 323 462 388 326 c 0
EndSplineSet
EndChar
StartChar: O
Encoding: 79 79
Width: 514
Flags: MW
HStem: 748 20
VStem: 42 92<368 465.5> 410 70<386.5 406>
Fore
134 454 m 0
 134 282 165 100 295 58 c 0
 377 31 410 207 410 326 c 0
 410 486 359 638 251 678 c 0
 148 716 134 555 134 454 c 0
42 386 m 0
 42 545 100 676 225 754 c 0
 259 775 292 770 327 750 c 0
 424 694 480 567 480 430 c 0
 480 343 477 91 307 0 c 0
 274 -18 253 -27 221 -8 c 0
 85 74 42 219 42 386 c 0
EndSplineSet
EndChar
StartChar: P
Encoding: 80 80
Width: 460
Flags: MW
HStem: 0 17<197 329 329 350> 235 35<257.5 265> 733 17<206 261>
VStem: 8 11 70 104<67 77 77 683 674 701> 344 92<503 564.5>
Fore
174 715 m 0
 174 567 174 87 174 67 c 0
 174 53 172 17 197 17 c 0
 250 17 305 17 329 17 c 0
 371 17 353 23 372 23 c 0
 394 23 392 13 392 9 c 0
 392 3 387 2 385 0 c 1
 37 0 l 1
 35 2 30 1 30 7 c 0
 30 11 32 13 36 13 c 0
 50 13 70 18 70 67 c 2
 70 67 70 665 70 683 c 0
 70 719 41 729 27 729 c 0
 23 729 8 721 8 738 c 0
 8 750 19 750 19 750 c 1
 331 750 l 2
 396 750 436 654 436 579 c 0
 436 427 316 235 242 235 c 0
 227 235 206 245 206 263 c 0
 206 275 214 290 228 290 c 0
 238 290 239 278 248 274 c 0
 253 272 255 270 260 270 c 0
 270 270 287 282 299 300 c 0
 330 345 344 430 344 514 c 0
 344 615 311 733 211 733 c 0
 201 733 196 734 186 731 c 0
 178 729 174 721 174 715 c 0
EndSplineSet
EndChar
StartChar: Q
Encoding: 81 81
Width: 502
Flags: MW
HStem: 99 35 748 20
VStem: 42 94<368 465.5> 404 75
Fore
382 131 m 0
 398 188 405 262 404 326 c 0
 400 486 351 643 242 684 c 0
 154 717 136 555 136 454 c 0
 136 282 162 98 292 56 c 0
 312 50 313 49 328 64 c 0
 338 73 331 78 326 85 c 0
 318 95 309 99 293 99 c 0
 288 99 285 99 281 96 c 0
 277 93 268 97 274 104 c 0
 287 120 309 134 330 134 c 0
 344 134 355 126 369 122 c 0
 375 120 380 125 382 131 c 0
419 88 m 0
 448 55 467 30 497 -5 c 0
 499 -7 492 -8 489 -8 c 0
 478 -8 473 -5 462 -5 c 0
 443 -5 433 -10 414 -10 c 0
 400 -10 391 -7 381 3 c 0
 373 11 368 25 358 25 c 0
 353 25 351 26 345 21 c 0
 333 11 318 0 302 -9 c 0
 269 -27 244 -35 212 -16 c 0
 76 66 42 219 42 386 c 0
 42 545 91 676 216 754 c 0
 250 775 291 772 326 752 c 0
 423 696 479 562 479 425 c 0
 479 358 470 218 416 107 c 0
 413 101 414 93 419 88 c 0
EndSplineSet
EndChar
StartChar: R
Encoding: 82 82
Width: 496
Flags: MW
HStem: 0 20 737 13<37 43>
VStem: 70 104<67 568 655.5 683 674 686.5 686.5 701> 360 104<644.5 674>
Fore
378 750 m 2
 408 750 464 716 464 680 c 0
 464 609 353 510 286 458 c 0
 280 454 281 446 284 440 c 0
 302 405 324 392 348 358 c 0
 425 249 498 149 498 52 c 0
 498 32 496 20 492 0 c 1
 374 0 l 1
 381 23 386 36 386 60 c 0
 386 127 370 172 344 238 c 0
 326 283 308 305 286 348 c 0
 244 432 228 454 186 568 c 0
 184 573 174 592 174 568 c 0
 174 356 174 37 174 21 c 0
 174 0 166 0 157 0 c 2
 37 0 l 1
 35 2 30 1 30 7 c 0
 30 11 32 13 36 13 c 0
 50 13 70 18 70 67 c 2
 70 67 70 665 70 683 c 0
 70 719 50 737 36 737 c 0
 32 737 30 739 30 743 c 0
 30 749 34 750 37 750 c 2
 378 750 l 2
210 730 m 0
 193 730 174 729 174 714 c 0
 174 703 174 693 174 680 c 0
 174 631 218 561 252 488 c 0
 262 467 273 479 282 488 c 0
 342 548 360 623 360 652 c 0
 360 696 319 730 274 730 c 0
 250 730 234 730 210 730 c 0
EndSplineSet
EndChar
StartChar: S
Encoding: 83 83
Width: 442
Flags: MW
HStem: -35 29<173.5 220.5> 131 62<182.5 186.5> 318 43<119 154.5> 465 105<190 218> 751 20<201.5 264.5>
VStem: 12 25<136.5 206.5> 43 33 212 75<227.5 257.5> 356 53<165.5 286.5>
Fore
241 771 m 0
 288 771 318 757 355 728 c 0
 363 722 358 717 353 712 c 0
 329 691 310 665 294 645 c 0
 291 641 287 640 282 646 c 0
 251 683 237 701 196 705 c 0
 127 712 78 643 76 574 c 0
 75 548 82 532 90 509 c 0
 92 503 101 504 105 509 c 0
 130 538 167 570 213 570 c 0
 351 570 409 420 409 293 c 0
 409 38 249 -35 192 -35 c 0
 155 -35 12 20 12 187 c 0
 12 274 88 361 150 361 c 0
 230 361 287 292 287 223 c 0
 287 180 244 131 198 131 c 0
 167 131 155 170 155 189 c 0
 155 196 158 198 165 196 c 0
 169 195 172 193 176 193 c 0
 197 193 212 216 212 239 c 0
 212 280 170 318 139 318 c 0
 81 318 37 241 37 172 c 0
 37 101 107 -6 192 -6 c 0
 265 -6 356 82 356 219 c 0
 356 354 280 465 156 465 c 0
 137 465 128 462 109 452 c 0
 103 449 98 448 94 453 c 0
 61 494 43 530 43 580 c 0
 43 685 162 771 241 771 c 0
EndSplineSet
EndChar
StartChar: T
Encoding: 84 84
Width: 471
Flags: MW
HStem: 0 20 714 32
VStem: 204 104<67 77.5 77.5 683 575 683>
Fore
188 714 m 0
 177 714 170 711 158 708 c 0
 115 697 87 680 58 653 c 0
 55 650 40 651 46 664 c 0
 58 689 66 710 76 734 c 0
 79 742 87 750 96 750 c 0
 146 750 194 746 256 746 c 0
 321 746 368 750 422 750 c 0
 430 750 438 752 442 740 c 0
 451 714 453 706 468 682 c 0
 477 668 479 659 458 672 c 0
 425 693 400 700 361 708 c 0
 346 711 335 714 322 714 c 0
 307 714 308 698 308 683 c 0
 308 565 308 88 308 67 c 0
 308 6 328 13 342 13 c 0
 346 13 348 11 348 7 c 0
 348 1 343 2 341 0 c 1
 171 0 l 1
 169 2 164 1 164 7 c 0
 164 11 166 13 170 13 c 0
 184 13 204 18 204 67 c 2
 204 67 204 467 204 683 c 0
 204 696 201 714 188 714 c 0
EndSplineSet
EndChar
StartChar: U
Encoding: 85 85
Width: 524
Flags: MW
HStem: 0 20 737 13<233 237 321 327>
VStem: 39 95<407.5 501> 354 104<73 77.5 77.5 683 674 701>
Fore
321 31 m 0
 332 18 354 24 354 73 c 2
 354 73 354 665 354 683 c 0
 354 719 334 737 320 737 c 0
 316 737 314 739 314 743 c 0
 314 749 319 748 321 750 c 1
 442 750 l 2
 451 750 458 750 458 735 c 0
 458 617 458 88 458 67 c 0
 458 6 478 13 492 13 c 0
 496 13 498 11 498 7 c 0
 498 1 493 2 491 0 c 1
 333 0 l 2
 312 0 299 6 282 22 c 0
 147 149 39 297 39 518 c 0
 39 594 78 693 78 708 c 0
 78 721 60 725 60 738 c 0
 60 745 68 750 76 750 c 2
 237 750 l 1
 239 748 244 749 244 743 c 0
 244 739 242 737 238 737 c 0
 228 737 211 707 191 680 c 0
 178 663 134 546 134 456 c 0
 134 286 202 172 321 31 c 0
EndSplineSet
EndChar
StartChar: V
Encoding: 86 86
Width: 494
Flags: MW
HStem: -2 20 728 22<211 217 217 219.5>
VStem: 41 116 323 192
Fore
71 750 m 0
 122 750 168 750 217 750 c 0
 224 750 233 750 233 744 c 0
 233 736 224 728 215 728 c 0
 207 728 203 730 195 730 c 0
 180 730 176 714 171 700 c 0
 154 655 157 622 157 572 c 0
 157 420 227 317 311 162 c 0
 316 152 329 109 341 168 c 0
 384 373 403 554 403 580 c 0
 403 639 403 693 357 724 c 0
 347 731 323 725 323 738 c 0
 323 747 335 750 343 750 c 0
 404 750 438 750 499 750 c 0
 505 750 515 752 515 746 c 0
 515 742 508 740 505 736 c 0
 482 709 484 710 473 680 c 0
 447 610 441 541 427 470 c 0
 390 277 386 228 345 16 c 0
 340 -12 331 -4 321 16 c 0
 265 132 179 223 119 356 c 0
 67 471 38 535 41 656 c 0
 42 688 47 720 49 738 c 0
 50 748 62 750 71 750 c 0
EndSplineSet
EndChar
StartChar: W
Encoding: 87 87
Width: 697
Flags: MW
HStem: 728 22<211 217 217 219.5>
VStem: 41 112 519 206<742 742.5>
Fore
71 750 m 0
 122 750 168 750 217 750 c 0
 224 750 233 750 233 744 c 0
 233 736 224 728 215 728 c 0
 207 728 203 730 195 730 c 0
 180 730 176 714 171 700 c 0
 154 655 153 622 153 572 c 0
 153 420 215 287 279 114 c 0
 283 103 297 61 309 120 c 0
 345 299 375 434 395 578 c 0
 399 607 415 603 423 576 c 0
 462 446 466 385 539 230 c 0
 543 221 553 224 559 250 c 0
 581 346 584 379 603 470 c 0
 612 514 611 536 611 580 c 0
 611 639 593 687 547 720 c 0
 537 727 519 725 519 738 c 0
 519 747 531 750 539 750 c 0
 600 750 648 750 709 750 c 0
 715 750 725 750 725 744 c 0
 725 740 719 740 715 736 c 0
 690 709 684 686 671 652 c 0
 651 598 645 541 629 470 c 0
 589 293 567 175 535 16 c 0
 531 -4 512 -27 509 2 c 0
 503 63 496 99 477 158 c 0
 451 237 423 285 401 354 c 0
 396 370 389 374 385 354 c 0
 359 235 335 154 315 16 c 0
 311 -12 301 -5 291 16 c 0
 235 132 173 219 117 354 c 0
 69 470 38 535 41 656 c 0
 42 688 47 720 49 738 c 0
 50 748 62 750 71 750 c 0
EndSplineSet
EndChar
StartChar: X
Encoding: 88 88
Width: 508
Flags: MW
HStem: -1 20 738 17<9.5 15>
VStem: 76 78 351 95
Fore
443 53 m 2
 449 39 459 32 469 23 c 0
 478 15 496 15 496 7 c 1
 496 7 491 0 487 0 c 2
 305 0 l 2
 301 1 296 4 296 7 c 0
 296 13 328 14 335 27 c 0
 341 38 340 41 340 54 c 0
 340 67 343 63 330 95 c 2
 241 307 l 2
 235 322 223 367 207 335 c 0
 166 253 154 251 154 140 c 0
 154 67 192 25 202 -1 c 1
 166 -1 125 -1 90 -1 c 0
 83 -1 77 5 76 15 c 0
 72 69 69 136 90 190 c 0
 127 286 151 306 200 363 c 0
 207 371 211 381 207 390 c 2
 82 691 l 2
 77 703 57 722 46 729 c 0
 35 736 24 738 13 738 c 0
 6 738 -3 742 0 749 c 0
 2 753 6 755 10 755 c 0
 20 755 28 750 39 750 c 0
 85 750 123 750 168 750 c 0
 174 750 182 749 182 744 c 0
 182 735 176 725 175 713 c 0
 174 695 181 675 184 668 c 2
 254 501 l 2
 264 477 277 444 292 471 c 0
 336 549 347 569 351 650 c 0
 354 702 314 723 304 749 c 1
 340 749 383 749 418 749 c 0
 431 749 446 742 446 686 c 0
 446 622 347 508 294 445 c 0
 288 437 285 427 289 418 c 2
 443 53 l 2
EndSplineSet
EndChar
StartChar: Y
Encoding: 89 89
Width: 556
Flags: MW
HStem: -6 20 730 20<73.5 94.5 77 209>
VStem: 218 167<740 743.5>
Fore
110 11 m 0
 103 11 94 7 97 0 c 0
 99 -4 103 -6 107 -6 c 0
 117 -6 125 -1 136 -1 c 0
 182 -1 216 -1 261 -1 c 0
 267 -1 275 0 275 5 c 0
 275 14 269 24 268 36 c 0
 267 54 274 74 277 81 c 2
 528 696 l 2
 534 710 538 717 548 726 c 0
 557 734 575 734 575 742 c 1
 575 742 570 749 566 749 c 2
 394 749 l 2
 390 748 385 745 385 742 c 0
 385 736 403 731 410 718 c 0
 416 707 416 698 417 685 c 0
 418 662 417 660 405 628 c 2
 312 380 l 2
 306 365 300 328 278 351 c 0
 196 437 158 512 158 623 c 0
 158 669 176 737 192 737 c 0
 199 737 202 735 209 735 c 0
 213 735 218 738 218 742 c 0
 218 747 214 750 209 750 c 0
 173 750 112 750 77 750 c 0
 70 750 63 744 63 734 c 0
 63 680 75 627 99 563 c 0
 138 457 216 379 269 316 c 0
 275 308 279 299 275 290 c 2
 179 58 l 1
 174 47 154 27 143 20 c 0
 132 13 121 11 110 11 c 0
EndSplineSet
EndChar
StartChar: Z
Encoding: 90 90
Width: 526
Flags: MW
HStem: 0 28<220 272> 739 20<524 533.5>
Fore
76 0 m 0
 57 0 53 5 61 20 c 1
 399 705 l 2
 402 712 406 726 391 724 c 0
 293 713 202 691 149 646 c 0
 144 641 139 643 143 652 c 0
 161 692 168 711 178 744 c 0
 181 753 187 753 193 753 c 0
 309 755 405 757 524 759 c 0
 543 759 537 751 534 745 c 2
 185 44 l 1
 180 35 188 31 194 31 c 0
 203 31 214 28 226 28 c 0
 318 28 403 65 476 115 c 0
 480 118 487 121 489 114 c 0
 500 76 506 52 531 17 c 0
 536 10 533 0 519 0 c 0
 362 0 211 0 76 0 c 0
EndSplineSet
EndChar
StartChar: bracketleft
Encoding: 91 91
Width: 440
Flags: MW
HStem: -5 18<64.5 67> 737 18<64.5 67>
VStem: 91 94<67 683 572.5 697.5>
Fore
91 683 m 0
 91 712 94 737 76 740 c 0
 73 741 68 737 66 737 c 0
 61 737 53 737 53 746 c 0
 53 750 62 755 67 755 c 0
 72 755 79 750 86 750 c 0
 133 750 302 750 302 750 c 2
 315 750 356 741 381 716 c 0
 384 712 387 707 384 703 c 0
 371 684 354 672 332 662 c 1
 333 676 329 698 314 708 c 0
 283 730 244 731 218 731 c 0
 203 731 185 731 185 708 c 2
 185 42 l 2
 185 19 203 19 218 19 c 0
 244 19 283 20 314 42 c 0
 329 52 333 74 332 88 c 1
 354 78 371 66 384 47 c 0
 387 43 384 38 381 34 c 0
 356 9 315 0 302 0 c 2
 302 0 133 0 86 0 c 0
 79 0 72 -5 67 -5 c 0
 62 -5 53 0 53 4 c 0
 53 13 61 13 66 13 c 0
 68 13 73 9 76 10 c 0
 94 13 91 38 91 67 c 0
 91 85 91 462 91 683 c 0
EndSplineSet
EndChar
StartChar: backslash
Encoding: 92 92
Width: 510
Flags: W
Fore
79 716 m 0
 73 730 42 732 50 714 c 0
 57 699 356 58 365 40 c 0
 370 28 404 20 394 42 c 0
 386 59 197 464 79 716 c 0
EndSplineSet
EndChar
StartChar: bracketright
Encoding: 93 93
Width: 450
Flags: MW
HStem: 0 13 737 18<373 375.5>
VStem: 260 89<52.5 76 76 683>
Fore
387 4 m 0
 387 0 378 -5 373 -5 c 0
 368 -5 361 0 354 0 c 0
 307 0 143 0 143 0 c 2
 130 0 89 9 64 34 c 0
 61 38 58 43 61 47 c 0
 74 66 91 78 113 88 c 1
 112 74 116 52 131 42 c 0
 162 20 201 19 227 19 c 0
 242 19 260 19 260 42 c 2
 260 708 l 2
 260 731 242 731 227 731 c 0
 201 731 162 730 131 708 c 0
 116 698 112 676 113 662 c 1
 91 672 74 684 61 703 c 0
 58 707 61 712 64 716 c 0
 89 741 130 750 143 750 c 2
 143 750 307 750 354 750 c 0
 361 750 368 755 373 755 c 0
 378 755 387 750 387 746 c 0
 387 737 379 737 374 737 c 0
 372 737 367 741 364 740 c 0
 346 737 349 712 349 683 c 0
 349 462 349 85 349 67 c 0
 349 38 346 13 364 10 c 0
 367 9 372 13 374 13 c 0
 379 13 387 13 387 4 c 0
EndSplineSet
EndChar
StartChar: asciicircum
Encoding: 94 94
Width: 337
Flags: W
Fore
35 500 m 1
 80 500 l 1
 160 590 l 1
 230 500 l 1
 280 500 l 1
 210 670 l 1
 115 670 l 1
 35 500 l 1
EndSplineSet
EndChar
StartChar: underscore
Encoding: 95 95
Width: 355
Flags: W
Fore
22 -6 m 1
 8 -38 l 1
 340 -38 l 1
 354 -6 l 1
 22 -6 l 1
EndSplineSet
EndChar
StartChar: grave
Encoding: 96 96
Width: 234
Flags: MW
HStem: 625 125<101 126 101 101>
Fore
141 625 m 1
 101 625 l 1
 46 750 l 1
 126 750 l 1
 126 750 126 716 128 695 c 0
 131 667 141 625 141 625 c 1
EndSplineSet
EndChar
StartChar: a
Encoding: 97 97
Width: 370
Flags: MW
HStem: 0 20<189.5 199 189.5 219> 358 16<161.5 206.5> 471 31<151 197>
VStem: 26 63<128.5 228> 252 63<54 311 311 324 352 371>
Fore
252 54 m 0
 252 66 252 311 252 311 c 2
 252 337 218 358 195 358 c 0
 128 358 89 300 89 196 c 0
 89 61 171 20 208 20 c 0
 230 20 252 30 252 54 c 0
174 471 m 0
 128 471 43 444 101 391 c 1
 86 371 79 367 52 357 c 1
 2 472 116 502 176 502 c 0
 269 502 315 452 315 371 c 0
 315 357 315 56 315 44 c 0
 315 20 328 8 337 8 c 0
 340 8 341 7 341 4 c 0
 341 0 338 0 337 0 c 2
 337 0 219 0 179 0 c 0
 101 0 26 75 26 155 c 0
 26 301 75 374 196 374 c 0
 218 374 234 362 238 359 c 0
 242 356 252 344 252 352 c 0
 252 354 252 386 252 406 c 0
 252 451 220 471 174 471 c 0
EndSplineSet
EndChar
StartChar: b
Encoding: 98 98
Width: 370
Flags: MW
HStem: 0 20<132 161.5> 487 15<144.5 189.5> 730 20<14 88 88 91>
VStem: 36 63<44 62 62 439 476 481 481 705 698 725.5> 260 63<128.5 235>
Fore
260 196 m 0
 260 310 223 487 156 487 c 0
 133 487 99 465 99 439 c 2
 99 439 99 68 99 56 c 0
 99 32 121 20 143 20 c 0
 180 20 260 61 260 196 c 0
14 0 m 2
 13 0 10 0 10 4 c 0
 10 7 11 8 14 8 c 0
 23 8 36 20 36 44 c 0
 36 56 36 691 36 705 c 0
 36 746 23 741 13 741 c 0
 11 741 9 743 9 745 c 0
 9 749 13 749 14 750 c 2
 88 750 l 2
 94 750 99 750 99 740 c 0
 99 736 99 482 99 480 c 0
 99 472 109 484 113 487 c 0
 117 490 133 502 155 502 c 0
 276 502 323 315 323 155 c 0
 323 75 250 0 172 0 c 0
 132 0 14 0 14 0 c 2
EndSplineSet
EndChar
StartChar: c
Encoding: 99 99
Width: 330
Flags: MW
HStem: -7 19<211 236> 488 14<171 204>
VStem: 37 64<243.5 320.5>
Fore
282 502 m 1
 267 474 255 458 234 436 c 1
 231 448 234 456 228 466 c 0
 220 480 212 488 196 488 c 0
 121 488 101 356 101 285 c 0
 101 166 140 12 231 12 c 0
 253 12 266 14 286 25 c 1
 268 4 250 -7 222 -7 c 0
 200 -7 150 19 117 54 c 0
 68 106 37 198 37 289 c 0
 37 406 121 502 171 502 c 0
 213 502 240 502 282 502 c 1
EndSplineSet
EndChar
StartChar: d
Encoding: 100 100
Width: 392
Flags: MW
HStem: 0 18<195.5 199 195.5 225> 488 14<167.5 212.5> 730 20<269 343 343 343>
VStem: 32 63<128.5 235> 258 63<54 439 439 452 480 705>
Fore
348 745 m 0
 348 743 346 741 344 741 c 0
 334 741 321 746 321 705 c 0
 321 691 321 56 321 44 c 0
 321 20 334 8 343 8 c 0
 346 8 347 7 347 4 c 0
 347 0 344 0 343 0 c 2
 343 0 219 0 179 0 c 0
 101 0 32 75 32 155 c 0
 32 315 75 502 202 502 c 0
 224 502 240 490 244 487 c 0
 248 484 258 472 258 480 c 0
 258 482 258 736 258 740 c 0
 258 750 263 750 269 750 c 2
 343 750 l 2
 344 749 348 749 348 745 c 0
258 54 m 0
 258 66 258 439 258 439 c 2
 258 465 224 488 201 488 c 0
 134 488 95 310 95 196 c 0
 95 61 177 18 214 18 c 0
 236 18 258 30 258 54 c 0
EndSplineSet
EndChar
StartChar: e
Encoding: 101 101
Width: 390
Flags: MW
HStem: -7 22 490 12<168 216>
VStem: 31 66<306.5 333.5> 262 66
Fore
190 490 m 0
 115 490 97 358 97 309 c 0
 97 304 108 294 116 296 c 0
 168 309 261 368 262 404 c 0
 263 447 242 490 190 490 c 0
328 418 m 0
 323 359 254 335 204 304 c 0
 165 280 94 271 100 228 c 0
 114 125 151 20 239 15 c 0
 285 12 332 38 350 55 c 1
 332 16 272 -7 230 -7 c 0
 86 -7 31 138 31 289 c 0
 31 406 115 502 168 502 c 0
 210 502 201 502 236 502 c 0
 269 502 332 468 328 418 c 0
EndSplineSet
EndChar
StartChar: f
Encoding: 102 102
Width: 201
Flags: MW
HStem: 0 20 502 235<138.5 150>
Fore
-7 480 m 1
 -1 480 2 480 26 480 c 0
 36 480 36 474 36 468 c 0
 36 349 36 52 36 44 c 0
 36 20 23 8 14 8 c 0
 11 8 10 7 10 4 c 0
 10 0 13 1 14 0 c 2
 121 0 l 2
 122 0 125 0 125 4 c 0
 125 7 124 8 121 8 c 0
 112 8 99 20 99 44 c 2
 99 44 99 349 99 468 c 0
 99 474 99 480 109 480 c 0
 133 480 148 480 174 480 c 0
 213 480 238 489 271 516 c 0
 273 518 274 520 272 522 c 0
 261 530 253 535 241 545 c 0
 239 547 237 542 235 540 c 0
 211 514 175 502 150 502 c 0
 131 502 123 502 108 502 c 0
 99 502 99 509 99 514 c 0
 99 573 99 684 99 685 c 0
 99 712 126 737 151 737 c 0
 182 737 219 707 246 675 c 1
 265 702 280 716 283 750 c 1
 217 750 178 750 112 750 c 0
 66 750 36 721 36 684 c 0
 36 656 36 573 36 514 c 0
 36 509 36 502 27 502 c 0
 12 502 17 501 11 502 c 1
 -7 480 l 1
EndSplineSet
EndChar
StartChar: g
Encoding: 103 103
Width: 390
Flags: MW
HStem: -165 30<151 197> 0 14<161.5 206.5> 484 18<189.5 219>
VStem: 28 63<267 373.5> 252 63<-66 -24 -24 22 21 26 63 448 442 458>
Fore
252 63 m 2
 252 63 252 436 252 448 c 0
 252 472 230 484 208 484 c 0
 171 484 91 441 91 306 c 0
 91 192 128 14 195 14 c 0
 218 14 252 37 252 63 c 2
252 -66 m 0
 252 -46 252 20 252 22 c 0
 252 30 242 18 238 15 c 0
 234 12 218 0 196 0 c 0
 69 0 28 187 28 347 c 0
 28 427 101 502 179 502 c 0
 219 502 337 502 337 502 c 2
 338 502 341 502 341 498 c 0
 341 495 340 494 337 494 c 0
 328 494 315 482 315 458 c 0
 315 446 315 -17 315 -31 c 0
 315 -112 254 -165 176 -165 c 0
 116 -165 2 -133 52 -18 c 1
 79 -28 92 -32 107 -52 c 1
 49 -105 128 -135 174 -135 c 0
 220 -135 252 -112 252 -66 c 0
EndSplineSet
EndChar
StartChar: h
Encoding: 104 104
Width: 392
Flags: MW
HStem: 0 20 483 19<144.5 189.5> 730 20<14 88 88 91>
VStem: 36 63<44 50 50 434 476 481 481 705 698 725.5> 262 60<166 229>
Fore
155 502 m 0
 276 502 322 303 322 155 c 0
 322 104 296 38 296 28 c 0
 296 19 308 16 308 8 c 0
 308 3 303 0 297 0 c 2
 193 0 l 2
 192 1 188 0 188 4 c 0
 188 7 190 8 192 8 c 0
 199 8 211 28 224 46 c 0
 233 58 262 136 262 196 c 0
 262 310 223 483 156 483 c 0
 133 483 99 460 99 434 c 2
 99 434 99 56 99 44 c 0
 99 20 112 8 121 8 c 0
 124 8 125 7 125 4 c 0
 125 0 122 0 121 0 c 2
 14 0 l 2
 13 1 10 0 10 4 c 0
 10 7 11 8 14 8 c 0
 23 8 36 20 36 44 c 0
 36 56 36 691 36 705 c 0
 36 746 23 741 13 741 c 0
 11 741 9 743 9 745 c 0
 9 749 13 749 14 750 c 2
 88 750 l 2
 94 750 99 750 99 740 c 0
 99 736 99 482 99 480 c 0
 99 472 109 484 113 487 c 0
 117 490 133 502 155 502 c 0
EndSplineSet
EndChar
StartChar: i
Encoding: 105 105
Width: 165
Flags: MW
HStem: 0 20 591 78<55.5 74.5>
VStem: 36 89
Fore
99 44 m 2
 99 20 112 8 121 8 c 0
 124 8 125 7 125 4 c 0
 125 0 122 0 121 0 c 2
 14 0 l 2
 13 1 10 0 10 4 c 0
 10 7 11 8 14 8 c 0
 23 8 36 20 36 44 c 0
 36 56 36 443 36 457 c 0
 36 498 23 493 13 493 c 0
 11 493 9 495 9 497 c 0
 9 501 13 501 14 502 c 2
 88 502 l 2
 94 502 99 502 99 492 c 0
 99 488 99 44 99 44 c 2
32 630 m 0
 32 649 46 669 65 669 c 0
 84 669 98 649 98 630 c 0
 98 611 84 591 65 591 c 0
 46 591 32 611 32 630 c 0
EndSplineSet
EndChar
StartChar: j
Encoding: 106 106
Width: 165
Flags: MW
HStem: 591 78<55.5 74.5>
VStem: 9 89
Fore
33 630 m 0
 33 649 46 669 65 669 c 0
 84 669 98 649 98 630 c 0
 98 611 84 591 65 591 c 0
 46 591 33 611 33 630 c 0
17 -54 m 0
 30 -32 35 24 35 57 c 2
 35 57 35 446 35 458 c 0
 35 482 22 494 13 494 c 0
 10 494 9 495 9 498 c 0
 9 502 12 501 13 503 c 1
 87 503 l 2
 93 503 98 503 98 493 c 0
 98 414 98 79 98 65 c 0
 98 7 59 -50 54 -58 c 0
 50 -64 7 -117 -52 -138 c 0
 -54 -139 -55 -139 -58 -139 c 0
 -60 -139 -64 -137 -64 -134 c 0
 -64 -131 -62 -130 -61 -129 c 0
 -26 -113 -4 -91 17 -54 c 0
EndSplineSet
EndChar
StartChar: k
Encoding: 107 107
Width: 411
Flags: MW
HStem: 0 20 485 17<187.5 215.5> 730 20<14 88 88 91>
VStem: 36 63<44 101 191 421 502 562 562 705 698 725.5> 254 53<410.5 450>
Fore
130 249 m 0
 175 323 254 384 254 437 c 0
 254 463 228 485 203 485 c 0
 172 485 120 462 99 421 c 1
 99 348 99 256 99 191 c 1
 107 207 119 231 130 249 c 0
203 276 m 0
 199 272 190 265 198 254 c 0
 210 236 226 203 239 178 c 0
 256 146 293 68 345 60 c 0
 350 60 357 62 357 57 c 0
 354 34 349 25 348 5 c 0
 348 1 345 0 340 1 c 0
 279 19 263 86 234 135 c 0
 214 168 204 195 183 226 c 0
 174 238 165 235 160 228 c 0
 126 183 108 148 99 101 c 1
 99 44 l 2
 99 20 112 8 121 8 c 0
 124 8 125 7 125 4 c 0
 125 0 122 0 121 0 c 2
 14 0 l 2
 13 1 10 0 10 4 c 0
 10 7 11 8 14 8 c 0
 23 8 36 20 36 44 c 0
 36 56 36 691 36 705 c 0
 36 746 23 741 13 741 c 0
 11 741 9 743 9 745 c 0
 9 749 13 749 14 750 c 2
 88 750 l 2
 94 750 99 750 99 740 c 0
 99 739 99 622 99 502 c 1
 147 502 171 502 237 502 c 0
 283 502 307 471 307 434 c 0
 307 357 259 332 203 276 c 0
EndSplineSet
EndChar
StartChar: l
Encoding: 108 108
Width: 183
Flags: MW
HStem: 0 20 730 20<14 88 88 91>
VStem: 36 63<44 705 698 725.5>
Fore
99 44 m 2
 99 20 112 8 121 8 c 0
 124 8 125 7 125 4 c 0
 125 0 122 0 121 0 c 2
 14 0 l 2
 13 1 10 0 10 4 c 0
 10 7 11 8 14 8 c 0
 23 8 36 20 36 44 c 0
 36 56 36 691 36 705 c 0
 36 746 23 741 13 741 c 0
 11 741 9 743 9 745 c 0
 9 749 13 749 14 750 c 2
 88 750 l 2
 94 750 99 750 99 740 c 0
 99 736 99 44 99 44 c 2
EndSplineSet
EndChar
StartChar: m
Encoding: 109 109
Width: 606
Flags: MW
HStem: 0 20 488 14<144.5 172 328.5 386>
VStem: 36 63<44 50 50 439 476 477.5> 262 60<166 197> 460 60<166 229>
Fore
322 155 m 0
 322 104 296 38 296 28 c 0
 296 19 308 16 308 8 c 0
 308 3 303 0 297 0 c 2
 193 0 l 2
 192 1 188 0 188 4 c 0
 188 7 190 8 192 8 c 0
 199 8 211 28 224 46 c 0
 233 58 262 136 262 196 c 0
 262 310 223 488 156 488 c 0
 133 488 99 465 99 439 c 2
 99 439 99 56 99 44 c 0
 99 20 112 8 121 8 c 0
 124 8 125 7 125 4 c 0
 125 0 122 0 121 0 c 2
 14 0 l 2
 13 1 10 0 10 4 c 0
 10 7 11 8 14 8 c 0
 23 8 36 20 36 44 c 0
 36 56 36 443 36 457 c 0
 36 498 23 493 13 493 c 0
 11 493 9 495 9 497 c 0
 9 501 13 501 14 502 c 2
 88 502 l 2
 94 502 99 502 99 492 c 0
 99 488 99 482 99 480 c 0
 99 472 109 484 113 487 c 0
 117 490 133 502 155 502 c 0
 189 502 215 489 240 463 c 0
 245 458 252 463 256 466 c 0
 268 475 299 502 342 502 c 0
 480 502 520 303 520 155 c 0
 520 104 494 38 494 28 c 0
 494 19 506 16 506 8 c 0
 506 3 501 0 495 0 c 2
 391 0 l 2
 390 1 386 0 386 4 c 0
 386 7 388 8 390 8 c 0
 397 8 409 28 422 46 c 0
 431 58 460 136 460 196 c 0
 460 310 429 488 343 488 c 0
 314 488 257 446 273 410 c 0
 310 326 322 239 322 155 c 0
EndSplineSet
EndChar
StartChar: n
Encoding: 110 110
Width: 394
Flags: MW
HStem: 0 20 484 18<144.5 189.5>
VStem: 36 63<44 50 50 435 476 477.5> 262 60<166 229>
Fore
155 502 m 0
 276 502 322 303 322 155 c 0
 322 104 296 38 296 28 c 0
 296 19 308 16 308 8 c 0
 308 3 303 0 297 0 c 2
 193 0 l 2
 192 1 188 0 188 4 c 0
 188 7 190 8 192 8 c 0
 199 8 211 28 224 46 c 0
 233 58 262 136 262 196 c 0
 262 310 223 484 156 484 c 0
 133 484 99 461 99 435 c 2
 99 435 99 56 99 44 c 0
 99 20 112 8 121 8 c 0
 124 8 125 7 125 4 c 0
 125 0 122 0 121 0 c 2
 14 0 l 2
 13 1 10 0 10 4 c 0
 10 7 11 8 14 8 c 0
 23 8 36 20 36 44 c 0
 36 56 36 443 36 457 c 0
 36 498 23 493 13 493 c 0
 11 493 9 495 9 497 c 0
 9 501 13 501 14 502 c 2
 88 502 l 2
 94 502 99 502 99 492 c 0
 99 488 99 482 99 480 c 0
 99 472 109 484 113 487 c 0
 117 490 133 502 155 502 c 0
EndSplineSet
EndChar
StartChar: o
Encoding: 111 111
Width: 380
Flags: MW
HStem: 494 20
VStem: 25 56<246.5 312> 268 45<259 272>
Fore
81 304 m 0
 81 189 105 59 192 31 c 0
 247 13 268 139 268 218 c 0
 268 326 234 431 162 458 c 0
 93 484 81 372 81 304 c 0
25 259 m 0
 25 365 61 453 145 505 c 0
 167 519 190 516 213 502 c 0
 278 464 313 380 313 288 c 0
 313 230 314 61 200 0 c 0
 178 -12 163 -18 142 -5 c 0
 51 50 25 147 25 259 c 0
EndSplineSet
EndChar
StartChar: p
Encoding: 112 112
Width: 375
Flags: MW
HStem: -3 20<139 183> 491 14<14 18>
VStem: 33 63<-155 22 50.5 63 63 448> 253 63<266 372>
Fore
316 347 m 0
 316 185 271 -3 149 -3 c 0
 126 -3 109 9 105 13 c 0
 102 15 96 29 96 22 c 0
 96 20 96 -183 96 -187 c 0
 96 -200 90 -200 82 -200 c 2
 13 -200 l 2
 12 -199 6 -198 6 -193 c 0
 6 -189 9 -186 13 -186 c 0
 22 -186 33 -192 33 -155 c 0
 33 -141 33 446 33 458 c 0
 33 480 22 491 14 491 c 0
 9 491 7 493 7 498 c 0
 7 505 12 505 14 505 c 2
 14 505 126 505 166 505 c 0
 246 505 316 429 316 347 c 0
253 306 m 0
 253 438 173 481 137 481 c 0
 117 481 96 470 96 448 c 0
 96 436 96 63 96 63 c 2
 96 38 128 17 150 17 c 0
 216 17 253 193 253 306 c 0
EndSplineSet
EndChar
StartChar: q
Encoding: 113 113
Width: 380
Flags: MW
HStem: -200 14<327.5 332> -3 20<162 206> 491 14<327 331 331 332>
VStem: 29 63<266 372> 249 63<-173.5 -148 -148 22 21 25.5 63 448 442 458>
Fore
339 -193 m 0
 339 -198 333 -199 332 -200 c 2
 263 -200 l 2
 255 -200 249 -200 249 -187 c 0
 249 -183 249 20 249 22 c 0
 249 29 243 15 240 13 c 0
 236 9 219 -3 196 -3 c 0
 74 -3 29 185 29 347 c 0
 29 429 99 505 179 505 c 0
 219 505 331 505 331 505 c 2
 333 505 338 505 338 498 c 0
 338 493 336 491 331 491 c 0
 323 491 312 480 312 458 c 0
 312 446 312 -141 312 -155 c 0
 312 -192 323 -186 332 -186 c 0
 336 -186 339 -189 339 -193 c 0
249 63 m 2
 249 63 249 436 249 448 c 0
 249 470 228 481 208 481 c 0
 172 481 92 438 92 306 c 0
 92 193 129 17 195 17 c 0
 217 17 249 38 249 63 c 2
EndSplineSet
EndChar
StartChar: r
Encoding: 114 114
Width: 370
Flags: MW
HStem: 0 13<13 18 13 13> 490 15<13 17.5>
VStem: 33 64<46 47 47 406>
Fore
296 354 m 1
 265 364 258 369 242 392 c 1
 298 444 216 471 172 471 c 0
 128 471 97 449 97 406 c 0
 97 386 97 47 97 47 c 2
 97 25 108 14 116 14 c 0
 121 14 123 12 123 7 c 0
 123 0 118 0 116 0 c 2
 13 0 l 2
 11 1 7 0 7 6 c 0
 7 11 9 13 14 13 c 0
 22 13 33 24 33 46 c 0
 33 58 33 443 33 457 c 0
 33 494 22 490 13 490 c 0
 9 490 6 493 6 497 c 0
 6 502 12 504 13 505 c 2
 82 505 l 2
 90 505 96 505 96 492 c 0
 96 491 96 490 96 488 c 1
 111 495 131 505 170 505 c 0
 232 505 348 474 296 354 c 1
EndSplineSet
EndChar
StartChar: s
Encoding: 115 115
Width: 340
Flags: MW
HStem: -12 43<147 159.5> 298 64<145 165.5> 473 47
VStem: 42 24 248 34<123 196>
Fore
282 210 m 0
 282 36 188 -12 131 -12 c 0
 98 -12 37 18 10 60 c 0
 6 67 10 72 16 75 c 0
 37 82 48 92 62 101 c 0
 67 105 71 104 74 95 c 0
 89 54 133 31 161 31 c 0
 201 31 248 79 248 157 c 0
 248 235 206 298 125 298 c 0
 113 298 106 296 95 289 c 0
 90 287 84 287 82 291 c 1
 59 319 42 354 42 389 c 0
 42 461 120 520 173 520 c 0
 206 520 226 510 252 490 c 0
 259 485 255 479 251 475 c 0
 234 461 227 448 216 434 c 0
 213 430 210 429 204 435 c 0
 184 459 171 471 143 473 c 0
 97 475 67 430 66 385 c 0
 65 367 76 341 81 326 c 0
 82 324 85 325 86 327 c 0
 103 347 129 362 161 362 c 0
 242 362 282 287 282 210 c 0
EndSplineSet
EndChar
StartChar: t
Encoding: 116 116
Width: 250
Flags: MW
HStem: -3 36<125 149.5> 480 25<10 26 102 115 103 144 144 156>
VStem: 33 63<80 82 82 471 411.5 471 514 543.5 543.5 552 539 543.5 543.5 560.5>
Fore
268 524 m 0
 272 521 271 517 267 514 c 0
 233 486 208 480 168 480 c 0
 142 480 127 480 103 480 c 0
 96 480 96 475 96 471 c 0
 96 352 96 82 96 82 c 2
 96 59 108 33 142 33 c 0
 171 33 193 53 196 90 c 1
 218 61 l 1
 203 22 169 -3 130 -3 c 0
 82 -3 33 27 33 80 c 0
 33 231 33 352 33 471 c 0
 33 475 33 480 26 480 c 0
 2 480 -1 480 -14 480 c 1
 10 505 l 1
 16 504 12 505 27 505 c 0
 33 505 33 510 33 514 c 0
 33 573 33 526 33 552 c 0
 33 569 79 600 96 598 c 1
 96 574 96 573 96 514 c 0
 96 510 96 505 102 505 c 0
 117 505 125 505 144 505 c 0
 168 505 203 517 227 542 c 0
 230 545 234 550 237 547 c 0
 249 537 257 532 268 524 c 0
EndSplineSet
EndChar
StartChar: u
Encoding: 117 117
Width: 370
Flags: MW
HStem: 0 20 488 14<153.5 157 211 216>
VStem: 30 60<272.5 335.5> 231 63<47 54 54 455 449 466>
Fore
321 7 m 0
 321 2 315 1 314 0 c 2
 220 0 l 2
 205 0 197 4 184 16 c 0
 93 101 30 198 30 347 c 0
 30 398 56 461 56 471 c 0
 56 480 44 483 44 491 c 0
 44 498 50 502 58 502 c 2
 157 502 l 2
 158 501 164 500 164 495 c 0
 164 490 161 488 157 488 c 0
 150 488 141 468 127 451 c 1
 120 439 90 365 90 306 c 0
 90 193 136 114 214 21 c 0
 221 13 231 18 231 47 c 2
 231 47 231 443 231 455 c 0
 231 477 220 488 212 488 c 0
 207 488 205 490 205 495 c 0
 205 501 209 501 211 502 c 2
 280 502 l 2
 288 502 294 502 294 489 c 0
 294 410 294 61 294 47 c 0
 294 10 305 14 314 14 c 0
 318 14 321 11 321 7 c 0
EndSplineSet
EndChar
StartChar: v
Encoding: 118 118
Width: 380
Flags: MW
HStem: -8 20 482 20<141.5 145 145 148>
VStem: 34 74
Fore
340 495 m 1
 340 495 336 490 334 487 c 0
 320 468 321 471 313 450 c 0
 297 404 295 361 286 314 c 0
 261 185 258 153 231 11 c 0
 226 -17 221 -10 212 10 c 0
 180 87 129 150 89 239 c 0
 54 316 32 358 34 440 c 0
 35 461 38 479 39 491 c 0
 40 500 50 502 57 502 c 0
 91 502 113 502 145 502 c 0
 152 502 159 500 159 495 c 0
 159 489 152 482 144 482 c 0
 139 482 136 483 131 483 c 0
 122 483 119 473 117 465 c 0
 110 435 108 417 108 383 c 0
 108 282 155 213 211 110 c 0
 214 105 219 85 225 114 c 0
 254 250 267 371 267 389 c 0
 267 427 267 460 237 479 c 0
 230 484 213 481 213 491 c 0
 213 499 222 502 230 502 c 0
 271 502 287 502 328 502 c 0
 333 502 340 500 340 495 c 1
EndSplineSet
EndChar
StartChar: w
Encoding: 119 119
Width: 500
Flags: MW
HStem: 482 20<129.5 133 133 136>
VStem: 22 72
Fore
473 495 m 1
 473 495 469 490 466 487 c 0
 451 469 447 459 438 436 c 0
 419 390 420 361 410 314 c 0
 383 195 369 116 347 10 c 0
 344 -7 326 -23 323 1 c 0
 319 41 315 65 302 105 c 0
 284 158 266 190 251 236 c 0
 250 241 247 243 246 236 c 0
 229 156 212 102 199 11 c 0
 195 -17 189 -12 180 10 c 0
 150 87 110 146 73 236 c 0
 41 314 20 358 22 440 c 0
 23 461 26 479 27 491 c 0
 28 500 38 502 45 502 c 0
 79 502 101 502 133 502 c 0
 140 502 147 500 147 495 c 0
 147 489 140 482 132 482 c 0
 127 482 124 483 119 483 c 0
 110 483 108 472 106 465 c 0
 96 435 94 417 94 383 c 0
 94 281 135 191 178 75 c 0
 180 69 186 50 192 79 c 0
 216 199 237 291 250 387 c 0
 254 416 262 412 270 387 c 0
 296 300 303 251 352 147 c 0
 354 143 357 146 360 160 c 0
 374 225 376 254 389 315 c 0
 395 343 393 359 393 389 c 0
 393 427 386 455 357 477 c 0
 349 482 337 481 337 491 c 0
 337 499 347 502 353 502 c 0
 394 502 419 502 460 502 c 0
 465 502 473 500 473 495 c 1
EndSplineSet
EndChar
StartChar: x
Encoding: 120 120
Width: 365
Flags: MW
HStem: -1 20 488 18<5.5 10>
VStem: 52 54 224 64
Fore
327 7 m 0
 325 3 322 0 318 0 c 2
 203 0 l 2
 196 0 194 4 195 8 c 0
 198 18 216 15 221 22 c 0
 226 29 225 31 225 36 c 0
 225 43 227 42 218 63 c 2
 158 205 l 2
 155 213 151 241 142 223 c 0
 115 168 106 167 106 94 c 0
 106 45 132 21 139 -1 c 1
 111 -1 88 -1 64 -1 c 0
 59 -1 53 4 52 13 c 0
 49 49 47 92 61 128 c 0
 86 194 98 207 132 245 c 0
 136 250 138 255 136 260 c 2
 52 459 l 2
 49 466 35 479 29 482 c 0
 22 487 15 488 9 488 c 0
 2 488 -6 493 -3 500 c 0
 -1 504 3 506 7 506 c 0
 13 506 19 502 26 502 c 0
 57 502 74 502 105 502 c 0
 111 502 117 501 117 495 c 0
 117 489 113 483 112 475 c 0
 112 464 116 453 118 449 c 2
 165 337 l 2
 171 323 176 301 185 317 c 0
 213 369 221 382 224 435 c 0
 226 470 203 482 192 502 c 1
 220 502 243 502 267 502 c 0
 276 502 288 497 288 457 c 0
 288 414 227 339 191 296 c 0
 188 292 186 286 189 281 c 1
 292 37 l 2
 296 28 301 26 308 20 c 0
 315 15 330 15 327 7 c 0
EndSplineSet
EndChar
StartChar: y
Encoding: 121 121
Width: 349
Flags: MW
HStem: -156 34<134 178> 482 20<58 157 142.5 159 211 280 280 284>
VStem: 30 60<272.5 335.5> 231 63<-56 -39 -44.5 -28.5 45 455 449 466>
Fore
294 -21 m 0
 294 -104 238 -156 158 -156 c 0
 96 -156 -20 -125 33 -5 c 1
 63 -15 70 -20 87 -43 c 1
 30 -95 112 -122 156 -122 c 0
 200 -122 231 -100 231 -56 c 0
 231 -43 231 -50 231 -39 c 0
 231 -18 207 -9 184 13 c 0
 93 98 30 198 30 347 c 0
 30 398 56 461 56 471 c 0
 56 480 44 483 44 491 c 0
 44 498 50 502 58 502 c 2
 58 502 128 502 157 502 c 0
 161 502 164 499 164 495 c 0
 164 491 161 490 157 488 c 0
 145 481 136 470 127 454 c 0
 103 413 90 365 90 306 c 0
 90 193 136 112 214 19 c 0
 221 11 231 16 231 45 c 2
 231 45 231 443 231 455 c 0
 231 477 224 481 212 488 c 0
 208 490 205 491 205 495 c 0
 205 499 207 502 211 502 c 0
 230 502 280 502 280 502 c 2
 288 502 294 502 294 489 c 0
 294 410 294 -7 294 -21 c 0
EndSplineSet
EndChar
StartChar: z
Encoding: 122 122
Width: 392
Flags: MW
HStem: 0 24<112 116> 488 20<336 345>
Fore
346 494 m 2
 109 29 l 2
 107 26 111 24 113 24 c 0
 119 24 126 22 134 22 c 0
 195 22 254 47 302 79 c 0
 307 83 314 84 316 78 c 0
 323 52 327 39 343 16 c 0
 348 10 346 0 333 0 c 0
 228 0 141 0 51 0 c 0
 34 0 32 4 38 17 c 2
 264 475 l 1
 266 478 268 484 262 483 c 0
 197 476 142 461 107 432 c 0
 101 426 92 427 98 439 c 0
 110 466 112 473 119 495 c 0
 122 504 127 504 132 504 c 0
 209 505 256 506 336 508 c 0
 354 508 349 499 346 494 c 2
EndSplineSet
EndChar
StartChar: braceleft
Encoding: 123 123
Width: 308
Flags: MW
HStem: -174 18<233.5 238> 730 18<233.5 238 238 241>
VStem: 90 64<-78.5 -48 622 652.5> 154 97
Fore
251 -165 m 0
 251 -168 250 -174 238 -174 c 0
 191 -174 106 -174 106 -174 c 1
 102 -172 96 -170 96 -167 c 0
 96 -162 111 -162 111 -152 c 0
 111 -145 90 -133 90 -84 c 0
 90 -2 153 47 153 121 c 0
 153 168 119 234 55 287 c 1
 119 340 153 406 153 453 c 0
 153 527 90 576 90 658 c 0
 90 707 111 719 111 726 c 0
 111 736 96 736 96 741 c 0
 96 744 102 746 106 748 c 1
 106 748 191 748 238 748 c 0
 250 748 251 743 251 740 c 0
 251 733 243 730 239 730 c 0
 228 730 219 729 207 728 c 0
 162 723 154 676 154 629 c 0
 154 615 160 573 161 566 c 0
 168 517 177 493 177 406 c 0
 177 359 173 327 140 287 c 1
 173 247 177 215 177 168 c 0
 177 81 169 58 161 8 c 0
 160 1 154 -41 154 -55 c 0
 154 -102 162 -149 207 -154 c 0
 219 -155 228 -156 239 -156 c 0
 243 -156 251 -158 251 -165 c 0
EndSplineSet
EndChar
StartChar: bar
Encoding: 124 124
Width: 164
Flags: MW
VStem: 35 26<42 49 49 714 590 714>
Fore
61 40 m 0
 61 24 35 13 35 42 c 0
 35 59 35 464 35 716 c 0
 35 734 61 737 61 714 c 0
 61 699 61 58 61 40 c 0
EndSplineSet
EndChar
StartChar: braceright
Encoding: 125 125
Width: 308
Flags: MW
HStem: -174 18<79 86.5 82 86.5> 730 18<82 86.5>
VStem: 143 24<124.5 144.5 429.5 449.5> 167 63
Fore
266 287 m 1
 201 234 167 168 167 121 c 0
 167 47 230 -2 230 -84 c 0
 230 -133 209 -145 209 -152 c 0
 209 -162 224 -162 224 -167 c 0
 224 -170 217 -172 213 -174 c 1
 213 -174 129 -174 82 -174 c 0
 70 -174 69 -168 69 -165 c 0
 69 -158 77 -156 81 -156 c 0
 92 -156 101 -155 113 -154 c 0
 158 -149 166 -102 166 -55 c 0
 166 -41 160 1 159 8 c 0
 151 58 143 81 143 168 c 0
 143 215 147 247 180 287 c 1
 147 327 143 359 143 406 c 0
 143 493 152 517 159 566 c 0
 160 573 166 615 166 629 c 0
 166 676 158 723 113 728 c 0
 101 729 92 730 81 730 c 0
 77 730 69 733 69 740 c 0
 69 743 70 748 82 748 c 0
 129 748 213 748 213 748 c 1
 217 746 224 744 224 741 c 0
 224 736 209 736 209 726 c 0
 209 719 230 707 230 658 c 0
 230 576 167 527 167 453 c 0
 167 406 201 340 266 287 c 1
EndSplineSet
EndChar
StartChar: asciitilde
Encoding: 126 126
Width: 435
Flags: MW
HStem: 324 49<157.5 175.5>
Fore
26 348 m 0
 41 372 53 402 78 402 c 0
 112 402 131 373 165 373 c 0
 186 373 205 384 223 395 c 0
 238 404 235 390 231 383 c 0
 217 358 205 324 175 324 c 0
 140 324 125 353 90 353 c 0
 69 353 57 347 36 334 c 0
 14 320 17 333 26 348 c 0
EndSplineSet
EndChar
StartChar: Aring
Encoding: 129 197
Width: 465
Flags: MW
HStem: -3 20
Fore
217 893 m 0
 245 915 287 911 309 883 c 0
 332 855 326 815 299 793 c 0
 271 770 230 773 207 802 c 0
 185 828 189 870 217 893 c 0
232 870 m 0
 216 855 215 831 230 817 c 1
 245 800 269 799 284 814 c 0
 300 829 302 852 287 868 c 0
 272 884 248 885 232 870 c 0
157 271 m 0
 157 393 68 473 68 607 c 0
 68 689 96 706 96 719 c 0
 96 736 76 735 76 744 c 0
 76 748 83 749 86 750 c 1
 86 750 204 749 279 749 c 0
 346 749 386 750 451 750 c 1
 462 746 480 752 480 740 c 0
 480 729 445 729 445 700 c 0
 445 444 445 299 445 44 c 0
 445 5 475 13 475 3 c 0
 475 0 472 -1 470 -3 c 1
 316 -3 l 1
 314 -1 311 -1 311 3 c 0
 311 17 348 2 348 48 c 0
 348 203 348 293 348 448 c 0
 348 474 345 475 327 480 c 0
 306 486 290 488 266 488 c 0
 233 488 209 485 182 472 c 0
 174 468 174 467 174 454 c 0
 174 373 205 322 205 196 c 0
 205 126 191 63 145 -3 c 1
 22 -3 l 1
 107 81 157 190 157 271 c 0
266 509 m 0
 293 509 309 504 336 498 c 0
 350 495 349 513 342 515 c 0
 315 523 293 528 273 528 c 0
 249 528 211 523 177 508 c 0
 166 503 170 485 186 491 c 0
 219 504 234 509 266 509 c 0
165 559 m 0
 165 537 162 519 182 527 c 0
 217 541 240 546 277 546 c 0
 299 546 312 543 333 537 c 0
 347 533 349 543 349 551 c 0
 349 591 349 638 349 693 c 0
 349 720 342 729 325 729 c 0
 310 729 299 731 282 731 c 0
 266 731 256 730 240 728 c 0
 177 721 165 638 165 559 c 0
EndSplineSet
EndChar
StartChar: Eacute
Encoding: 131 201
Width: 471
Flags: W
Fore
188 45 m 0
 206 37 218 36 238 36 c 0
 308 36 372 86 399 132 c 0
 401 135 404 144 411 138 c 0
 431 121 455 102 468 89 c 0
 473 84 473 75 468 70 c 0
 422 23 366 -15 312 -15 c 0
 246 -15 176 14 111 47 c 0
 94 56 83 64 63 64 c 0
 55 64 50 64 43 62 c 0
 34 60 28 66 40 73 c 0
 54 81 72 97 72 132 c 2
 72 132 72 665 72 683 c 0
 72 719 52 739 38 739 c 0
 34 739 32 741 32 745 c 0
 32 751 35 750 39 752 c 0
 45 755 51 751 58 751 c 0
 244 751 230 756 320 756 c 0
 368 756 416 735 432 701 c 0
 436 693 433 692 429 689 c 0
 407 673 392 648 369 633 c 0
 366 631 361 628 358 637 c 0
 349 664 346 684 324 701 c 0
 304 717 284 718 259 719 c 0
 238 720 210 720 193 719 c 0
 180 718 176 715 176 706 c 0
 176 668 176 602 176 513 c 0
 176 506 176 495 190 495 c 0
 212 495 225 495 253 495 c 0
 290 495 340 520 376 558 c 0
 379 562 382 569 386 566 c 0
 403 551 414 534 430 522 c 0
 433 520 432 516 429 513 c 0
 379 473 346 468 288 468 c 0
 250 468 228 468 191 468 c 0
 176 468 176 460 176 451 c 0
 176 273 176 221 176 76 c 0
 176 64 176 50 188 45 c 0
262 886 m 1
 216 780 l 1
 182 780 l 1
 182 780 191 816 193 839 c 0
 195 857 195 886 195 886 c 1
 262 886 l 1
EndSplineSet
EndChar
StartChar: acircumflex
Encoding: 137 226
Width: 373
Flags: MW
HStem: 0 20<189.5 199 189.5 219>
Fore
252 54 m 0
 252 66 252 311 252 311 c 2
 252 337 218 358 195 358 c 0
 128 358 89 300 89 196 c 0
 89 61 171 20 208 20 c 0
 230 20 252 30 252 54 c 0
174 471 m 0
 128 471 43 444 101 391 c 1
 86 371 79 367 52 357 c 1
 2 472 116 502 176 502 c 0
 269 502 315 452 315 371 c 0
 315 357 315 56 315 44 c 0
 315 20 328 8 337 8 c 0
 340 8 341 7 341 4 c 0
 341 0 338 0 337 0 c 2
 337 0 219 0 179 0 c 0
 101 0 26 75 26 155 c 0
 26 301 75 374 196 374 c 0
 218 374 234 362 238 359 c 0
 242 356 252 344 252 352 c 0
 252 354 252 386 252 406 c 0
 252 451 220 471 174 471 c 0
50 545 m 1
 95 545 l 1
 175 611 l 1
 245 545 l 1
 295 545 l 1
 225 670 l 1
 130 670 l 1
 50 545 l 1
EndSplineSet
EndChar
StartChar: aring
Encoding: 140 229
Width: 373
Flags: MW
HStem: 0 20<189.5 199 189.5 219>
Fore
123 695 m 0
 160 725 216 719 246 682 c 0
 276 645 270 590 233 560 c 0
 196 530 140 535 110 572 c 0
 80 609 86 665 123 695 c 0
143 665 m 0
 122 645 120 613 140 592 c 0
 160 571 192 570 213 590 c 0
 234 610 236 641 216 662 c 0
 196 683 164 685 143 665 c 0
252 54 m 0
 252 66 252 311 252 311 c 2
 252 337 218 358 195 358 c 0
 128 358 89 300 89 196 c 0
 89 61 171 20 208 20 c 0
 230 20 252 30 252 54 c 0
174 471 m 0
 128 471 43 444 101 391 c 1
 86 371 79 367 52 357 c 1
 2 472 116 502 176 502 c 0
 269 502 315 452 315 371 c 0
 315 357 315 56 315 44 c 0
 315 20 328 8 337 8 c 0
 340 8 341 7 341 4 c 0
 341 0 338 0 337 0 c 2
 337 0 219 0 179 0 c 0
 101 0 26 75 26 155 c 0
 26 301 75 374 196 374 c 0
 218 374 234 362 238 359 c 0
 242 356 252 344 252 352 c 0
 252 354 252 386 252 406 c 0
 252 451 220 471 174 471 c 0
EndSplineSet
EndChar
StartChar: ccedilla
Encoding: 141 231
Width: 333
Flags: MW
HStem: 482 20<171 282 261 282>
Fore
222 -50 m 1
 167 -175 l 1
 132 -175 l 1
 157 -50 l 1
 222 -50 l 1
282 502 m 1
 267 474 255 458 234 436 c 1
 231 448 234 456 228 466 c 0
 220 480 212 488 196 488 c 0
 121 488 101 356 101 285 c 0
 101 166 140 12 231 12 c 0
 253 12 266 14 286 25 c 1
 268 4 250 -7 222 -7 c 0
 200 -7 150 19 117 54 c 0
 68 106 37 198 37 289 c 0
 37 406 121 502 171 502 c 0
 213 502 240 502 282 502 c 1
EndSplineSet
EndChar
StartChar: ecircumflex
Encoding: 144 234
Width: 388
Flags: MW
HStem: -7 20
Fore
190 490 m 0
 115 490 97 358 97 309 c 0
 97 304 108 294 116 296 c 0
 168 309 261 368 262 404 c 0
 263 447 242 490 190 490 c 0
328 418 m 0
 323 359 254 335 204 304 c 0
 165 280 94 271 100 228 c 0
 114 125 151 20 239 15 c 0
 285 12 332 38 350 55 c 1
 332 16 272 -7 230 -7 c 0
 86 -7 31 138 31 289 c 0
 31 406 115 502 168 502 c 0
 210 502 201 502 236 502 c 0
 269 502 332 468 328 418 c 0
70 530 m 1
 115 530 l 1
 195 596 l 1
 265 530 l 1
 315 530 l 1
 245 655 l 1
 150 655 l 1
 70 530 l 1
EndSplineSet
EndChar
StartChar: icircumflex
Encoding: 148 238
Width: 167
Flags: MW
HStem: 0 20
Fore
93 44 m 2
 93 20 106 8 115 8 c 0
 118 8 119 7 119 4 c 0
 119 0 116 0 115 0 c 2
 14 0 l 2
 13 1 10 0 10 4 c 0
 10 7 11 8 14 8 c 0
 23 8 36 20 36 44 c 0
 36 56 36 443 36 457 c 0
 36 498 23 493 13 493 c 0
 11 493 9 495 9 497 c 0
 9 501 13 501 14 502 c 2
 82 502 l 2
 88 502 93 502 93 492 c 0
 93 488 93 44 93 44 c 2
-55 545 m 1
 -10 545 l 1
 70 611 l 1
 140 545 l 1
 190 545 l 1
 120 670 l 1
 25 670 l 1
 -55 545 l 1
EndSplineSet
EndChar
StartChar: ocircumflex
Encoding: 153 244
Width: 377
Flags: W
Fore
81 304 m 0
 81 189 105 59 192 31 c 0
 247 13 268 139 268 218 c 0
 268 326 234 431 162 458 c 0
 93 484 81 372 81 304 c 0
25 259 m 0
 25 365 61 453 145 505 c 0
 167 519 190 516 213 502 c 0
 278 464 313 380 313 288 c 0
 313 230 314 61 200 0 c 0
 178 -12 163 -18 142 -5 c 0
 51 50 25 147 25 259 c 0
50 540 m 1
 95 540 l 1
 175 606 l 1
 245 540 l 1
 295 540 l 1
 225 665 l 1
 130 665 l 1
 50 540 l 1
EndSplineSet
EndChar
StartChar: ucircumflex
Encoding: 158 251
Width: 373
Flags: MW
HStem: 0 20
Fore
321 7 m 0
 321 2 315 1 314 0 c 2
 220 0 l 2
 205 0 197 4 184 16 c 0
 93 101 30 198 30 347 c 0
 30 398 56 461 56 471 c 0
 56 480 44 483 44 491 c 0
 44 498 50 502 58 502 c 2
 157 502 l 2
 158 501 164 500 164 495 c 0
 164 490 161 488 157 488 c 0
 150 488 141 468 127 451 c 1
 120 439 90 365 90 306 c 0
 90 193 136 114 214 21 c 0
 221 13 231 18 231 47 c 2
 231 47 231 443 231 455 c 0
 231 477 220 488 212 488 c 0
 207 488 205 490 205 495 c 0
 205 501 209 501 211 502 c 2
 280 502 l 2
 288 502 294 502 294 489 c 0
 294 410 294 61 294 47 c 0
 294 10 305 14 314 14 c 0
 318 14 321 11 321 7 c 0
50 545 m 1
 95 545 l 1
 175 611 l 1
 245 545 l 1
 295 545 l 1
 225 670 l 1
 130 670 l 1
 50 545 l 1
EndSplineSet
EndChar
StartChar: dagger
Encoding: 160 8224
Width: 355
Flags: MW
HStem: 614 44 733 20<138 196 196 196>
VStem: 145 62
Fore
292 607 m 1
 292 607 219 613 189 614 c 1
 191 582 207 459 207 372 c 0
 207 282 188 108 187 -5 c 0
 187 -13 176 -23 167 -23 c 0
 158 -23 147 -13 147 -5 c 0
 145 106 127 282 127 372 c 0
 127 459 143 581 145 614 c 1
 116 612 42 607 42 607 c 1
 42 665 l 1
 42 665 117 659 145 658 c 1
 145 686 143 719 138 753 c 1
 196 753 l 1
 191 719 189 685 189 658 c 1
 218 658 292 665 292 665 c 1
 292 607 l 1
EndSplineSet
EndChar
StartChar: degree
Encoding: 161 176
Width: 343
Flags: MW
HStem: 744 20
Fore
-2 745 m 0
 35 775 91 769 121 732 c 0
 151 695 145 640 108 610 c 0
 71 580 15 585 -15 622 c 0
 -45 659 -39 715 -2 745 c 0
18 715 m 0
 -3 695 -5 663 15 642 c 0
 35 621 67 620 88 640 c 0
 109 660 111 691 91 712 c 0
 71 733 39 735 18 715 c 0
EndSplineSet
EndChar
StartChar: cent
Encoding: 162 162
Width: 426
Flags: MW
VStem: 57 70 225 34<78 79.5 79.5 114 212 626 565.5 626>
Fore
391 122 m 1
 362 108 350 105 328 103 c 0
 305 101 270 111 259 114 c 1
 258 99 259 85 259 74 c 0
 259 32 225 33 225 78 c 0
 225 99 226 111 225 132 c 1
 153 174 55 297 57 446 c 0
 58 551 114 642 209 673 c 0
 220 676 225 681 225 694 c 0
 225 705 225 718 225 726 c 0
 225 748 255 747 255 726 c 0
 255 711 257 697 259 679 c 1
 281 675 293 672 313 663 c 0
 340 652 352 640 381 624 c 1
 373 604 367 593 356 578 c 0
 343 560 330 554 314 540 c 1
 309 543 l 1
 312 549 315 553 313 559 c 0
 302 594 293 621 263 635 c 0
 259 637 259 629 259 626 c 0
 259 482 259 195 259 166 c 1
 290 147 310 136 347 127 c 0
 360 124 368 125 391 122 c 1
225 212 m 0
 225 359 225 503 225 628 c 0
 225 634 220 641 214 641 c 0
 158 641 127 530 127 448 c 0
 127 332 194 205 216 205 c 0
 220 205 225 208 225 212 c 0
EndSplineSet
EndChar
StartChar: sterling
Encoding: 163 163
Width: 435
Flags: MW
HStem: -8 24<60 63> 719 34<232 276>
VStem: 46 263
Fore
428 69 m 0
 433 61 429 53 423 47 c 0
 387 10 327 -3 309 -3 c 2
 309 -3 129 -3 82 -3 c 0
 75 -3 68 -8 63 -8 c 0
 57 -8 46 -1 46 4 c 0
 46 15 56 16 62 16 c 0
 64 16 68 12 71 13 c 0
 88 16 96 52 104 78 c 0
 135 175 109 260 88 350 c 1
 72 350 57 343 38 331 c 0
 8 313 11 330 23 350 c 0
 39 375 50 403 77 405 c 1
 66 474 61 547 88 634 c 0
 116 727 209 753 252 753 c 0
 314 753 430 722 378 602 c 1
 347 612 340 617 324 640 c 1
 380 692 298 719 254 719 c 0
 210 719 193 692 179 653 c 0
 140 547 152 460 170 376 c 1
 188 378 206 387 221 398 c 1
 242 410 239 391 234 382 c 0
 221 358 208 327 182 322 c 1
 200 239 217 155 184 55 c 0
 180 43 195 36 214 36 c 0
 250 36 280 31 324 62 c 0
 344 77 350 107 349 131 c 1
 385 115 409 96 428 69 c 0
EndSplineSet
EndChar
StartChar: section
Encoding: 164 167
Width: 350
Flags: MW
HStem: -72 18<154 164.5> 734 18<166 177>
VStem: 54 44<-36 -27> 232 44<708 717>
Fore
289 744 m 0
 292 737 269 737 276 717 c 1
 276 699 269 691 254 691 c 0
 240 691 232 692 232 712 c 0
 232 727 221 733 211 733 c 0
 201 733 183 734 171 734 c 0
 161 734 154 733 144 732 c 0
 107 728 120 675 138 625 c 0
 152 585 163 569 169 556 c 0
 196 502 211 476 246 383 c 0
 265 331 301 242 180 154 c 1
 211 116 241 76 260 25 c 0
 279 -28 266 -39 269 -48 c 0
 273 -59 286 -58 288 -65 c 0
 289 -68 284 -72 279 -72 c 2
 279 -72 210 -72 166 -72 c 0
 127 -72 107 -72 64 -72 c 1
 55 -70 45 -73 41 -63 c 0
 38 -57 61 -56 54 -36 c 1
 54 -18 61 -11 76 -11 c 0
 90 -11 98 -12 98 -32 c 0
 98 -47 109 -53 119 -53 c 0
 129 -53 148 -54 160 -54 c 0
 169 -54 176 -53 186 -52 c 0
 224 -47 210 6 192 55 c 0
 177 95 168 111 161 125 c 0
 135 179 119 204 84 297 c 0
 65 349 29 438 150 526 c 1
 119 564 88 604 70 655 c 0
 50 709 64 720 61 728 c 0
 58 739 44 738 42 745 c 0
 41 748 48 752 51 752 c 2
 51 752 120 752 164 752 c 0
 204 752 222 752 265 752 c 1
 274 750 285 753 289 744 c 0
206 433 m 0
 199 449 192 464 183 478 c 1
 112 425 104 298 124 248 c 0
 131 231 139 217 146 201 c 1
 218 256 226 382 206 433 c 0
EndSplineSet
EndChar
StartChar: bullet
Encoding: 165 8226
Width: 422
Flags: W
Fore
106 429 m 0
 154 480 234 480 284 433 c 0
 335 385 337 306 289 256 c 0
 242 206 160 204 110 251 c 0
 59 299 59 379 106 429 c 0
EndSplineSet
EndChar
StartChar: paragraph
Encoding: 166 182
Width: 582
Flags: MW
HStem: -3 19<501.5 507> 232 35<185 192.5> 726 27<369.5 381.5 510.5 519.5>
VStem: 23 77<502 563.5> 273 69<67 683 641 683> 408 69<67 683 609 683>
Fore
539 738 m 0
 539 718 522 726 517 726 c 0
 504 726 477 717 477 683 c 0
 477 665 477 67 477 67 c 2
 477 21 495 16 508 16 c 0
 514 16 517 13 517 7 c 0
 517 -2 511 -3 507 -3 c 2
 65 -3 l 2
 61 -3 55 1 55 9 c 0
 55 14 52 26 78 26 c 0
 97 26 79 20 121 20 c 0
 145 20 200 20 253 20 c 0
 276 20 273 54 273 67 c 0
 273 87 273 567 273 715 c 0
 273 720 270 726 263 728 c 0
 253 731 249 730 239 730 c 0
 139 730 100 613 100 514 c 0
 100 431 117 346 147 302 c 0
 159 285 180 267 190 267 c 0
 195 267 196 269 201 271 c 0
 210 275 212 287 222 287 c 0
 238 287 247 277 247 263 c 0
 247 243 224 232 208 232 c 0
 133 232 23 425 23 579 c 0
 23 656 53 753 119 753 c 2
 119 753 370 753 525 753 c 0
 531 753 539 753 539 738 c 0
408 67 m 0
 409 87 408 535 408 683 c 0
 408 716 387 726 376 726 c 0
 363 726 342 716 342 683 c 0
 342 665 342 67 342 67 c 2
 342 21 365 20 378 20 c 0
 396 20 406 21 408 67 c 0
EndSplineSet
EndChar
StartChar: germandbls
Encoding: 167 223
Width: 458
Flags: MW
HStem: -2 13<13 13> 298 64<265 285.5> 736 17<133 192>
VStem: 33 63<44 684 684 687> 127 24 368 34<123 196>
Fore
423 610 m 0
 423 477 323 445 227 488 c 0
 185 507 151 445 151 400 c 0
 151 364 180 341 191 326 c 0
 193 323 204 324 206 327 c 0
 223 347 249 362 281 362 c 0
 362 362 402 287 402 210 c 0
 402 36 308 -12 251 -12 c 0
 218 -12 157 18 130 60 c 0
 126 67 130 72 136 75 c 0
 157 82 168 92 182 101 c 0
 187 105 191 104 194 95 c 0
 209 54 253 31 281 31 c 0
 321 31 368 79 368 157 c 0
 368 235 326 298 245 298 c 0
 233 298 226 296 215 289 c 0
 210 287 207 289 203 290 c 1
 170 308 129 349 127 404 c 0
 124 476 208 551 259 535 c 0
 333 511 329 591 307 649 c 0
 282 716 239 736 145 736 c 0
 121 736 96 712 96 687 c 0
 96 684 96 44 96 44 c 2
 96 22 107 11 115 11 c 0
 120 11 122 9 122 4 c 0
 122 -3 117 -3 115 -3 c 2
 13 -2 l 2
 11 -1 7 -2 7 4 c 0
 7 9 9 11 14 11 c 0
 22 11 33 22 33 44 c 0
 33 53 33 684 33 684 c 2
 33 723 58 753 106 753 c 0
 172 753 164 753 227 753 c 0
 305 753 423 689 423 610 c 0
EndSplineSet
EndChar
StartChar: registered
Encoding: 168 174
Width: 545
Flags: MW
HStem: 125 40<183 297> 595 10<216 226 220 252> 680 40<183 297>
VStem: -3 37<351 493> 160 42<264 519 558 572 567.5 573.5 573.5 581> 308 51<254 277> 446 37<351 493>
Fore
304 605 m 2
 319 605 342 588 342 570 c 0
 342 535 287 485 253 459 c 0
 250 457 251 453 252 450 c 0
 261 433 272 426 284 409 c 0
 323 355 359 305 359 256 c 0
 359 246 358 240 356 230 c 1
 302 230 l 1
 306 242 308 248 308 260 c 0
 308 294 300 316 287 349 c 0
 278 372 269 383 258 404 c 0
 236 448 229 462 208 519 c 0
 207 522 202 531 202 519 c 0
 202 413 202 249 202 241 c 0
 202 230 198 230 194 230 c 2
 144 230 l 2
 143 231 140 231 140 234 c 0
 140 236 141 237 143 237 c 0
 150 237 160 239 160 264 c 2
 160 264 160 563 160 572 c 0
 160 590 150 599 143 599 c 0
 141 599 140 600 140 602 c 0
 140 605 142 605 144 605 c 2
 304 605 l 2
220 595 m 0
 212 595 202 595 202 587 c 0
 202 582 202 577 202 570 c 0
 202 546 221 507 238 470 c 0
 243 460 249 466 253 470 c 0
 283 500 295 542 295 556 c 0
 295 578 275 595 252 595 c 0
 240 595 232 595 220 595 c 0
240 680 m 0
 126 680 34 564 34 422 c 0
 34 280 126 165 240 165 c 0
 354 165 446 280 446 422 c 0
 446 564 354 680 240 680 c 0
240 720 m 0
 371 720 483 586 483 422 c 0
 483 258 371 125 240 125 c 0
 109 125 -3 258 -3 422 c 0
 -3 586 109 720 240 720 c 0
EndSplineSet
EndChar
StartChar: copyright
Encoding: 169 169
Width: 230
Flags: MW
HStem: 125 40<183 297> 230 14<247 265.5> 680 40<183 297>
VStem: -3 37<351 493> 121 44<417 474.5> 446 37<351 493>
Fore
300 610 m 1
 289 589 280 577 264 561 c 1
 262 570 264 575 259 583 c 0
 254 593 247 601 236 601 c 0
 180 601 165 501 165 448 c 0
 165 359 194 244 261 244 c 0
 278 244 288 246 303 254 c 1
 289 238 276 230 255 230 c 0
 239 230 204 249 179 275 c 0
 142 314 121 383 121 451 c 0
 121 538 182 610 219 610 c 0
 251 610 268 610 300 610 c 1
240 680 m 0
 126 680 34 564 34 422 c 0
 34 280 126 165 240 165 c 0
 354 165 446 280 446 422 c 0
 446 564 354 680 240 680 c 0
240 720 m 0
 371 720 483 586 483 422 c 0
 483 258 371 125 240 125 c 0
 109 125 -3 258 -3 422 c 0
 -3 586 109 720 240 720 c 0
EndSplineSet
EndChar
StartChar: trademark
Encoding: 170 8482
Width: 570
Flags: MW
HStem: 726 16
VStem: 118 42<404 408.5 408.5 712 658 712> 259 41 379 34 431 62
Fore
110 726 m 0
 105 726 101 726 95 723 c 1
 74 719 60 709 45 697 c 1
 44 694 36 696 39 701 c 0
 45 715 49 724 54 736 c 0
 56 740 60 744 64 744 c 0
 89 744 111 742 141 742 c 0
 171 742 190 744 217 744 c 0
 221 744 225 745 227 739 c 0
 232 726 233 722 240 710 c 0
 245 703 246 700 235 705 c 1
 219 717 206 720 187 723 c 1
 179 726 174 726 167 726 c 0
 160 726 160 718 160 712 c 0
 160 653 160 413 160 404 c 0
 160 372 170 377 177 377 c 0
 179 377 180 376 180 374 c 0
 180 371 178 370 177 369 c 2
 102 369 l 2
 101 370 98 371 98 374 c 0
 98 376 99 377 101 377 c 0
 108 377 118 378 118 404 c 2
 118 404 118 604 118 712 c 0
 118 717 117 726 110 726 c 0
444 671 m 0
 430 626 413 585 396 532 c 0
 392 521 391 517 396 502 c 0
 406 471 413 449 413 414 c 0
 413 398 410 387 405 369 c 1
 355 369 l 1
 370 393 379 419 379 453 c 0
 379 495 350 575 309 685 c 0
 302 703 300 693 300 685 c 2
 300 416 l 2
 300 404 301 393 311 384 c 0
 316 380 324 380 324 373 c 0
 324 369 318 369 314 369 c 2
 268 369 l 2
 264 369 259 369 259 374 c 0
 259 381 269 378 273 382 c 0
 281 391 284 397 284 408 c 2
 284 696 l 2
 284 713 281 728 267 737 c 1
 265 740 262 740 261 741 c 0
 260 745 267 744 271 744 c 2
 309 744 l 2
 314 744 324 746 322 741 c 0
 321 739 318 740 315 736 c 1
 311 733 310 728 309 720 c 0
 308 712 312 706 315 696 c 0
 337 641 358 600 376 553 c 0
 382 539 386 545 389 552 c 0
 415 615 417 637 437 694 c 0
 441 707 443 719 443 726 c 0
 443 731 441 739 434 739 c 0
 432 739 431 740 431 742 c 0
 431 745 434 743 435 744 c 2
 510 744 l 2
 511 743 513 745 513 742 c 0
 513 740 512 739 510 739 c 0
 503 739 493 735 493 712 c 2
 493 712 493 413 493 404 c 0
 493 386 503 377 510 377 c 0
 512 377 513 376 513 374 c 0
 513 371 511 370 510 369 c 2
 455 369 l 2
 451 369 446 368 446 377 c 0
 446 381 451 387 451 392 c 0
 451 464 451 671 451 671 c 2
 451 690 445 675 444 671 c 0
EndSplineSet
EndChar
StartChar: acute
Encoding: 171 180
Width: 234
Flags: MW
HStem: 625 125<72 97>
Fore
152 750 m 1
 97 625 l 1
 57 625 l 1
 57 625 67 667 70 695 c 0
 72 716 72 750 72 750 c 1
 152 750 l 1
EndSplineSet
EndChar
StartChar: dieresis
Encoding: 172 168
Width: 544
Flags: MW
HStem: 591 78<135.5 154.5 295.5 314.5>
VStem: 116 58<620.5 639.5> 276 58<620.5 639.5>
Fore
116 630 m 0
 116 649 126 669 145 669 c 0
 164 669 174 649 174 630 c 0
 174 611 164 591 145 591 c 0
 126 591 116 611 116 630 c 0
276 630 m 0
 276 649 286 669 305 669 c 0
 324 669 334 649 334 630 c 0
 334 611 324 591 305 591 c 0
 286 591 276 611 276 630 c 0
EndSplineSet
EndChar
StartChar: notequal
Encoding: 173 8800
Width: 331
Flags: MW
HStem: 273 28 363 28<167 167.5 167 169>
VStem: 92 152<267 307 357 397>
Fore
169 363 m 1
 168 363 168 363 167 363 c 0
 138 363 121 362 92 357 c 1
 92 397 l 1
 121 392 138 391 167 391 c 0
 182 391 l 1
 190 408 199 426 208 447 c 0
 214 461 245 463 237 445 c 0
 235 441 225 420 212 393 c 1
 222 394 232 395 244 397 c 1
 244 357 l 1
 226 360 213 362 198 362 c 1
 188 342 178 321 169 301 c 1
 198 301 215 302 244 307 c 1
 244 267 l 1
 214 272 197 273 167 273 c 0
 163 273 159 273 156 273 c 1
 146 252 138 237 136 232 c 0
 131 220 97 212 107 234 c 0
 112 244 104 227 125 271 c 1
 115 271 105 269 92 267 c 1
 92 307 l 1
 111 304 124 302 139 301 c 1
 147 317 157 337 169 363 c 1
EndSplineSet
EndChar
StartChar: AE
Encoding: 174 198
Width: 550
Flags: MW
HStem: -18 48 471 27<328 343 329 375 375 388.5> 525 24<187 205> 729 23
VStem: 46 16 113 25<231 263.5> 254 67<48 448 370.5 460 551 693 665.5 700>
Fore
539 68 m 1
 504 20 461 -18 420 -18 c 0
 399 -18 355 -4 338 -6 c 1
 230 -5 l 1
 227 -2 224 -2 224 3 c 0
 224 17 254 2 254 48 c 0
 254 203 254 293 254 448 c 0
 254 472 252 473 239 477 c 0
 222 483 210 485 191 485 c 0
 166 485 145 482 125 469 c 0
 120 466 120 465 120 454 c 0
 120 373 138 334 138 193 c 0
 138 113 132 61 95 -5 c 1
 6 -6 l 1
 77 82 113 191 113 271 c 0
 113 393 46 473 46 607 c 0
 46 689 68 706 68 719 c 0
 68 736 52 735 52 744 c 0
 52 749 59 751 62 753 c 1
 62 753 148 752 201 752 c 0
 249 752 271 751 323 753 c 0
 401 755 368 759 426 759 c 0
 463 759 500 737 513 702 c 0
 517 692 513 691 509 687 c 0
 493 671 484 661 467 646 c 1
 462 643 458 638 453 651 c 1
 447 678 444 694 427 711 c 0
 412 726 398 727 380 728 c 0
 367 729 352 729 340 729 c 1
 332 723 321 718 321 700 c 0
 321 626 321 562 321 501 c 1
 323 499 325 498 328 498 c 0
 345 498 354 498 375 498 c 0
 402 498 440 517 467 554 c 1
 470 560 475 566 479 562 c 0
 492 547 498 542 510 530 c 0
 513 527 514 521 509 517 c 1
 471 476 446 471 402 471 c 0
 373 471 357 471 329 471 c 0
 326 471 323 470 321 469 c 1
 321 334 321 213 321 48 c 0
 322 44 325 40 328 39 c 0
 340 31 350 30 364 30 c 0
 416 30 469 79 489 124 c 0
 491 128 494 140 503 131 c 0
 518 114 529 104 539 91 c 1
 542 85 542 74 539 68 c 1
254 551 m 0
 254 591 254 638 254 693 c 0
 254 717 251 726 238 726 c 0
 226 726 217 728 204 728 c 0
 191 728 183 727 170 725 c 0
 121 718 113 636 113 559 c 0
 113 540 109 523 123 530 c 0
 151 544 169 549 200 549 c 0
 217 549 229 546 246 540 c 0
 254 537 254 545 254 551 c 0
251 512 m 0
 229 520 213 525 197 525 c 0
 177 525 148 520 121 505 c 0
 115 502 117 490 126 494 c 0
 152 507 164 512 191 512 c 0
 213 512 225 507 248 501 c 0
 255 499 254 511 251 512 c 0
EndSplineSet
EndChar
StartChar: Oslash
Encoding: 175 216
Width: 496
Flags: MW
VStem: 39 80<417.5 466> 401 64
Fore
465 430 m 0
 465 342 471 89 299 -3 c 0
 265 -21 243 -31 210 -11 c 0
 168 14 136 46 110 82 c 1
 90 42 76 15 74 11 c 0
 67 -5 18 -13 32 16 c 0
 35 21 56 61 87 123 c 1
 51 197 39 288 39 386 c 0
 39 546 89 679 214 757 c 0
 249 779 283 773 319 753 c 0
 344 739 365 720 382 699 c 1
 394 722 407 744 417 766 c 0
 426 785 469 785 458 762 c 0
 456 758 436 721 408 665 c 1
 446 601 465 518 465 430 c 0
332 601 m 1
 309 640 278 667 241 681 c 0
 140 719 119 553 119 454 c 0
 119 381 126 304 145 236 c 1
 201 344 268 478 332 601 c 1
401 326 m 0
 401 411 386 494 355 561 c 1
 294 443 219 296 162 183 c 1
 187 118 228 68 287 49 c 0
 368 22 401 209 401 326 c 0
EndSplineSet
EndChar
StartChar: infinity
Encoding: 176 8734
Width: 816
Flags: W
Fore
418 200 m 1
 377 262 347 329 280 328 c 0
 220 327 160 286 160 231 c 0
 160 176 214 112 280 112 c 0
 349 112 388 151 418 200 c 1
473 263 m 1
 514 201 541 134 608 134 c 0
 668 134 728 176 728 231 c 0
 728 286 674 350 608 350 c 0
 542 350 504 311 473 263 c 1
464 278 m 1
 494 329 528 371 592 371 c 0
 705 370 760 299 760 231 c 0
 760 156 704 92 592 92 c 0
 509 92 463 136 428 186 c 1
 396 135 360 93 296 92 c 0
 183 92 129 156 129 231 c 0
 129 299 182 370 296 371 c 0
 383 371 429 328 464 278 c 1
EndSplineSet
EndChar
StartChar: plusminus
Encoding: 177 177
Width: 355
Flags: MW
HStem: 273 28 352 30<182 193>
VStem: 92 90<382 388 388 388>
Fore
147 301 m 1
 150 320 151 334 152 352 c 1
 131 351 92 346 92 346 c 1
 92 388 l 1
 92 388 131 383 152 382 c 1
 152 404 150 419 146 444 c 1
 188 444 l 1
 184 419 182 404 182 382 c 1
 204 382 244 388 244 388 c 1
 244 346 l 1
 244 346 204 352 182 352 c 1
 183 334 184 320 186 301 c 1
 206 302 221 303 244 307 c 1
 244 267 l 1
 214 272 197 273 167 273 c 0
 138 273 121 272 92 267 c 1
 92 307 l 1
 114 303 129 302 147 301 c 1
EndSplineSet
EndChar
StartChar: lessequal
Encoding: 178 8804
Width: 420
Flags: W
Fore
261 466 m 0
 240 426 185 402 128 379 c 0
 116 375 97 369 97 369 c 1
 103 365 126 359 133 356 c 0
 183 335 206 321 234 290 c 0
 253 270 255 249 260 230 c 0
 260 226 256 223 250 223 c 0
 214 218 240 221 204 217 c 1
 208 227 209 245 207 271 c 0
 204 307 168 326 128 348 c 0
 110 357 95 360 72 371 c 1
 72 371 109 382 126 389 c 0
 145 397 195 432 211 459 c 0
 222 477 212 486 208 496 c 1
 226 494 238 493 255 490 c 0
 261 489 271 485 261 466 c 0
72 186 m 1
 72 146 l 1
 108 151 129 152 164 152 c 0
 201 152 222 151 260 146 c 1
 260 186 l 1
 222 182 201 181 164 181 c 0
 129 181 108 182 72 186 c 1
EndSplineSet
EndChar
StartChar: greaterequal
Encoding: 179 8805
Width: 420
Flags: W
Fore
73 466 m 0
 94 426 149 402 206 379 c 0
 218 375 237 369 237 369 c 1
 231 365 208 359 201 356 c 0
 151 335 128 321 100 290 c 0
 81 270 79 249 74 230 c 0
 74 226 78 223 84 223 c 0
 120 218 94 221 130 217 c 1
 126 227 125 245 127 271 c 0
 130 307 166 326 206 348 c 0
 224 357 239 360 262 371 c 1
 262 371 225 382 208 389 c 0
 189 397 139 432 123 459 c 0
 112 477 122 486 126 496 c 1
 108 494 96 493 79 490 c 0
 73 489 63 485 73 466 c 0
262 186 m 1
 262 146 l 1
 226 151 205 152 170 152 c 0
 133 152 112 151 74 146 c 1
 74 186 l 1
 112 182 133 181 170 181 c 0
 205 181 226 182 262 186 c 1
EndSplineSet
EndChar
StartChar: yen
Encoding: 180 165
Width: 594
Flags: MW
HStem: -6 20
Fore
190 463 m 1
 210 425 238 389 274 351 c 0
 296 328 302 365 308 380 c 1
 339 464 l 1
 324 464 308 464 291 464 c 0
 253 464 221 464 190 463 c 1
156 584 m 1
 158 553 165 524 175 497 c 1
 210 496 247 496 291 496 c 0
 313 496 333 496 352 496 c 1
 385 585 l 1
 356 586 326 586 291 586 c 0
 239 586 197 586 156 584 c 1
13 625 m 1
 40 624 63 623 86 622 c 1
 75 661 69 697 69 734 c 0
 69 744 76 750 83 750 c 2
 205 750 l 2
 210 750 214 747 214 742 c 0
 214 738 209 735 205 735 c 0
 198 735 195 737 188 737 c 0
 172 737 154 669 154 623 c 2
 154 620 l 1
 196 618 238 618 291 618 c 0
 331 618 365 618 398 619 c 1
 401 628 l 2
 413 660 414 662 413 685 c 0
 412 698 412 707 406 718 c 0
 399 731 381 736 381 742 c 0
 381 745 386 748 390 749 c 2
 554 749 l 2
 558 749 563 742 563 742 c 1
 563 734 545 734 536 726 c 0
 526 717 522 710 516 696 c 2
 485 621 l 1
 514 622 543 623 578 625 c 1
 578 579 l 1
 537 581 503 582 470 583 c 1
 435 498 l 1
 479 499 522 501 578 503 c 1
 578 457 l 1
 516 460 469 462 421 463 c 1
 265 81 l 2
 262 74 255 54 256 36 c 0
 257 24 263 14 263 5 c 0
 263 0 255 -1 249 -1 c 2
 132 -1 l 2
 121 -1 113 -6 103 -6 c 0
 99 -6 95 -4 93 0 c 0
 90 7 99 11 106 11 c 0
 117 11 128 13 139 20 c 0
 150 27 170 47 175 58 c 2
 275 298 l 2
 279 307 275 316 269 324 c 0
 235 365 193 408 157 463 c 1
 113 461 69 460 13 457 c 1
 13 503 l 1
 60 501 98 499 135 498 c 1
 124 518 114 540 105 563 c 0
 103 570 100 576 98 583 c 1
 72 582 44 580 13 579 c 1
 13 625 l 1
EndSplineSet
EndChar
StartChar: mu
Encoding: 181 181
Width: 375
Flags: MW
HStem: -252 13<15 15> -5 15 488 15<15 19.5>
VStem: 35 63<-206 58 256 455 448 473.5> 253 63<61 456 450 456>
Fore
343 3 m 0
 343 -2 337 -3 336 -4 c 2
 267 -5 l 2
 259 -5 253 -5 253 8 c 0
 253 12 253 18 253 20 c 0
 253 27 247 13 244 11 c 0
 240 7 223 -5 200 -5 c 0
 157 -5 123 20 98 58 c 1
 98 -84 98 -206 98 -206 c 2
 98 -228 109 -239 117 -239 c 0
 122 -239 124 -241 124 -246 c 0
 124 -253 119 -253 117 -253 c 2
 15 -252 l 2
 13 -251 9 -252 9 -246 c 0
 9 -241 11 -239 16 -239 c 0
 24 -239 35 -228 35 -206 c 0
 35 -194 35 441 35 455 c 0
 35 492 24 488 15 488 c 0
 11 488 8 491 8 495 c 0
 8 500 14 502 15 503 c 2
 84 503 l 2
 92 503 98 503 98 490 c 0
 98 488 93 384 98 256 c 0
 102 148 142 15 199 15 c 0
 221 15 253 36 253 61 c 2
 253 61 253 444 253 456 c 0
 253 478 242 489 234 489 c 0
 229 489 227 491 227 496 c 0
 227 503 232 503 234 503 c 2
 336 503 l 2
 338 502 342 502 342 496 c 0
 342 491 340 489 335 489 c 0
 327 489 316 478 316 456 c 0
 316 444 316 57 316 43 c 0
 316 6 327 10 336 10 c 0
 340 10 343 7 343 3 c 0
EndSplineSet
EndChar
StartChar: partialdiff
Encoding: 182 8706
Width: 356
Flags: MW
HStem: -3 24 485 20<162.5 198> 717 36<41.5 100>
VStem: 29 63<130 236> 249 63<171 189 189 242 242 285>
Fore
312 183 m 0
 312 42 257 -4 226 -4 c 0
 190 -4 179 -3 179 -3 c 2
 99 -1 29 73 29 155 c 0
 29 317 74 505 196 505 c 0
 207 505 207 500 207 494 c 0
 207 488 201 485 195 485 c 0
 130 485 92 309 92 196 c 0
 92 64 171 21 196 21 c 0
 226 21 249 51 249 171 c 2
 249 242 l 2
 249 540 152 717 48 717 c 0
 34 717 24 720 24 734 c 0
 24 750 32 753 51 753 c 0
 184 753 312 558 312 285 c 2
 312 285 312 195 312 183 c 0
EndSplineSet
EndChar
StartChar: summation
Encoding: 183 8721
Width: 471
Flags: MW
HStem: -18 48 736 18
Fore
451 702 m 0
 456 692 452 691 447 687 c 0
 425 671 413 662 390 646 c 0
 385 643 378 638 374 651 c 0
 365 677 361 694 338 711 c 0
 318 725 299 727 275 728 c 0
 254 729 190 729 173 728 c 0
 163 727 159 725 159 719 c 1
 348 441 l 1
 159 67 l 1
 159 56 158 43 169 39 c 0
 187 31 198 30 218 30 c 0
 287 30 359 79 385 125 c 0
 387 129 393 139 402 131 c 0
 422 114 437 104 450 91 c 0
 456 85 456 74 450 68 c 0
 404 20 347 -18 292 -18 c 0
 226 -18 175 11 110 44 c 0
 93 53 82 61 63 61 c 0
 55 61 51 61 44 59 c 0
 30 56 20 65 38 76 c 0
 51 83 81 98 108 151 c 2
 254 435 l 1
 84 682 l 1
 70 713 51 736 38 736 c 0
 32 736 29 739 29 745 c 0
 29 753 32 752 38 755 c 0
 44 758 51 754 58 754 c 0
 244 754 246 759 336 759 c 0
 385 759 434 737 451 702 c 0
EndSplineSet
EndChar
StartChar: product
Encoding: 184 8719
Width: 824
Flags: MW
HStem: -2 18<170 176.5 315.5 322 170 170 500 506.5 645.5 652 500 500> 716 33<415 415>
VStem: 201 90<67 77.5 77.5 683 575 683> 531 90<67 77.5 77.5 683 575 683>
Fore
781 684 m 0
 793 664 796 650 766 669 c 0
 734 689 709 697 670 705 c 0
 656 708 645 711 632 711 c 0
 619 711 621 696 621 683 c 0
 621 565 621 88 621 67 c 0
 621 10 639 16 652 16 c 0
 658 16 661 13 661 7 c 0
 661 0 655 0 652 -2 c 1
 500 -2 l 1
 497 0 491 0 491 7 c 0
 491 13 494 16 500 16 c 0
 513 16 531 21 531 67 c 2
 531 67 531 467 531 683 c 0
 531 695 529 710 518 711 c 0
 478 714 415 716 415 716 c 1
 371 714 315 713 302 711 c 0
 289 709 291 696 291 683 c 0
 291 565 291 88 291 67 c 0
 291 10 309 16 322 16 c 0
 328 16 331 13 331 7 c 0
 331 0 325 0 322 -2 c 1
 170 -2 l 1
 167 0 161 0 161 7 c 0
 161 13 164 16 170 16 c 0
 183 16 201 21 201 67 c 2
 201 67 201 467 201 683 c 0
 201 695 200 711 188 711 c 0
 177 711 170 708 159 705 c 0
 116 694 89 677 60 651 c 0
 56 647 35 648 43 665 c 0
 55 690 63 711 73 735 c 0
 77 744 86 753 96 753 c 0
 146 753 291 749 415 749 c 0
 539 749 678 753 732 753 c 0
 741 753 750 755 755 741 c 0
 764 715 766 707 781 684 c 0
EndSplineSet
EndChar
StartChar: pi
Encoding: 185 960
Width: 668
Flags: MW
HStem: -3 15<138 143 255.5 260 138 138 405 410.5 523 527 405 405> 479 26
VStem: 163 73<45 52 52 458 385.5 458> 430 73<45 52 52 458 385.5 458>
Fore
632 459 m 0
 643 445 647 434 621 447 c 0
 594 460 574 466 544 471 c 0
 531 473 522 475 512 475 c 0
 501 475 503 466 503 458 c 0
 503 379 503 59 503 45 c 0
 503 8 518 12 528 12 c 0
 533 12 536 8 536 5 c 0
 536 -1 530 -1 527 -3 c 1
 405 -3 l 1
 402 -1 397 -1 397 5 c 0
 397 8 398 12 405 12 c 0
 416 12 430 15 430 45 c 2
 430 45 430 313 430 458 c 0
 430 465 428 475 419 475 c 0
 387 477 336 479 336 479 c 1
 301 477 255 477 245 475 c 0
 234 474 236 466 236 458 c 0
 236 379 236 59 236 45 c 0
 236 8 250 12 261 12 c 0
 266 12 268 9 268 5 c 0
 268 -1 263 -1 260 -3 c 1
 138 -3 l 1
 135 -1 130 -1 130 5 c 0
 130 8 131 12 138 12 c 0
 148 12 163 15 163 45 c 2
 163 45 163 313 163 458 c 0
 163 465 161 475 152 475 c 0
 143 475 138 473 129 471 c 0
 94 464 71 453 49 436 c 1
 45 431 27 434 34 447 c 0
 44 463 50 478 58 494 c 1
 62 499 69 505 77 505 c 0
 118 505 236 503 336 503 c 0
 436 503 549 505 593 505 c 0
 600 505 608 507 612 497 c 0
 619 479 621 475 632 459 c 0
EndSplineSet
EndChar
StartChar: integral
Encoding: 186 8747
Width: 166
Flags: MW
HStem: -204 17<-31 -4> 736 17<133 160>
VStem: 33 63<-138 -135 -135 684 684 687>
Fore
280 753 m 1
 277 715 262 701 241 671 c 1
 211 704 175 736 145 736 c 0
 121 736 96 712 96 687 c 0
 96 684 96 -135 96 -135 c 2
 96 -174 71 -204 23 -204 c 0
 -43 -204 -82 -204 -151 -204 c 1
 -148 -166 -133 -152 -112 -122 c 1
 -82 -155 -46 -187 -16 -187 c 0
 8 -187 33 -163 33 -138 c 0
 33 -129 33 684 33 684 c 2
 33 723 58 753 106 753 c 0
 172 753 211 753 280 753 c 1
EndSplineSet
EndChar
StartChar: ordfeminine
Encoding: 187 170
Width: 278
Flags: W
Fore
189 291 m 2
 189 290 l 2
 189 299 189 483 189 483 c 2
 189 503 164 519 146 519 c 0
 96 519 67 475 67 397 c 0
 67 296 128 265 156 265 c 0
 172 265 189 272 189 291 c 2
130 603 m 2
 131 603 l 2
 96 603 32 583 76 543 c 1
 65 528 59 525 39 518 c 1
 1 604 87 627 132 627 c 0
 202 627 236 589 236 528 c 0
 236 518 236 292 236 283 c 0
 236 265 246 256 253 256 c 0
 255 256 256 255 256 253 c 0
 256 250 253 250 253 250 c 1
 253 250 164 250 134 250 c 0
 76 250 19 306 19 366 c 0
 19 476 56 531 147 531 c 0
 163 531 175 522 178 519 c 0
 181 517 189 508 189 514 c 0
 189 515 189 539 189 554 c 0
 189 588 165 603 130 603 c 2
22 194 m 1
 22 152 l 1
 69 157 96 158 142 158 c 0
 190 158 217 157 264 152 c 1
 264 194 l 1
 217 189 190 188 142 188 c 0
 96 188 69 189 22 194 c 1
EndSplineSet
EndChar
StartChar: ordmasculine
Encoding: 188 186
Width: 285
Flags: W
Fore
61 488 m 0
 61 402 79 304 144 283 c 0
 185 270 201 364 201 423 c 0
 201 504 175 583 122 603 c 0
 70 623 61 539 61 488 c 0
19 454 m 0
 19 534 46 600 109 639 c 0
 125 649 142 647 160 637 c 0
 208 608 235 545 235 476 c 0
 235 433 235 306 150 260 c 0
 133 251 122 247 107 256 c 0
 38 298 19 370 19 454 c 0
22 194 m 1
 22 152 l 1
 69 157 96 158 142 158 c 0
 190 158 217 157 264 152 c 1
 264 194 l 1
 217 189 190 188 142 188 c 0
 96 188 69 189 22 194 c 1
EndSplineSet
EndChar
StartChar: ae
Encoding: 190 230
Width: 541
Flags: MW
HStem: -3 24<177.5 185 177.5 202.5> 357 20<152.5 191.5> 487 18<347 384>
VStem: 32 57<130 229> 230 63<307 311 311 323> 420 59
Fore
495 54 m 1
 480 14 431 -10 396 -10 c 0
 349 -10 313 14 287 54 c 1
 287 48 287 45 287 44 c 0
 287 -5 273 -3 269 -3 c 2
 269 -3 203 -3 167 -3 c 0
 96 -3 32 73 32 155 c 0
 32 303 72 377 183 377 c 0
 203 377 219 364 222 361 c 0
 225 359 230 345 230 352 c 0
 230 354 230 386 230 406 c 0
 230 449 202 471 163 471 c 0
 124 471 50 443 102 391 c 1
 86 369 79 365 52 353 c 1
 4 474 110 505 165 505 c 0
 214 505 252 480 273 439 c 1
 297 480 326 505 347 505 c 0
 380 505 373 505 401 505 c 0
 428 505 483 470 479 418 c 0
 475 358 417 335 377 304 c 0
 347 280 291 272 295 230 c 0
 306 120 329 17 403 15 c 0
 439 14 476 40 490 57 c 1
 495 54 l 1
420 404 m 0
 421 445 404 487 364 487 c 0
 305 487 293 357 293 309 c 0
 293 305 300 297 304 299 c 0
 345 312 420 369 420 404 c 0
230 54 m 0
 230 66 230 311 230 311 c 2
 230 335 201 357 182 357 c 0
 123 357 89 298 89 196 c 0
 89 64 161 21 194 21 c 0
 211 21 230 32 230 54 c 0
EndSplineSet
EndChar
StartChar: oslash
Encoding: 191 248
Width: 377
Flags: MW
VStem: 25 56<279.5 312.5> 268 45
Fore
343 564 m 0
 341 560 315 509 279 438 c 1
 302 396 313 343 313 288 c 0
 313 229 317 59 201 -3 c 0
 178 -15 163 -21 140 -8 c 0
 114 8 95 27 80 47 c 1
 51 -9 30 -48 28 -52 c 0
 22 -65 -19 -72 -7 -48 c 0
 -4 -43 22 7 59 79 c 1
 34 130 25 192 25 259 c 0
 25 366 59 455 143 508 c 0
 166 522 190 519 215 505 c 0
 231 495 245 483 257 468 c 1
 274 503 292 536 308 568 c 0
 315 583 352 583 343 564 c 0
222 400 m 1
 207 427 186 445 161 455 c 0
 94 481 81 370 81 304 c 0
 81 255 86 204 99 158 c 1
 137 232 179 318 222 400 c 1
268 218 m 0
 268 271 259 323 242 365 c 1
 200 283 153 192 113 115 c 1
 130 75 156 46 193 34 c 0
 247 16 268 141 268 218 c 0
EndSplineSet
EndChar
StartChar: questiondown
Encoding: 192 191
Width: 495
Flags: MW
HStem: -26 24<186.5 291> 219 19<301.5 328> 647 88
VStem: 43 60<159 222> 198 61<147 173.5> 388 17<93 148>
Fore
256 -26 m 0
 108 -26 43 65 43 189 c 0
 43 308 127 315 186 393 c 0
 220 438 252 502 252 567 c 0
 252 579 256 583 263 583 c 0
 270 583 276 585 276 568 c 0
 276 490 270 451 222 374 c 0
 182 310 103 258 103 186 c 0
 103 132 116 -2 257 -2 c 0
 328 -2 388 61 388 125 c 0
 388 171 354 219 318 219 c 0
 285 219 259 190 259 157 c 0
 259 137 279 110 306 103 c 1
 292 95 283 90 267 90 c 0
 230 90 198 121 198 158 c 0
 198 211 247 238 296 238 c 0
 360 238 405 182 405 119 c 0
 405 38 326 -26 256 -26 c 0
299 689 m 0
 298 668 284 646 263 647 c 0
 242 648 229 668 229 689 c 0
 229 711 242 735 264 735 c 0
 286 735 300 711 299 689 c 0
EndSplineSet
EndChar
StartChar: exclamdown
Encoding: 193 161
Width: 258
Flags: MW
HStem: 658 88
VStem: 115 59
Fore
50 -14 m 0
 50 -10 52 -8 56 -8 c 0
 70 -8 90 -15 90 46 c 0
 90 67 115 479 115 597 c 0
 115 628 149 629 149 597 c 0
 149 579 174 66 174 46 c 0
 174 -3 194 -8 208 -8 c 0
 212 -8 214 -10 214 -14 c 0
 214 -20 209 -19 207 -21 c 1
 57 -21 l 1
 55 -19 50 -20 50 -14 c 0
168 700 m 0
 167 679 153 657 132 658 c 0
 111 659 98 679 98 700 c 0
 98 722 111 746 133 746 c 0
 155 746 169 722 168 700 c 0
EndSplineSet
EndChar
StartChar: logicalnot
Encoding: 194 172
Width: 449
Flags: MW
HStem: 204 20<44 367>
VStem: 367 20<86 204 204 204>
Fore
43 204 m 2
 36 204 35 224 44 224 c 2
 381 224 l 2
 385 224 387 216 387 213 c 2
 387 85 l 2
 387 79 367 75 367 86 c 2
 367 204 l 1
 43 204 l 2
EndSplineSet
EndChar
StartChar: radical
Encoding: 195 8730
Width: 756
Flags: W
Fore
480 524 m 1
 244 0 l 1
 174 0 l 1
 81 189 l 1
 54 161 l 1
 26 197 l 1
 119 291 l 1
 233 60 l 1
 464 556 l 1
 464 560 l 1
 690 560 l 1
 690 524 l 1
 480 524 l 1
EndSplineSet
EndChar
StartChar: florin
Encoding: 196 402
Width: 204
Flags: MW
HStem: -204 17<-69 -42> 480 25<57 70 149 159 149 191 191 203> 736 17<209 236>
Fore
358 753 m 1
 350 715 333 701 308 671 c 1
 283 704 251 736 221 736 c 0
 197 736 169 712 165 687 c 0
 165 686 151 573 144 514 c 0
 143 511 143 505 149 505 c 0
 164 505 172 505 191 505 c 0
 215 505 252 517 278 542 c 0
 282 545 286 550 289 547 c 0
 300 537 307 532 317 524 c 0
 321 521 320 517 315 514 c 0
 278 486 252 480 212 480 c 0
 186 480 171 480 147 480 c 0
 139 480 140 475 139 471 c 0
 124 352 64 -136 64 -136 c 1
 59 -174 31 -204 -17 -204 c 0
 -83 -204 -122 -204 -192 -204 c 1
 -184 -166 -167 -152 -141 -122 c 1
 -116 -155 -84 -187 -54 -187 c 0
 -30 -187 -2 -158 1 -136 c 0
 2 -128 61 352 76 471 c 0
 77 476 77 480 70 480 c 0
 46 480 43 480 30 480 c 1
 57 505 l 1
 63 504 59 505 74 505 c 0
 81 505 80 511 81 515 c 0
 88 574 99 656 102 684 c 0
 107 723 135 753 183 753 c 0
 249 753 288 753 358 753 c 1
EndSplineSet
EndChar
StartChar: approxequal
Encoding: 197 8776
Width: 331
Flags: W
Fore
66 258 m 0
 57 243 54 230 76 244 c 0
 97 257 109 263 130 263 c 0
 165 263 180 234 215 234 c 0
 245 234 257 268 271 293 c 0
 275 300 278 314 263 305 c 0
 245 294 226 283 205 283 c 0
 171 283 152 312 118 312 c 0
 93 312 81 282 66 258 c 0
66 378 m 0
 57 363 54 350 76 364 c 0
 97 377 109 383 130 383 c 0
 165 383 180 354 215 354 c 0
 245 354 257 388 271 413 c 0
 275 420 278 434 263 425 c 0
 245 414 226 403 205 403 c 0
 171 403 152 432 118 432 c 0
 93 432 81 402 66 378 c 0
EndSplineSet
EndChar
StartChar: guillemotleft
Encoding: 199 171
Width: 420
Flags: W
Fore
202 424 m 0
 213 453 202 459 196 459 c 0
 177 463 165 465 146 468 c 1
 149 453 161 440 149 414 c 0
 132 373 78 321 58 310 c 0
 40 300 1 283 1 283 c 1
 25 267 41 263 60 249 c 0
 103 217 141 188 145 135 c 0
 147 96 145 70 141 55 c 1
 180 61 153 57 190 63 c 0
 197 65 201 68 201 74 c 0
 196 103 193 133 173 163 c 0
 143 209 119 230 66 261 c 0
 58 266 34 274 28 280 c 1
 28 280 48 289 60 295 c 0
 121 329 179 364 202 424 c 0
357 424 m 0
 368 453 357 459 351 459 c 0
 332 463 320 465 301 468 c 1
 304 453 316 440 304 414 c 0
 287 373 233 321 213 310 c 0
 195 300 156 283 156 283 c 1
 180 267 196 263 215 249 c 0
 258 217 296 188 300 135 c 0
 302 96 300 70 296 55 c 1
 335 61 308 57 345 63 c 0
 352 65 356 68 356 74 c 0
 351 103 348 133 328 163 c 0
 298 209 274 230 221 261 c 0
 213 266 189 274 183 280 c 1
 183 280 203 289 215 295 c 0
 276 329 334 364 357 424 c 0
EndSplineSet
EndChar
StartChar: guillemotright
Encoding: 200 187
Width: 420
Flags: W
Fore
190 424 m 0
 179 453 190 459 196 459 c 0
 215 463 227 465 246 468 c 1
 243 453 231 440 243 414 c 0
 260 373 314 321 334 310 c 0
 352 300 391 283 391 283 c 1
 367 267 351 263 332 249 c 0
 289 217 251 188 247 135 c 0
 245 96 247 70 251 55 c 1
 212 61 239 57 202 63 c 0
 195 65 191 68 191 74 c 0
 196 103 198 133 219 163 c 0
 249 209 273 230 326 261 c 0
 334 266 358 274 364 280 c 1
 364 280 344 289 332 295 c 0
 271 329 213 364 190 424 c 0
35 424 m 0
 24 453 35 459 41 459 c 0
 60 463 72 465 91 468 c 1
 88 453 76 440 88 414 c 0
 105 373 159 321 179 310 c 0
 197 300 236 283 236 283 c 1
 212 267 196 263 177 249 c 0
 134 217 96 188 92 135 c 0
 90 96 92 70 96 55 c 1
 57 61 84 57 47 63 c 0
 40 65 36 68 36 74 c 0
 41 103 43 133 64 163 c 0
 94 209 118 230 171 261 c 0
 179 266 203 274 209 280 c 1
 209 280 189 289 177 295 c 0
 116 329 58 364 35 424 c 0
EndSplineSet
EndChar
StartChar: ellipsis
Encoding: 201 8230
Width: 645
Flags: MW
HStem: 0 88
VStem: 63 70 233 70 413 70
Fore
63 46 m 0
 64 67 78 89 99 88 c 0
 120 87 133 67 133 46 c 0
 133 24 120 0 98 0 c 0
 76 0 62 24 63 46 c 0
233 46 m 0
 234 67 248 89 269 88 c 0
 290 87 303 67 303 46 c 0
 303 24 290 0 268 0 c 0
 246 0 232 24 233 46 c 0
413 46 m 0
 414 67 428 89 449 88 c 0
 470 87 483 67 483 46 c 0
 483 24 470 0 448 0 c 0
 426 0 412 24 413 46 c 0
EndSplineSet
EndChar
StartChar: Agrave
Encoding: 203 192
Width: 465
Flags: MW
HStem: -3 20
Fore
157 271 m 0
 157 393 68 473 68 607 c 0
 68 689 96 706 96 719 c 0
 96 736 76 735 76 744 c 0
 76 748 83 749 86 750 c 1
 86 750 204 749 279 749 c 0
 346 749 386 750 451 750 c 1
 462 746 480 752 480 740 c 0
 480 729 445 729 445 700 c 0
 445 444 445 299 445 44 c 0
 445 5 475 13 475 3 c 0
 475 0 472 -1 470 -3 c 1
 316 -3 l 1
 314 -1 311 -1 311 3 c 0
 311 17 348 2 348 48 c 0
 348 203 348 293 348 448 c 0
 348 474 345 475 327 480 c 0
 306 486 290 488 266 488 c 0
 233 488 209 485 182 472 c 0
 174 468 174 467 174 454 c 0
 174 373 205 322 205 196 c 0
 205 126 191 63 145 -3 c 1
 22 -3 l 1
 107 81 157 190 157 271 c 0
266 509 m 0
 293 509 309 504 336 498 c 0
 350 495 349 513 342 515 c 0
 315 523 293 528 273 528 c 0
 249 528 211 523 177 508 c 0
 166 503 170 485 186 491 c 0
 219 504 234 509 266 509 c 0
165 559 m 0
 165 537 162 519 182 527 c 0
 217 541 240 546 277 546 c 0
 299 546 312 543 333 537 c 0
 347 533 349 543 349 551 c 0
 349 591 349 638 349 693 c 0
 349 720 342 729 325 729 c 0
 310 729 299 731 282 731 c 0
 266 731 256 730 240 728 c 0
 177 721 165 638 165 559 c 0
271 770 m 1
 237 770 l 1
 191 876 l 1
 258 876 l 1
 258 876 258 847 260 829 c 0
 262 806 271 770 271 770 c 1
EndSplineSet
EndChar
StartChar: OE
Encoding: 206 338
Width: 496
Flags: MW
HStem: 748 20
Fore
134 454 m 0
 134 282 165 100 295 58 c 0
 377 31 410 207 410 326 c 0
 410 486 359 638 251 678 c 0
 148 716 134 555 134 454 c 0
42 386 m 0
 42 545 100 676 225 754 c 0
 259 775 292 770 327 750 c 0
 424 694 480 567 480 430 c 0
 480 343 477 91 307 0 c 0
 274 -18 253 -27 221 -8 c 0
 85 74 42 219 42 386 c 0
EndSplineSet
EndChar
StartChar: oe
Encoding: 207 339
Width: 565
Flags: MW
HStem: -10 25 497 20
VStem: 25 56<247 312.5> 268 60 455 59
Fore
530 54 m 1
 515 14 466 -10 431 -10 c 0
 363 -10 319 42 293 117 c 1
 278 68 250 23 201 -3 c 0
 178 -15 163 -22 140 -8 c 0
 49 47 25 146 25 259 c 0
 25 366 59 455 143 508 c 0
 166 522 189 519 214 505 c 0
 250 484 277 450 292 407 c 1
 317 465 356 500 381 505 c 0
 415 511 408 511 437 505 c 0
 464 499 518 469 514 418 c 0
 510 358 452 335 412 304 c 0
 382 280 326 272 330 230 c 0
 341 120 364 17 438 15 c 0
 474 14 511 40 525 57 c 1
 530 54 l 1
455 404 m 0
 456 445 439 487 399 487 c 0
 340 487 328 357 328 309 c 0
 328 305 335 297 339 299 c 0
 380 312 455 369 455 404 c 0
268 218 m 0
 268 325 232 428 161 455 c 0
 94 480 81 370 81 304 c 0
 81 190 107 62 193 34 c 0
 247 16 268 141 268 218 c 0
EndSplineSet
EndChar
StartChar: endash
Encoding: 208 8211
Width: 496
Flags: W
Fore
60 354 m 1
 60 308 l 1
 132 313 175 315 247 315 c 0
 322 315 365 313 440 308 c 1
 440 354 l 1
 365 349 322 347 247 347 c 0
 175 347 132 349 60 354 c 1
EndSplineSet
EndChar
StartChar: emdash
Encoding: 209 8212
Width: 605
Flags: W
Fore
48 354 m 1
 48 308 l 1
 145 313 203 315 300 315 c 0
 402 315 460 313 561 308 c 1
 561 354 l 1
 460 349 402 347 300 347 c 0
 203 347 145 349 48 354 c 1
EndSplineSet
EndChar
StartChar: quotedblleft
Encoding: 210 8220
Width: 319
Flags: MW
HStem: 733 20
VStem: 51 80 169 80
Fore
131 711 m 0
 132 689 118 665 96 665 c 0
 92 665 89 666 86 667 c 1
 84 655 89 646 96 635 c 0
 102 626 107 621 116 615 c 1
 106 607 l 1
 65 630 51 660 51 701 c 0
 51 727 68 756 95 753 c 0
 116 751 130 732 131 711 c 0
249 693 m 0
 250 671 236 647 214 647 c 0
 210 647 207 648 204 649 c 1
 202 637 207 628 214 617 c 0
 220 608 225 603 234 597 c 1
 224 589 l 1
 183 612 169 642 169 683 c 0
 169 709 186 738 213 735 c 0
 234 733 248 714 249 693 c 0
EndSplineSet
EndChar
StartChar: quotedblright
Encoding: 211 8221
Width: 319
Flags: MW
HStem: 733 20
VStem: 33 80 143 80
Fore
58 583 m 1
 48 591 l 1
 57 597 62 602 68 611 c 0
 75 622 80 631 78 643 c 1
 75 642 72 641 68 641 c 0
 46 641 32 665 33 687 c 0
 34 708 48 727 69 729 c 0
 96 732 113 703 113 677 c 0
 113 636 99 606 58 583 c 1
168 607 m 1
 158 615 l 1
 167 621 172 626 178 635 c 0
 185 646 190 655 188 667 c 1
 185 666 182 665 178 665 c 0
 156 665 142 689 143 711 c 0
 144 732 158 751 179 753 c 0
 206 756 223 727 223 701 c 0
 223 660 209 630 168 607 c 1
EndSplineSet
EndChar
StartChar: quoteleft
Encoding: 212 8216
Width: 179
Flags: MW
HStem: 733 20
VStem: 51 80
Fore
131 711 m 0
 132 689 118 665 96 665 c 0
 92 665 89 666 86 667 c 1
 84 655 89 646 96 635 c 0
 102 626 107 621 116 615 c 1
 106 607 l 1
 65 630 51 660 51 701 c 0
 51 727 68 756 95 753 c 0
 116 751 130 732 131 711 c 0
EndSplineSet
EndChar
StartChar: quoteright
Encoding: 213 8217
Width: 179
Flags: MW
HStem: 733 20
VStem: 33 80
Fore
58 607 m 1
 48 615 l 1
 57 621 62 626 68 635 c 0
 75 646 80 655 78 667 c 1
 75 666 72 665 68 665 c 0
 46 665 32 689 33 711 c 0
 34 732 48 751 69 753 c 0
 96 756 113 727 113 701 c 0
 113 660 99 630 58 607 c 1
EndSplineSet
EndChar
StartChar: divide
Encoding: 214 247
Width: 355
Flags: MW
VStem: 140 52
Fore
140 247 m 0
 141 261 151 278 167 277 c 0
 183 276 192 261 192 247 c 0
 192 229 183 211 166 211 c 0
 150 211 139 229 140 247 c 0
140 423 m 0
 141 437 151 454 167 453 c 0
 183 452 192 437 192 423 c 0
 192 405 183 387 166 387 c 0
 150 387 139 405 140 423 c 0
92 354 m 1
 92 312 l 1
 121 317 138 318 167 318 c 0
 197 318 214 317 244 312 c 1
 244 354 l 1
 214 349 197 348 167 348 c 0
 138 348 121 349 92 354 c 1
EndSplineSet
EndChar
StartChar: lozenge
Encoding: 215 9674
Width: 377
Flags: W
Fore
173 162 m 1
 174 162 174 163 174 163 c 2
 204 209 228 231 281 261 c 0
 289 266 313 274 319 280 c 1
 319 280 299 289 287 295 c 0
 238 322 201 344 173 379 c 1
 146 344 108 322 60 295 c 0
 48 289 28 280 28 280 c 1
 34 274 58 266 66 261 c 0
 119 231 143 209 173 163 c 1
 173 163 173 163 173 162 c 1
173 450 m 1
 197 410 l 2
 225 364 269 322 289 310 c 0
 306 300 346 283 346 283 c 1
 322 267 306 263 287 249 c 0
 244 217 226 200 200 158 c 2
 174 116 l 1
 147 158 l 2
 121 199 103 217 60 249 c 0
 41 263 25 267 1 283 c 1
 1 283 41 300 58 310 c 0
 78 322 121 363 149 410 c 2
 173 450 l 1
EndSplineSet
EndChar
StartChar: fraction
Encoding: 218 8260
Width: 510
Flags: W
Fore
366 716 m 0
 372 730 403 732 395 714 c 0
 388 699 89 58 80 40 c 0
 75 28 41 20 51 42 c 0
 59 59 248 464 366 716 c 0
EndSplineSet
EndChar
StartChar: guilsinglleft
Encoding: 220 8249
Width: 250
Flags: W
Fore
202 424 m 0
 179 364 121 329 60 295 c 0
 48 289 28 280 28 280 c 1
 34 274 58 266 66 261 c 0
 119 230 143 209 173 163 c 0
 193 133 196 103 201 74 c 0
 201 68 197 65 190 63 c 0
 153 57 180 61 141 55 c 1
 145 70 147 96 145 135 c 0
 141 188 103 217 60 249 c 0
 41 263 25 267 1 283 c 1
 1 283 40 300 58 310 c 0
 78 321 132 373 149 414 c 0
 161 440 149 453 146 468 c 1
 165 465 177 463 196 459 c 0
 202 459 213 453 202 424 c 0
EndSplineSet
EndChar
StartChar: guilsinglright
Encoding: 221 8250
Width: 250
Flags: W
Fore
35 424 m 0
 58 364 116 329 177 295 c 0
 189 289 209 280 209 280 c 1
 203 274 179 266 171 261 c 0
 118 230 94 209 64 163 c 0
 43 133 41 103 36 74 c 0
 36 68 40 65 47 63 c 0
 84 57 57 61 96 55 c 1
 92 70 90 96 92 135 c 0
 96 188 134 217 177 249 c 0
 196 263 212 267 236 283 c 1
 236 283 197 300 179 310 c 0
 159 321 105 373 88 414 c 0
 76 440 88 453 91 468 c 1
 72 465 60 463 41 459 c 0
 35 459 24 453 35 424 c 0
EndSplineSet
EndChar
StartChar: fi
Encoding: 222 64257
Width: 310
Flags: MW
HStem: -3 14<115 116 281 282> 480 25<10 26 102 115 103 144 144 156> 588 84<220.5 241.5> 736 17<133 160>
VStem: 33 63<44 471 411.5 471 514 543.5 543.5 684 670 687> 199 89
Fore
263 630 m 0
 263 609 252 588 231 588 c 0
 210 588 199 609 199 630 c 0
 199 651 210 672 231 672 c 0
 252 672 263 651 263 630 c 0
288 4 m 0
 288 -3 283 -3 281 -3 c 2
 179 -2 l 2
 177 -1 173 -2 173 4 c 0
 173 9 175 11 180 11 c 0
 188 11 199 22 199 44 c 0
 199 56 199 443 199 457 c 0
 199 467 198 477 196 482 c 1
 187 481 178 480 168 480 c 0
 142 480 127 480 103 480 c 0
 96 480 96 475 96 471 c 0
 96 352 96 44 96 44 c 2
 96 22 107 11 115 11 c 0
 120 11 122 9 122 4 c 0
 122 -3 117 -3 115 -3 c 2
 13 -2 l 2
 11 -1 7 -2 7 4 c 0
 7 9 9 11 14 11 c 0
 22 11 33 22 33 44 c 0
 33 52 33 352 33 471 c 0
 33 475 33 480 26 480 c 0
 2 480 -1 480 -14 480 c 1
 10 505 l 1
 16 504 12 505 27 505 c 0
 33 505 33 510 33 514 c 0
 33 573 33 656 33 684 c 0
 33 723 58 753 106 753 c 0
 172 753 211 753 280 753 c 1
 277 715 262 701 241 671 c 1
 211 704 175 736 145 736 c 0
 121 736 96 712 96 687 c 0
 96 686 96 573 96 514 c 0
 96 510 96 505 102 505 c 0
 117 505 125 505 144 505 c 0
 168 505 203 517 227 542 c 0
 230 545 234 550 237 547 c 0
 260 528 254 534 261 527 c 1
 262 44 l 1
 262 22 273 11 281 11 c 0
 286 11 288 9 288 4 c 0
EndSplineSet
Ligature: f i
EndChar
StartChar: fl
Encoding: 223 64258
Width: 350
Flags: MW
HStem: -2 13<13 13 213 213> 480 25<10 26 102 115 103 144 144 156> 736 17<133 160>
VStem: 33 63<44 471 411.5 471 514 543.5 543.5 684 670 687> 233 63<44 492 455.5 492 547 679 674.5 679>
Fore
322 4 m 0
 322 -3 317 -3 315 -3 c 2
 213 -2 l 2
 211 -1 207 -2 207 4 c 0
 207 9 209 11 214 11 c 0
 222 11 233 22 233 44 c 0
 233 52 233 419 233 492 c 1
 211 484 206 480 168 480 c 0
 142 480 127 480 103 480 c 0
 96 480 96 475 96 471 c 0
 96 352 96 44 96 44 c 2
 96 22 107 11 115 11 c 0
 120 11 122 9 122 4 c 0
 122 -3 117 -3 115 -3 c 2
 13 -2 l 2
 11 -1 7 -2 7 4 c 0
 7 9 9 11 14 11 c 0
 22 11 33 22 33 44 c 0
 33 52 33 352 33 471 c 0
 33 475 33 480 26 480 c 0
 2 480 -1 480 -14 480 c 1
 10 505 l 1
 16 504 12 505 27 505 c 0
 33 505 33 510 33 514 c 0
 33 573 33 656 33 684 c 0
 33 723 58 753 106 753 c 0
 172 753 282 753 282 753 c 2
 290 753 296 753 296 740 c 0
 296 736 296 44 296 44 c 2
 296 22 307 11 315 11 c 0
 320 11 322 9 322 4 c 0
233 547 m 1
 233 614 233 670 233 679 c 1
 206 707 175 736 145 736 c 0
 121 736 96 712 96 687 c 0
 96 686 96 573 96 514 c 0
 96 510 96 505 102 505 c 0
 117 505 125 505 144 505 c 0
 168 505 203 517 227 542 c 0
 229 544 231 546 233 547 c 1
EndSplineSet
Ligature: f l
EndChar
StartChar: daggerdbl
Encoding: 224 8225
Width: 337
Flags: MW
HStem: 0 20 95 38 617 38 730 20<141 193 193 193>
VStem: 147 57
Fore
189 617 m 1
 195 529 204 469 204 375 c 0
 204 281 195 221 189 133 c 1
 218 134 289 140 289 140 c 1
 289 88 l 1
 289 88 215 95 186 95 c 1
 186 91 186 87 186 82 c 0
 187 57 189 27 193 0 c 1
 141 0 l 1
 145 25 147 53 148 77 c 0
 148 83 147 89 147 95 c 1
 120 94 45 88 45 88 c 1
 45 140 l 1
 45 140 115 135 144 133 c 1
 138 221 130 281 130 375 c 0
 130 469 138 529 144 617 c 1
 115 615 45 610 45 610 c 1
 45 662 l 1
 45 662 120 656 147 655 c 1
 147 661 147 666 148 672 c 1
 147 697 145 724 141 750 c 1
 193 750 l 1
 189 723 187 693 186 667 c 0
 186 663 186 659 187 655 c 1
 214 655 289 662 289 662 c 1
 289 610 l 1
 289 610 218 616 189 617 c 1
EndSplineSet
EndChar
StartChar: periodcentered
Encoding: 225 183
Width: 215
Flags: MW
HStem: 290 88
VStem: 63 70
Fore
63 336 m 0
 64 357 78 379 99 378 c 0
 120 377 133 357 133 336 c 0
 133 314 120 290 98 290 c 0
 76 290 62 314 63 336 c 0
EndSplineSet
EndChar
StartChar: quotesinglbase
Encoding: 226 8218
Width: 179
Flags: W
Fore
58 -51 m 1
 48 -43 l 1
 57 -37 62 -32 68 -23 c 0
 75 -12 80 -3 78 9 c 1
 75 8 72 7 68 7 c 0
 46 7 32 31 33 53 c 0
 34 74 48 93 69 95 c 0
 96 98 113 69 113 43 c 0
 113 2 99 -28 58 -51 c 1
EndSplineSet
EndChar
StartChar: quotedblbase
Encoding: 227 8222
Width: 319
Flags: W
Fore
58 -72 m 1
 48 -64 l 1
 57 -58 62 -53 68 -44 c 0
 75 -33 80 -24 78 -12 c 1
 75 -13 72 -14 68 -14 c 0
 46 -14 32 10 33 32 c 0
 34 53 48 72 69 74 c 0
 96 77 113 48 113 22 c 0
 113 -19 99 -49 58 -72 c 1
168 -48 m 1
 158 -40 l 1
 167 -34 172 -29 178 -20 c 0
 185 -9 190 0 188 12 c 1
 185 11 182 10 178 10 c 0
 156 10 142 34 143 56 c 0
 144 77 158 96 179 98 c 0
 206 101 223 72 223 46 c 0
 223 5 209 -25 168 -48 c 1
EndSplineSet
EndChar
StartChar: perthousand
Encoding: 228 8240
Width: 790
Flags: MW
HStem: 0 20
Fore
376 716 m 0
 382 730 413 732 405 714 c 0
 398 699 99 58 90 40 c 0
 85 28 51 20 61 42 c 0
 69 59 258 464 376 716 c 0
316 341 m 1
 317 341 l 1
 293 311 289 277 289 234 c 0
 289 183 295 81 368 35 c 0
 378 29 388 28 395 34 c 0
 430 66 435 115 435 171 c 0
 435 247 415 325 354 350 c 0
 340 355 326 352 316 341 c 1
342 386 m 2
 341 386 l 2
 356 395 377 394 393 387 c 0
 452 360 474 294 474 223 c 0
 474 139 448 30 374 4 c 0
 362 0 346 -2 335 4 c 0
 261 48 245 117 245 202 c 0
 245 281 279 350 342 386 c 2
71 696 m 1
 72 696 l 1
 48 666 44 632 44 589 c 0
 44 538 50 436 123 390 c 0
 133 384 143 383 150 389 c 0
 185 421 190 470 190 526 c 0
 190 602 170 680 109 705 c 0
 95 710 81 707 71 696 c 1
97 741 m 2
 96 741 l 2
 111 750 132 749 148 742 c 0
 207 715 229 649 229 578 c 0
 229 494 203 385 129 359 c 0
 117 355 101 353 90 359 c 0
 16 403 0 472 0 557 c 0
 0 636 34 705 97 741 c 2
582 341 m 0
 558 311 554 277 554 234 c 0
 554 183 560 81 633 35 c 0
 643 29 653 28 660 34 c 0
 695 66 700 115 700 171 c 0
 700 247 680 325 619 350 c 0
 605 355 591 352 582 341 c 0
607 386 m 2
 606 386 l 2
 621 395 642 394 658 387 c 0
 717 360 739 294 739 223 c 0
 739 139 713 30 639 4 c 0
 627 0 611 -2 600 4 c 0
 526 48 510 117 510 202 c 0
 510 281 544 350 607 386 c 2
EndSplineSet
EndChar
StartChar: Acircumflex
Encoding: 229 194
Width: 465
Flags: MW
HStem: -3 20
Fore
157 271 m 0
 157 393 68 473 68 607 c 0
 68 689 96 706 96 719 c 0
 96 736 76 735 76 744 c 0
 76 748 83 749 86 750 c 1
 86 750 204 749 279 749 c 0
 346 749 386 750 451 750 c 1
 462 746 480 752 480 740 c 0
 480 729 445 729 445 700 c 0
 445 444 445 299 445 44 c 0
 445 5 475 13 475 3 c 0
 475 0 472 -1 470 -3 c 1
 316 -3 l 1
 314 -1 311 -1 311 3 c 0
 311 17 348 2 348 48 c 0
 348 203 348 293 348 448 c 0
 348 474 345 475 327 480 c 0
 306 486 290 488 266 488 c 0
 233 488 209 485 182 472 c 0
 174 468 174 467 174 454 c 0
 174 373 205 322 205 196 c 0
 205 126 191 63 145 -3 c 1
 22 -3 l 1
 107 81 157 190 157 271 c 0
266 509 m 0
 293 509 309 504 336 498 c 0
 350 495 349 513 342 515 c 0
 315 523 293 528 273 528 c 0
 249 528 211 523 177 508 c 0
 166 503 170 485 186 491 c 0
 219 504 234 509 266 509 c 0
165 559 m 0
 165 537 162 519 182 527 c 0
 217 541 240 546 277 546 c 0
 299 546 312 543 333 537 c 0
 347 533 349 543 349 551 c 0
 349 591 349 638 349 693 c 0
 349 720 342 729 325 729 c 0
 310 729 299 731 282 731 c 0
 266 731 256 730 240 728 c 0
 177 721 165 638 165 559 c 0
170 774 m 1
 203 774 l 1
 262 818 l 1
 313 774 l 1
 350 774 l 1
 299 857 l 1
 229 857 l 1
 170 774 l 1
EndSplineSet
EndChar
StartChar: Ecircumflex
Encoding: 230 202
Width: 471
Flags: W
Fore
188 45 m 0
 206 37 218 36 238 36 c 0
 308 36 372 86 399 132 c 0
 401 135 404 144 411 138 c 0
 431 121 455 102 468 89 c 0
 473 84 473 75 468 70 c 0
 422 23 366 -15 312 -15 c 0
 246 -15 176 14 111 47 c 0
 94 56 83 64 63 64 c 0
 55 64 50 64 43 62 c 0
 34 60 28 66 40 73 c 0
 54 81 72 97 72 132 c 2
 72 132 72 665 72 683 c 0
 72 719 52 739 38 739 c 0
 34 739 32 741 32 745 c 0
 32 751 35 750 39 752 c 0
 45 755 51 751 58 751 c 0
 244 751 230 756 320 756 c 0
 368 756 416 735 432 701 c 0
 436 693 433 692 429 689 c 0
 407 673 392 648 369 633 c 0
 366 631 361 628 358 637 c 0
 349 664 346 684 324 701 c 0
 304 717 284 718 259 719 c 0
 238 720 210 720 193 719 c 0
 180 718 176 715 176 706 c 0
 176 668 176 602 176 513 c 0
 176 506 176 495 190 495 c 0
 212 495 225 495 253 495 c 0
 290 495 340 520 376 558 c 0
 379 562 382 569 386 566 c 0
 403 551 414 534 430 522 c 0
 433 520 432 516 429 513 c 0
 379 473 346 468 288 468 c 0
 250 468 228 468 191 468 c 0
 176 468 176 460 176 451 c 0
 176 273 176 221 176 76 c 0
 176 64 176 50 188 45 c 0
105 774 m 1
 138 774 l 1
 197 818 l 1
 248 774 l 1
 285 774 l 1
 234 857 l 1
 164 857 l 1
 105 774 l 1
EndSplineSet
EndChar
StartChar: Aacute
Encoding: 231 193
Width: 465
Flags: MW
HStem: -3 20
Fore
157 271 m 0
 157 393 68 473 68 607 c 0
 68 689 96 706 96 719 c 0
 96 736 76 735 76 744 c 0
 76 748 83 749 86 750 c 1
 86 750 204 749 279 749 c 0
 346 749 386 750 451 750 c 1
 462 746 480 752 480 740 c 0
 480 729 445 729 445 700 c 0
 445 444 445 299 445 44 c 0
 445 5 475 13 475 3 c 0
 475 0 472 -1 470 -3 c 1
 316 -3 l 1
 314 -1 311 -1 311 3 c 0
 311 17 348 2 348 48 c 0
 348 203 348 293 348 448 c 0
 348 474 345 475 327 480 c 0
 306 486 290 488 266 488 c 0
 233 488 209 485 182 472 c 0
 174 468 174 467 174 454 c 0
 174 373 205 322 205 196 c 0
 205 126 191 63 145 -3 c 1
 22 -3 l 1
 107 81 157 190 157 271 c 0
266 509 m 0
 293 509 309 504 336 498 c 0
 350 495 349 513 342 515 c 0
 315 523 293 528 273 528 c 0
 249 528 211 523 177 508 c 0
 166 503 170 485 186 491 c 0
 219 504 234 509 266 509 c 0
165 559 m 0
 165 537 162 519 182 527 c 0
 217 541 240 546 277 546 c 0
 299 546 312 543 333 537 c 0
 347 533 349 543 349 551 c 0
 349 591 349 638 349 693 c 0
 349 720 342 729 325 729 c 0
 310 729 299 731 282 731 c 0
 266 731 256 730 240 728 c 0
 177 721 165 638 165 559 c 0
277 886 m 1
 231 780 l 1
 197 780 l 1
 197 780 206 816 208 839 c 0
 210 857 210 886 210 886 c 1
 277 886 l 1
EndSplineSet
EndChar
StartChar: Egrave
Encoding: 233 200
Width: 471
Flags: W
Fore
188 45 m 0
 206 37 218 36 238 36 c 0
 308 36 372 86 399 132 c 0
 401 135 404 144 411 138 c 0
 431 121 455 102 468 89 c 0
 473 84 473 75 468 70 c 0
 422 23 366 -15 312 -15 c 0
 246 -15 176 14 111 47 c 0
 94 56 83 64 63 64 c 0
 55 64 50 64 43 62 c 0
 34 60 28 66 40 73 c 0
 54 81 72 97 72 132 c 2
 72 132 72 665 72 683 c 0
 72 719 52 739 38 739 c 0
 34 739 32 741 32 745 c 0
 32 751 35 750 39 752 c 0
 45 755 51 751 58 751 c 0
 244 751 230 756 320 756 c 0
 368 756 416 735 432 701 c 0
 436 693 433 692 429 689 c 0
 407 673 392 648 369 633 c 0
 366 631 361 628 358 637 c 0
 349 664 346 684 324 701 c 0
 304 717 284 718 259 719 c 0
 238 720 210 720 193 719 c 0
 180 718 176 715 176 706 c 0
 176 668 176 602 176 513 c 0
 176 506 176 495 190 495 c 0
 212 495 225 495 253 495 c 0
 290 495 340 520 376 558 c 0
 379 562 382 569 386 566 c 0
 403 551 414 534 430 522 c 0
 433 520 432 516 429 513 c 0
 379 473 346 468 288 468 c 0
 250 468 228 468 191 468 c 0
 176 468 176 460 176 451 c 0
 176 273 176 221 176 76 c 0
 176 64 176 50 188 45 c 0
271 770 m 1
 237 770 l 1
 191 876 l 1
 258 876 l 1
 258 876 258 847 260 829 c 0
 262 806 271 770 271 770 c 1
EndSplineSet
EndChar
StartChar: Iacute
Encoding: 234 205
Width: 216
Flags: MW
HStem: 0 20
Fore
39 0 m 1
 37 2 32 1 32 7 c 0
 32 11 34 13 38 13 c 0
 52 13 72 18 72 67 c 2
 72 67 72 665 72 683 c 0
 72 719 52 737 38 737 c 0
 34 737 32 739 32 743 c 0
 32 749 37 748 39 750 c 1
 160 750 l 2
 169 750 176 750 176 735 c 0
 176 617 176 88 176 67 c 0
 176 6 196 13 210 13 c 0
 214 13 216 11 216 7 c 0
 216 1 211 2 209 0 c 1
 39 0 l 1
142 886 m 1
 96 780 l 1
 62 780 l 1
 62 780 71 816 73 839 c 0
 75 857 75 886 75 886 c 1
 142 886 l 1
EndSplineSet
EndChar
StartChar: Icircumflex
Encoding: 235 206
Width: 216
Flags: MW
HStem: 0 20
Fore
39 0 m 1
 37 2 32 1 32 7 c 0
 32 11 34 13 38 13 c 0
 52 13 72 18 72 67 c 2
 72 67 72 665 72 683 c 0
 72 719 52 737 38 737 c 0
 34 737 32 739 32 743 c 0
 32 749 37 748 39 750 c 1
 160 750 l 2
 169 750 176 750 176 735 c 0
 176 617 176 88 176 67 c 0
 176 6 196 13 210 13 c 0
 214 13 216 11 216 7 c 0
 216 1 211 2 209 0 c 1
 39 0 l 1
15 774 m 1
 48 774 l 1
 107 818 l 1
 158 774 l 1
 195 774 l 1
 144 857 l 1
 74 857 l 1
 15 774 l 1
EndSplineSet
EndChar
StartChar: Igrave
Encoding: 237 204
Width: 216
Flags: MW
HStem: 0 20
Fore
39 0 m 1
 37 2 32 1 32 7 c 0
 32 11 34 13 38 13 c 0
 52 13 72 18 72 67 c 2
 72 67 72 665 72 683 c 0
 72 719 52 737 38 737 c 0
 34 737 32 739 32 743 c 0
 32 749 37 748 39 750 c 1
 160 750 l 2
 169 750 176 750 176 735 c 0
 176 617 176 88 176 67 c 0
 176 6 196 13 210 13 c 0
 214 13 216 11 216 7 c 0
 216 1 211 2 209 0 c 1
 39 0 l 1
136 770 m 1
 102 770 l 1
 56 876 l 1
 123 876 l 1
 123 876 123 847 125 829 c 0
 127 806 136 770 136 770 c 1
EndSplineSet
EndChar
StartChar: Oacute
Encoding: 238 211
Width: 496
Flags: W
Fore
134 454 m 0
 134 282 165 100 295 58 c 0
 377 31 410 207 410 326 c 0
 410 486 359 638 251 678 c 0
 148 716 134 555 134 454 c 0
42 386 m 0
 42 545 100 676 225 754 c 0
 259 775 292 770 327 750 c 0
 424 694 480 567 480 430 c 0
 480 343 477 91 307 0 c 0
 274 -18 253 -27 221 -8 c 0
 85 74 42 219 42 386 c 0
277 886 m 1
 231 780 l 1
 197 780 l 1
 197 780 206 816 208 839 c 0
 210 857 210 886 210 886 c 1
 277 886 l 1
EndSplineSet
EndChar
StartChar: Ocircumflex
Encoding: 239 212
Width: 496
Flags: W
Fore
134 454 m 0
 134 282 165 100 295 58 c 0
 377 31 410 207 410 326 c 0
 410 486 359 638 251 678 c 0
 148 716 134 555 134 454 c 0
42 386 m 0
 42 545 100 676 225 754 c 0
 259 775 292 770 327 750 c 0
 424 694 480 567 480 430 c 0
 480 343 477 91 307 0 c 0
 274 -18 253 -27 221 -8 c 0
 85 74 42 219 42 386 c 0
170 774 m 1
 203 774 l 1
 262 818 l 1
 313 774 l 1
 350 774 l 1
 299 857 l 1
 229 857 l 1
 170 774 l 1
EndSplineSet
EndChar
StartChar: apple
Encoding: 240 63743
Width: 854
Flags: W
Fore
646 -28 m 1
 427 187 l 1
 213 -28 l 1
 371 -28 l 2
 387 -28 400 -32 412 -42 c 0
 420 -50 426 -54 432 -65 c 1
 435 -55 440 -49 447 -42 c 0
 463 -28 476 -28 485 -28 c 2
 646 -28 l 1
337 -165 m 2
 265 -165 216 -170 155 -129 c 0
 57 -63 60 47 60 169 c 2
 60 412 l 2
 60 533 54 643 155 709 c 0
 216 749 265 745 337 745 c 2
 520 745 l 2
 592 745 641 749 702 709 c 0
 804 643 798 534 798 412 c 2
 798 169 l 2
 798 47 804 -63 702 -129 c 0
 641 -169 592 -165 520 -165 c 2
 337 -165 l 2
688 364 m 2
 688 379 694 388 706 398 c 0
 717 406 727 410 741 409 c 1
 741 435 l 1
 115 435 l 1
 115 409 l 1
 129 410 139 406 150 398 c 1
 161 388 168 379 168 364 c 1
 167 23 l 1
 427 281 l 1
 688 19 l 1
 688 364 l 2
422 481 m 1
 415 481 l 1
 422 481 l 1
461 482 m 1
 459 482 l 2
 457 482 455 481 453 480 c 0
 450 480 449 480 446 479 c 1
 443 480 439 480 435 480 c 0
 431 481 428 481 424 481 c 2
 422 481 l 1
 419 485 417 487 416 491 c 0
 409 509 396 531 411 543 c 0
 415 546 419 546 424 546 c 0
 432 548 436 549 445 548 c 1
 441 544 439 540 437 535 c 0
 433 521 445 513 451 500 c 0
 454 493 457 489 461 482 c 1
404 477 m 1
 400 476 397 474 394 470 c 1
 389 476 384 478 377 478 c 0
 369 478 365 476 359 470 c 1
 354 476 350 478 343 478 c 0
 335 479 328 476 324 470 c 1
 319 476 314 478 307 478 c 0
 299 479 293 476 288 470 c 1
 283 475 280 476 273 477 c 0
 265 478 257 475 252 468 c 0
 248 462 246 457 248 450 c 0
 250 444 258 443 265 443 c 0
 273 442 280 445 285 450 c 1
 290 446 294 444 300 443 c 0
 308 443 313 445 319 450 c 1
 324 445 328 443 335 443 c 0
 343 442 350 445 355 450 c 1
 359 446 363 443 369 443 c 0
 377 442 384 444 389 450 c 1
 392 446 398 443 404 442 c 0
 413 441 418 443 424 450 c 1
 427 446 432 443 439 442 c 0
 447 441 454 443 459 450 c 1
 463 445 466 443 472 442 c 0
 481 440 488 443 493 450 c 1
 497 445 501 443 507 442 c 0
 516 441 522 443 527 450 c 1
 531 445 535 443 543 442 c 0
 551 441 557 443 563 450 c 1
 567 445 572 443 579 442 c 0
 587 441 595 444 600 451 c 0
 604 457 606 462 604 469 c 0
 602 476 594 477 586 478 c 0
 578 479 572 476 567 470 c 1
 562 476 557 478 550 478 c 0
 543 479 536 476 531 470 c 1
 527 476 522 477 515 478 c 0
 507 479 502 476 497 470 c 1
 494 474 491 476 487 477 c 1
 495 477 l 1
 489 480 486 480 480 481 c 0
 475 482 472 482 468 482 c 2
 466 482 l 1
 461 494 458 501 454 513 c 0
 452 522 445 528 448 536 c 0
 458 562 481 543 503 546 c 0
 528 550 540 571 541 588 c 0
 544 661 487 645 485 681 c 0
 484 690 494 691 502 694 c 0
 512 698 519 691 530 691 c 0
 546 690 557 691 572 694 c 1
 558 699 l 1
 572 705 l 1
 565 705 561 706 554 707 c 0
 546 709 541 710 535 714 c 0
 530 718 530 724 524 728 c 0
 517 731 509 731 501 731 c 0
 473 728 455 697 461 670 c 0
 464 654 490 652 488 635 c 0
 487 628 483 627 477 625 c 0
 454 620 452 640 414 641 c 0
 381 642 374 599 350 612 c 0
 340 617 337 622 331 631 c 0
 328 635 326 639 324 643 c 1
 320 639 319 636 318 631 c 0
 315 617 334 607 333 596 c 0
 332 587 326 566 322 561 c 1
 328 568 345 574 354 573 c 0
 362 572 365 566 373 562 c 0
 383 557 391 554 401 551 c 1
 398 547 395 545 394 539 c 0
 388 523 400 512 408 497 c 0
 411 491 413 487 415 481 c 1
 413 481 411 480 409 480 c 0
 405 479 403 478 399 477 c 1
 404 477 l 1
439 477 m 1
 435 476 431 474 428 470 c 1
 425 474 422 476 418 477 c 1
 439 477 l 1
474 477 m 1
 470 476 466 474 463 470 c 1
 460 474 457 476 452 477 c 1
 474 477 l 1
594 325 m 1
 639 297 l 1
 604 297 l 1
 639 277 l 1
 604 277 l 1
 636 257 l 1
 604 257 l 1
 604 237 l 1
 584 237 l 1
 584 257 l 1
 552 257 l 1
 584 277 l 1
 552 277 l 1
 584 297 l 1
 554 297 l 1
 594 325 l 1
427 91 m 1
 472 64 l 1
 437 64 l 1
 472 43 l 1
 437 43 l 1
 469 24 l 1
 437 24 l 1
 437 4 l 1
 417 4 l 1
 417 24 l 1
 385 24 l 1
 417 43 l 1
 385 43 l 1
 417 64 l 1
 386 64 l 1
 427 91 l 1
259 325 m 1
 304 297 l 1
 269 297 l 1
 304 277 l 1
 269 277 l 1
 302 257 l 1
 269 257 l 1
 269 237 l 1
 250 237 l 1
 250 257 l 1
 217 257 l 1
 250 277 l 1
 217 277 l 1
 250 297 l 1
 219 297 l 1
 259 325 l 1
EndSplineSet
EndChar
StartChar: Ograve
Encoding: 241 210
Width: 496
Flags: W
Fore
134 454 m 0
 134 282 165 100 295 58 c 0
 377 31 410 207 410 326 c 0
 410 486 359 638 251 678 c 0
 148 716 134 555 134 454 c 0
42 386 m 0
 42 545 100 676 225 754 c 0
 259 775 292 770 327 750 c 0
 424 694 480 567 480 430 c 0
 480 343 477 91 307 0 c 0
 274 -18 253 -27 221 -8 c 0
 85 74 42 219 42 386 c 0
322 780 m 1
 288 780 l 1
 241 887 l 1
 309 887 l 1
 309 887 309 858 311 840 c 0
 314 816 322 780 322 780 c 1
EndSplineSet
EndChar
StartChar: Uacute
Encoding: 242 218
Width: 489
Flags: MW
HStem: 0 20
Fore
321 31 m 0
 332 18 354 24 354 73 c 2
 354 73 354 665 354 683 c 0
 354 719 334 737 320 737 c 0
 316 737 314 739 314 743 c 0
 314 749 319 748 321 750 c 1
 442 750 l 2
 451 750 458 750 458 735 c 0
 458 617 458 88 458 67 c 0
 458 6 478 13 492 13 c 0
 496 13 498 11 498 7 c 0
 498 1 493 2 491 0 c 1
 333 0 l 2
 312 0 299 6 282 22 c 0
 147 149 39 297 39 518 c 0
 39 594 78 693 78 708 c 0
 78 721 60 725 60 738 c 0
 60 745 68 750 76 750 c 2
 237 750 l 1
 239 748 244 749 244 743 c 0
 244 739 242 737 238 737 c 0
 228 737 211 707 191 680 c 0
 178 663 134 546 134 456 c 0
 134 286 202 172 321 31 c 0
317 886 m 1
 271 780 l 1
 237 780 l 1
 237 780 246 816 248 839 c 0
 250 857 250 886 250 886 c 1
 317 886 l 1
EndSplineSet
EndChar
StartChar: Ucircumflex
Encoding: 243 219
Width: 489
Flags: MW
HStem: 0 20 730 20<76 237 237 237 321 442 442 446.5>
Fore
321 31 m 0
 332 18 354 24 354 73 c 2
 354 73 354 665 354 683 c 0
 354 719 334 737 320 737 c 0
 316 737 314 739 314 743 c 0
 314 749 319 748 321 750 c 1
 442 750 l 2
 451 750 458 750 458 735 c 0
 458 617 458 88 458 67 c 0
 458 6 478 13 492 13 c 0
 496 13 498 11 498 7 c 0
 498 1 493 2 491 0 c 1
 333 0 l 2
 312 0 299 6 282 22 c 0
 147 149 39 297 39 518 c 0
 39 594 78 693 78 708 c 0
 78 721 60 725 60 738 c 0
 60 745 68 750 76 750 c 2
 237 750 l 1
 239 748 244 749 244 743 c 0
 244 739 242 737 238 737 c 0
 228 737 211 707 191 680 c 0
 178 663 134 546 134 456 c 0
 134 286 202 172 321 31 c 0
188 774 m 1
 221 774 l 1
 280 818 l 1
 332 774 l 1
 369 774 l 1
 317 857 l 1
 247 857 l 1
 188 774 l 1
EndSplineSet
EndChar
StartChar: Ugrave
Encoding: 244 217
Width: 489
Flags: MW
HStem: 0 20
Fore
321 31 m 0
 332 18 354 24 354 73 c 2
 354 73 354 665 354 683 c 0
 354 719 334 737 320 737 c 0
 316 737 314 739 314 743 c 0
 314 749 319 748 321 750 c 1
 442 750 l 2
 451 750 458 750 458 735 c 0
 458 617 458 88 458 67 c 0
 458 6 478 13 492 13 c 0
 496 13 498 11 498 7 c 0
 498 1 493 2 491 0 c 1
 333 0 l 2
 312 0 299 6 282 22 c 0
 147 149 39 297 39 518 c 0
 39 594 78 693 78 708 c 0
 78 721 60 725 60 738 c 0
 60 745 68 750 76 750 c 2
 237 750 l 1
 239 748 244 749 244 743 c 0
 244 739 242 737 238 737 c 0
 228 737 211 707 191 680 c 0
 178 663 134 546 134 456 c 0
 134 286 202 172 321 31 c 0
306 770 m 1
 272 770 l 1
 226 876 l 1
 293 876 l 1
 293 876 293 847 295 829 c 0
 297 806 306 770 306 770 c 1
EndSplineSet
EndChar
StartChar: dotlessi
Encoding: 245 305
Width: 142
Flags: MW
HStem: 0 20 482 20<14 82 82 85>
VStem: 36 83
Fore
93 44 m 2
 93 20 106 8 115 8 c 0
 118 8 119 7 119 4 c 0
 119 0 116 0 115 0 c 2
 14 0 l 2
 13 1 10 0 10 4 c 0
 10 7 11 8 14 8 c 0
 23 8 36 20 36 44 c 0
 36 56 36 443 36 457 c 0
 36 498 23 493 13 493 c 0
 11 493 9 495 9 497 c 0
 9 501 13 501 14 502 c 2
 82 502 l 2
 88 502 93 502 93 492 c 0
 93 488 93 44 93 44 c 2
EndSplineSet
EndChar
StartChar: circumflex
Encoding: 246 710
Width: 373
Flags: W
Fore
50 545 m 1
 95 545 l 1
 175 611 l 1
 245 545 l 1
 295 545 l 1
 225 670 l 1
 130 670 l 1
 50 545 l 1
EndSplineSet
EndChar
StartChar: tilde
Encoding: 247 732
Width: 496
Flags: W
Fore
166 803 m 0
 181 827 193 857 218 857 c 0
 252 857 271 828 305 828 c 0
 326 828 345 839 363 850 c 0
 378 859 375 845 371 838 c 0
 357 813 345 779 315 779 c 0
 280 779 265 808 230 808 c 0
 209 808 197 802 176 789 c 0
 154 775 157 788 166 803 c 0
EndSplineSet
EndChar
StartChar: macron
Encoding: 248 175
Width: 355
Flags: W
Fore
92 805 m 1
 92 763 l 1
 121 768 138 769 167 769 c 0
 197 769 214 768 244 763 c 1
 244 805 l 1
 214 800 197 799 167 799 c 0
 138 799 121 800 92 805 c 1
EndSplineSet
EndChar
StartChar: breve
Encoding: 249 728
Width: 0
Flags: W
Fore
140 585 m 0
 98 585 67 606 50 645 c 1
 25 620 l 1
 45 568 87 540 142 540 c 0
 196 540 237 569 257 620 c 1
 231 645 l 1
 215 606 183 585 140 585 c 0
EndSplineSet
EndChar
StartChar: dotaccent
Encoding: 250 729
Width: 264
Flags: W
Fore
59 641 m 0
 60 662 78 686 99 685 c 0
 120 684 137 662 137 641 c 0
 137 619 120 593 98 593 c 0
 76 593 58 619 59 641 c 0
EndSplineSet
EndChar
StartChar: ring
Encoding: 251 730
Width: 373
Flags: MW
HStem: 540 35 679 35
VStem: 91 35 230 35
Fore
123 695 m 0
 160 725 216 719 246 682 c 0
 276 645 270 590 233 560 c 0
 196 530 140 535 110 572 c 0
 80 609 86 665 123 695 c 0
143 665 m 0
 122 645 120 613 140 592 c 0
 160 571 192 570 213 590 c 0
 234 610 236 641 216 662 c 0
 196 683 164 685 143 665 c 0
EndSplineSet
EndChar
StartChar: cedilla
Encoding: 252 184
Width: 333
Flags: MW
HStem: -175 125<157 167>
Fore
222 -50 m 1
 167 -175 l 1
 132 -175 l 1
 157 -50 l 1
 222 -50 l 1
EndSplineSet
EndChar
StartChar: ogonek
Encoding: 254 731
Width: 1000
Flags: W
Fore
123 0 m 1
 165 0 l 1
 129 -6 111 -43 115 -80 c 0
 119 -109 150 -120 180 -125 c 0
 217 -131 244 -119 265 -90 c 1
 285 -115 l 1
 261 -154 230 -171 185 -170 c 0
 130 -169 75 -135 75 -80 c 0
 75 -44 91 -17 123 0 c 1
EndSplineSet
EndChar
StartChar: caron
Encoding: 255 711
Width: 465
Flags: W
Fore
170 782 m 1
 203 782 l 1
 262 738 l 1
 313 782 l 1
 350 782 l 1
 299 699 l 1
 229 699 l 1
 170 782 l 1
EndSplineSet
EndChar
StartChar: currency
Encoding: 297 164
Width: 544
Flags: W
Fore
225 165 m 0
 25 165 25 465 225 465 c 0
 425 465 425 165 225 165 c 0
96 472 m 1
 49 520 l 1
 32 520 21 508 22 492 c 1
 22 492 69 446 69 445 c 0
 10 372 9 255 70 183 c 1
 71 183 22 134 22 134 c 1
 21 111 35 103 49 106 c 1
 98 156 l 1
 130 131 172 115 225 115 c 0
 280 115 324 132 357 159 c 1
 409 106 l 1
 438 108 441 114 437 134 c 1
 383 187 l 1
 439 259 439 369 385 441 c 1
 437 492 l 1
 443 512 430 516 409 520 c 1
 358 469 l 1
 326 498 281 515 225 515 c 0
 172 515 128 498 96 472 c 1
EndSplineSet
EndChar
StartChar: minus
Encoding: 298 8722
Width: 355
Flags: W
Fore
92 354 m 1
 92 312 l 1
 121 317 138 318 167 318 c 0
 197 318 214 317 244 312 c 1
 244 354 l 1
 214 349 197 348 167 348 c 0
 138 348 121 349 92 354 c 1
EndSplineSet
EndChar
StartChar: Omega
Encoding: 299 937
Width: 166
Flags: MW
HStem: -3 14<115 116> 736 17<133 160>
VStem: 33 63<44 684 684 687>
Fore
280 753 m 1
 277 715 262 701 241 671 c 1
 211 704 175 736 145 736 c 0
 121 736 96 712 96 687 c 0
 96 684 96 44 96 44 c 2
 96 22 107 11 115 11 c 0
 120 11 122 9 122 4 c 0
 122 -3 117 -3 115 -3 c 2
 13 -2 l 2
 11 -1 7 -2 7 4 c 0
 7 9 9 11 14 11 c 0
 22 11 33 22 33 44 c 0
 33 53 33 684 33 684 c 2
 33 723 58 753 106 753 c 0
 172 753 211 753 280 753 c 1
EndSplineSet
EndChar
StartChar: Delta
Encoding: 300 916
Width: 713
Flags: W
Fore
315 680 m 1
 0 45 l 1
 0 0 l 1
 627 0 l 1
 627 45 l 1
 315 680 l 1
535 45 m 1
 50 45 l 1
 290 530 l 1
 535 45 l 1
EndSplineSet
EndChar
